<svg width="265" height="300" viewBox="0 0 265 300" fill="none" xmlns="http://www.w3.org/2000/svg">
<g opacity="0.2">
<path d="M150 0V300" stroke="#F91616" stroke-width="2"/>
<circle cx="150" cy="150" r="111.5" stroke="#F91616" stroke-width="2"/>
<circle cx="150" cy="150" r="111.5" stroke="#F91616" stroke-width="2"/>
<path d="M142.678 55.8555H157.324" stroke="#F91616" stroke-width="2"/>
<path d="M142.678 75.8555H157.324" stroke="#F91616" stroke-width="2"/>
<path d="M142.678 95.8555H157.324" stroke="#F91616" stroke-width="2"/>
<path d="M142.678 115.855H157.324" stroke="#F91616" stroke-width="2"/>
<path d="M142.678 135.855H157.324" stroke="#F91616" stroke-width="2"/>
<path d="M142.678 164.143H157.324" stroke="#F91616" stroke-width="2"/>
<path d="M142.678 184.143H157.324" stroke="#F91616" stroke-width="2"/>
<path d="M142.678 204.143H157.324" stroke="#F91616" stroke-width="2"/>
<path d="M142.678 224.143H157.324" stroke="#F91616" stroke-width="2"/>
<path d="M142.678 244.143H157.324" stroke="#F91616" stroke-width="2"/>
<path d="M300 150L-7.29287e-06 150" stroke="#F91616" stroke-width="2"/>
<path d="M244.143 142.676L244.143 157.322" stroke="#F91616" stroke-width="2"/>
<path d="M224.143 142.676L224.143 157.322" stroke="#F91616" stroke-width="2"/>
<path d="M204.143 142.676L204.143 157.322" stroke="#F91616" stroke-width="2"/>
<path d="M184.143 142.676L184.143 157.322" stroke="#F91616" stroke-width="2"/>
<path d="M164.143 142.676L164.143 157.322" stroke="#F91616" stroke-width="2"/>
<path d="M135.857 142.676L135.857 157.322" stroke="#F91616" stroke-width="2"/>
<path d="M115.855 142.676L115.855 157.322" stroke="#F91616" stroke-width="2"/>
<path d="M95.8555 142.676L95.8555 157.322" stroke="#F91616" stroke-width="2"/>
<path d="M75.8569 142.676L75.8569 157.322" stroke="#F91616" stroke-width="2"/>
<path d="M55.8569 142.676L55.8569 157.322" stroke="#F91616" stroke-width="2"/>
</g>
</svg>
