<svg width="500" height="500" viewBox="0 0 500 500" fill="none" xmlns="http://www.w3.org/2000/svg">
<g opacity="0.2">
<path d="M250 0V500" stroke="#F91616" stroke-width="2"/>
<circle cx="250" cy="250" r="186.5" stroke="#F91616" stroke-width="2"/>
<circle cx="250" cy="250" r="186.5" stroke="#F91616" stroke-width="2"/>
<path d="M237.794 93.0938H262.205" stroke="#F91616" stroke-width="2"/>
<path d="M237.794 126.428H262.205" stroke="#F91616" stroke-width="2"/>
<path d="M237.794 159.762H262.205" stroke="#F91616" stroke-width="2"/>
<path d="M237.794 193.094H262.205" stroke="#F91616" stroke-width="2"/>
<path d="M237.794 226.428H262.205" stroke="#F91616" stroke-width="2"/>
<path d="M237.794 273.572H262.205" stroke="#F91616" stroke-width="2"/>
<path d="M237.794 306.904H262.205" stroke="#F91616" stroke-width="2"/>
<path d="M237.794 340.238H262.205" stroke="#F91616" stroke-width="2"/>
<path d="M237.794 373.572H262.205" stroke="#F91616" stroke-width="2"/>
<path d="M237.794 406.906H262.205" stroke="#F91616" stroke-width="2"/>
<path d="M500 250L6.62706e-06 250" stroke="#F91616" stroke-width="2"/>
<path d="M406.906 237.795L406.906 262.206" stroke="#F91616" stroke-width="2"/>
<path d="M373.572 237.795L373.572 262.206" stroke="#F91616" stroke-width="2"/>
<path d="M340.238 237.795L340.238 262.206" stroke="#F91616" stroke-width="2"/>
<path d="M306.905 237.795L306.905 262.206" stroke="#F91616" stroke-width="2"/>
<path d="M273.572 237.795L273.572 262.206" stroke="#F91616" stroke-width="2"/>
<path d="M226.428 237.795L226.428 262.206" stroke="#F91616" stroke-width="2"/>
<path d="M193.094 237.795L193.094 262.206" stroke="#F91616" stroke-width="2"/>
<path d="M159.761 237.795L159.761 262.206" stroke="#F91616" stroke-width="2"/>
<path d="M126.428 237.795L126.428 262.206" stroke="#F91616" stroke-width="2"/>
<path d="M93.0945 237.795L93.0945 262.206" stroke="#F91616" stroke-width="2"/>
</g>
</svg>
