<svg width="50" height="50" viewBox="0 0 50 50" fill="none" xmlns="http://www.w3.org/2000/svg">
<path opacity="0.4" fill-rule="evenodd" clip-rule="evenodd" d="M25 50C38.8071 50 50 38.8071 50 25C50 11.1929 38.8071 0 25 0C11.1929 0 0 11.1929 0 25C0 38.8071 11.1929 50 25 50ZM18 12C14.6863 12 12 14.6863 12 18V32C12 35.3137 14.6863 38 18 38H32C35.3137 38 38 35.3137 38 32V18C38 14.6863 35.3137 12 32 12H18ZM25 20C22.2386 20 20 22.2386 20 25C20 27.7614 22.2386 30 25 30C27.7614 30 30 27.7614 30 25C30 22.2386 27.7614 20 25 20ZM34 17.5C34 18.3284 33.3284 19 32.5 19C31.6716 19 31 18.3284 31 17.5C31 16.6716 31.6716 16 32.5 16C33.3284 16 34 16.6716 34 17.5Z" fill="white"/>
</svg>
