<svg width="132" height="74" viewBox="0 0 132 74" fill="none" xmlns="http://www.w3.org/2000/svg">
<path d="M100.547 39.114C100.547 39.5287 100.747 39.6401 101.368 39.6401C101.703 39.6401 102.081 39.6401 102.415 39.6401C103.755 39.6401 105.124 39.8567 105.124 41.6824C105.124 43.5081 104.029 44.2198 102.568 44.2198C101.107 44.2198 100.06 44.096 99.6456 44.096V42.8892C99.6456 42.8892 101.21 43.013 102.458 43.013C103.383 43.013 103.809 42.7035 103.809 41.7752C103.809 40.9583 103.231 40.8036 102.519 40.8036C102.166 40.8036 101.788 40.8036 101.362 40.8036C100.285 40.8036 99.2621 40.5251 99.2621 39.0397C99.2479 38.7316 99.3334 38.4273 99.5056 38.1733C98.9881 37.7401 98.8359 37.1212 98.8359 36.0877C98.8359 34.3238 99.3412 33.5379 101.314 33.5193H105.179V34.4724L104.345 34.5961C104.508 35.0773 104.581 35.5854 104.558 36.0938C104.558 38.0743 103.828 38.6436 102.415 38.6436H100.833C100.62 38.6436 100.547 38.6932 100.547 38.9036V39.114ZM103.329 36.0196C103.329 34.8128 103.036 34.6147 102.111 34.6147H101.399C100.394 34.6147 100.09 34.8004 100.09 36.1124C100.09 37.6101 100.486 37.6101 102.129 37.6101C103.024 37.6287 103.329 37.1212 103.329 36.0072V36.0196Z" fill="white"/>
<path d="M110.256 33.4697V34.658C109.495 34.7485 108.752 34.9572 108.052 35.2769V41.3419H106.731V33.6059H107.876L107.967 34.1505C108.681 33.7775 109.457 33.5464 110.256 33.4697Z" fill="white"/>
<path d="M111.364 37.4739C111.364 34.3052 111.79 33.4512 114.195 33.4512C116.6 33.4512 117.068 34.3609 117.068 37.4739C117.068 40.5869 116.66 41.4781 114.195 41.4781C111.73 41.4781 111.364 40.5683 111.364 37.4739ZM115.76 37.4739C115.76 34.9551 115.607 34.4909 114.195 34.4909C112.783 34.4909 112.691 35.017 112.691 37.4739C112.691 39.9309 112.813 40.4136 114.195 40.4136C115.577 40.4136 115.766 39.9185 115.766 37.4739H115.76Z" fill="white"/>
<path d="M120.149 33.6368V39.5905C120.141 39.6737 120.152 39.7575 120.18 39.836C120.208 39.9146 120.252 39.9859 120.31 40.045C120.368 40.104 120.438 40.1494 120.516 40.1778C120.593 40.2062 120.675 40.217 120.757 40.2094C121.503 40.1797 122.237 40.0054 122.918 39.6957V33.6368H124.239V41.3419H123.144L123.022 40.8035C122.264 41.1933 121.435 41.4208 120.587 41.4719C119.552 41.4719 118.87 40.9025 118.87 39.6152V33.6306L120.149 33.6368Z" fill="white"/>
<path d="M131.423 38.0185C131.362 40.494 130.905 41.4966 129.31 41.4966C128.793 41.4966 128.245 41.4347 127.484 41.3605V44.3435H126.193V33.6058H127.186L127.32 34.1628C127.95 33.779 128.667 33.5659 129.401 33.5439C130.783 33.5439 131.41 34.7322 131.41 37.5976L131.423 38.0185ZM129.158 34.6951C128.57 34.744 128.003 34.935 127.502 35.2521V40.166C128.024 40.2618 128.554 40.3074 129.085 40.3022H129.134C130.077 40.3022 130.077 39.0644 130.077 37.9814C130.071 35.5739 129.901 34.6889 129.158 34.6889V34.6951Z" fill="white"/>
<path d="M2.00563 38.9155V35.2022H0.422852V34.1501H2.00563V32.1882H3.26576V34.1377H4.89114V35.1898H3.26576V39.423C3.26576 40.6608 3.5397 40.9826 4.30065 40.9826C4.55098 40.989 4.80142 40.9745 5.04942 40.9393C5.04942 41.1868 5.04942 41.6324 5.04942 41.8676C4.75016 41.9443 4.44441 41.992 4.13628 42.0099C2.12738 42.0099 2.00563 40.7845 2.00563 38.9155Z" fill="white"/>
<path d="M10.5589 41.8985V35.9015C10.5589 35.4992 10.358 35.2393 9.9501 35.2393C9.19107 35.2589 8.44287 35.427 7.7464 35.7344V41.8985H6.46191V31.2289H7.74031V34.5709C8.51856 34.2606 9.34062 34.0788 10.1753 34.0324C11.3137 34.0324 11.8616 34.6513 11.8616 35.8891V41.8985H10.5589Z" fill="white"/>
<path d="M19.1547 38.4017H18.8137H14.8872C14.9299 40.8772 15.3743 40.8772 16.7561 40.8772C17.1031 40.8772 17.8945 40.8153 18.7346 40.7411V41.7004C17.8775 41.8678 17.0079 41.9609 16.1352 41.9788C13.9924 41.9788 13.5967 40.9886 13.5967 37.9561C13.5967 34.9236 13.9437 33.9519 16.3787 33.9519C18.7346 33.9519 19.1486 34.8493 19.1486 37.987L19.1547 38.4017ZM14.8933 37.3186H17.8763C17.8276 35.4001 17.651 35.0473 16.3726 35.0473C14.9542 35.0473 14.9542 35.7095 14.9116 37.3186H14.8933Z" fill="white"/>
<path d="M78.2237 34.2248C78.2796 34.2423 78.3304 34.2735 78.3718 34.3155C78.4132 34.3576 78.4438 34.4093 78.4611 34.4662V34.6456L78.2845 35.0108C78.2028 35.0961 78.1423 35.2001 78.108 35.314C78.0731 35.4277 78.0126 35.5315 77.9315 35.6173C77.8852 35.7254 77.8259 35.8273 77.7549 35.9205C77.6703 36.0096 77.6004 36.112 77.5479 36.2238C77.4954 36.3355 77.4255 36.4379 77.341 36.527C77.1733 36.6607 77.0309 36.8242 76.9209 37.0098C76.8643 37.2006 76.7845 37.3835 76.6835 37.5544C76.6122 37.6246 76.5526 37.7061 76.507 37.7957L76.3852 38.0371C76.2964 38.1299 76.2168 38.2315 76.1478 38.3404C76.0783 38.4489 75.9988 38.5505 75.9104 38.6436L75.7338 38.8231C75.6593 38.8969 75.6084 38.9918 75.5877 39.0954C75.5667 39.1989 75.5158 39.2937 75.4416 39.3677C75.365 39.4452 75.3049 39.5379 75.2651 39.64C75.225 39.742 75.1649 39.8347 75.0885 39.9123C74.9911 40.0207 74.911 40.1439 74.8511 40.2775L74.6746 40.6426C74.632 40.6859 74.6137 40.7107 74.6137 40.7354C74.6137 40.7602 74.6137 40.785 74.5528 40.8283C74.4016 40.9397 74.2785 41.0861 74.1937 41.2553C74.1177 41.4132 74.0169 41.5574 73.8954 41.6823C73.8242 41.7755 73.7649 41.8774 73.7188 41.9856C73.6444 42.0611 73.5753 42.1417 73.5119 42.227C73.4487 42.3124 73.3795 42.393 73.3049 42.4683L73.1283 42.6478L72.4161 43.3719L72.2396 43.5514C72.0572 43.6224 71.8943 43.7371 71.7647 43.8856C71.643 44.0279 71.503 44.1764 71.3447 44.3374C71.021 44.5431 70.6833 44.7251 70.3341 44.882C69.977 45.0429 69.6199 45.2244 69.2627 45.4266H68.5505C68.495 45.428 68.4399 45.4177 68.3886 45.3964C68.3373 45.3751 68.2908 45.3433 68.2522 45.3028L68.0756 45.1233C68.0432 45.0685 68.0225 45.0074 68.0148 44.9439C68.0148 44.9067 67.9722 44.8448 67.893 44.7644C67.7952 44.6564 67.715 44.5331 67.6556 44.3993C67.552 44.2188 67.4722 44.0253 67.4182 43.8237V42.5797C67.4115 42.3368 67.4319 42.0939 67.4791 41.8556L67.6008 41.4905L67.7226 41.1253C67.7721 40.9611 67.831 40.7999 67.8991 40.6426C67.9654 40.468 68.0064 40.2846 68.0209 40.098C68.041 39.9325 68.0819 39.7702 68.1426 39.6153C68.2217 39.4544 68.1791 39.3739 68.0209 39.3739C67.8939 39.359 67.7714 39.3168 67.6617 39.2501C67.6297 39.2481 67.5976 39.2526 67.5674 39.2632C67.5371 39.2738 67.5091 39.2904 67.4852 39.312C67.297 39.4927 67.1369 39.7014 67.0103 39.9309L66.7729 40.296L66.5355 40.6612L66.2981 41.0263C66.2287 41.1349 66.1492 41.2365 66.0607 41.3296C65.9789 41.415 65.9184 41.5189 65.8841 41.6328C65.8492 41.7465 65.7888 41.8503 65.7076 41.9361C65.6284 42.0599 65.5615 42.1713 65.5006 42.2703C65.4428 42.3693 65.3733 42.4608 65.2936 42.5426C65.2145 42.6664 65.1475 42.7778 65.0866 42.8768C65.0259 42.9823 64.9769 43.0944 64.9405 43.211C64.8188 43.3719 64.7092 43.5328 64.6118 43.6937C64.5067 43.8668 64.4171 44.049 64.344 44.2383L64.1674 44.4178L63.9909 44.5973L63.6317 44.9624C63.569 45.0214 63.5193 45.0931 63.4856 45.1729C63.452 45.2526 63.4022 45.3243 63.3395 45.3833C63.2604 45.507 63.1812 45.637 63.1021 45.7794C63.0206 45.9244 62.9203 46.0577 62.8038 46.1754C62.7251 46.2952 62.6354 46.4071 62.5359 46.5096C62.4357 46.6115 62.3459 46.7234 62.2681 46.8438L62.0915 47.0233C61.9834 47.2102 61.8408 47.3741 61.6715 47.506C61.5032 47.6364 61.3445 47.7791 61.1967 47.9331L60.8375 48.1126L60.6305 48.2054C60.5594 48.231 60.4902 48.2621 60.4235 48.2982H60.1496C59.978 48.2304 59.7975 48.1887 59.6139 48.1744H59.0782L58.719 47.995C58.6282 47.9823 58.5438 47.9398 58.479 47.8738C58.4141 47.8079 58.3723 47.7222 58.3598 47.6298C58.3448 47.5008 58.3034 47.3764 58.2381 47.2647C58.1569 47.2234 58.1569 47.1636 58.2381 47.0852C58.2848 46.9077 58.3053 46.7242 58.299 46.5406C58.2983 46.4787 58.2816 46.4182 58.2506 46.3649C58.2196 46.3117 58.1754 46.2677 58.1224 46.2373C58.0151 46.1629 57.9323 46.0572 57.885 45.9341C57.8963 45.9042 57.8963 45.8711 57.885 45.8412C57.8788 45.8266 57.8756 45.8108 57.8756 45.7948C57.8756 45.7789 57.8788 45.7631 57.885 45.7484C57.8297 45.4996 57.7502 45.2571 57.6476 45.0243C57.6413 44.8407 57.6618 44.6572 57.7085 44.4797C57.7738 44.368 57.8152 44.2436 57.8302 44.1146C57.8177 43.867 57.8593 43.6197 57.952 43.3905C57.9732 43.3661 57.9896 43.3377 58 43.3069C58.0105 43.2761 58.0148 43.2435 58.0129 43.211C58.0109 43.1785 58.0153 43.1459 58.0257 43.1151C58.0361 43.0843 58.0525 43.0559 58.0737 43.0315C58.1112 42.997 58.1413 42.955 58.1623 42.9081C58.1832 42.8613 58.1945 42.8106 58.1955 42.7592C58.1951 42.6649 58.2159 42.5718 58.2564 42.4869L58.4329 42.1218C58.512 42.0413 58.5547 41.9794 58.5547 41.9423C58.5588 41.8725 58.5765 41.8043 58.6068 41.7417C58.6371 41.679 58.6794 41.623 58.7312 41.5771C58.8509 41.4079 58.951 41.2251 59.0295 41.0325C59.078 40.886 59.137 40.7432 59.206 40.6055L59.5408 39.8566C59.5869 39.7484 59.6463 39.6465 59.7174 39.5534C59.8709 39.3599 59.9736 39.1299 60.0157 38.885C60.0137 38.8525 60.0181 38.8199 60.0285 38.7891C60.039 38.7583 60.0553 38.7299 60.0766 38.7055C60.1121 38.6409 60.1329 38.569 60.1374 38.4951C60.1416 38.4211 60.1624 38.3491 60.1983 38.2847L60.3748 37.9195C60.4466 37.7777 60.4959 37.6252 60.5209 37.4677C60.5454 37.3101 60.5947 37.1576 60.667 37.016C60.6744 36.8659 60.7161 36.7197 60.7888 36.5889C60.862 36.3996 60.9516 36.2174 61.0567 36.0443L61.3854 35.4997C61.4522 35.3365 61.5541 35.1905 61.6837 35.0727C61.7158 35.0177 61.7365 34.9566 61.7446 34.8932C61.7525 34.8297 61.7732 34.7686 61.8054 34.7137L61.982 34.3486C62.0519 34.2436 62.111 34.1316 62.1585 34.0144C62.2057 33.897 62.2648 33.785 62.335 33.6802C62.3897 33.4948 62.4928 33.328 62.6333 33.1974C62.6858 33.1059 62.7072 32.9993 62.6942 32.8942C62.6151 32.8137 62.5725 32.7518 62.5725 32.7147C62.559 32.6096 62.5804 32.5028 62.6333 32.4115C62.6739 32.3702 62.7328 32.3702 62.8099 32.4115C62.8464 32.4115 62.9073 32.3743 62.9864 32.2877C63.0491 32.2287 63.0989 32.157 63.1325 32.0773C63.1662 31.9975 63.2159 31.9258 63.2786 31.8668C63.4113 31.7363 63.5315 31.5933 63.6378 31.4398C63.7201 31.3046 63.8205 31.1817 63.9361 31.0747C64.1241 30.8939 64.2842 30.6852 64.4109 30.4558C64.5273 30.2573 64.6905 30.0914 64.8857 29.9731C65.037 29.8654 65.1777 29.7431 65.3058 29.6079C65.4805 29.3674 65.7325 29.1967 66.018 29.1252H66.1946C66.2266 29.1272 66.2586 29.1227 66.2889 29.1121C66.3192 29.1015 66.3471 29.0849 66.3711 29.0633C66.5025 29.0024 66.6237 28.921 66.7303 28.8219C66.9277 28.6476 67.1492 28.5037 67.3877 28.3949C67.5166 28.3214 67.6603 28.279 67.8078 28.2711H68.167L68.5261 28.4506C68.6138 28.4977 68.6939 28.5582 68.7635 28.6301L69.1227 28.9952C69.1915 29.068 69.2717 29.1287 69.3601 29.1747C69.5152 29.2523 69.657 29.3547 69.7802 29.4779L70.1393 29.8431C70.2185 29.9235 70.2611 29.9854 70.2611 30.0226C70.2611 30.0597 70.3402 30.2577 70.3828 30.3568C70.4237 30.4632 70.4444 30.5766 70.4437 30.691C70.4675 30.7129 70.4954 30.7296 70.5257 30.7403C70.5561 30.7509 70.5882 30.7552 70.6203 30.7528C70.7516 30.6919 70.8728 30.6104 70.9794 30.5115C71.0586 30.431 71.1194 30.3877 71.156 30.3877C71.2184 30.3797 71.2785 30.3586 71.3325 30.3258L71.6917 29.9607C71.7059 29.9426 71.724 29.928 71.7445 29.918C71.7651 29.908 71.7876 29.9028 71.8104 29.9028C71.8332 29.9028 71.8557 29.908 71.8762 29.918C71.8968 29.928 71.9148 29.9426 71.9291 29.9607C71.9654 29.9971 71.9962 30.0388 72.0204 30.0845C72.0552 30.1402 72.1063 30.1835 72.1665 30.2082C72.2191 30.2391 72.263 30.2832 72.2939 30.3363C72.3248 30.3894 72.3417 30.4498 72.343 30.5115V30.691C72.4222 30.7714 72.4831 30.8147 72.5196 30.8147C72.5489 30.8268 72.5816 30.8268 72.6109 30.8147C72.6402 30.8027 72.6729 30.8027 72.7022 30.8147C72.7315 30.8268 72.7642 30.8268 72.7935 30.8147C72.8228 30.8027 72.8556 30.8027 72.8848 30.8147C72.964 30.8147 73.0066 30.8147 73.0066 30.8766C73.0128 31.0014 72.992 31.126 72.9457 31.2418C72.9576 31.2715 72.9576 31.3048 72.9457 31.3346C72.9339 31.3644 72.9339 31.3977 72.9457 31.4274C72.9434 31.46 72.9476 31.4927 72.9581 31.5235C72.9685 31.5544 72.985 31.5827 73.0066 31.6069C73.0431 31.6874 73.0857 31.7802 73.1283 31.8792C73.171 31.9782 73.2075 32.0711 73.2501 32.1515C73.2968 32.3898 73.3172 32.6327 73.311 32.8756C73.3129 32.9081 73.3086 32.9407 73.2981 32.9715C73.2877 33.0023 73.2714 33.0307 73.2501 33.0551C73.1723 33.1605 73.1297 33.2884 73.1283 33.4202C73.1247 33.5516 73.0822 33.6788 73.0066 33.7854C72.9303 34.0359 72.8304 34.2784 72.7083 34.5095C72.6616 34.6251 72.6408 34.7498 72.6474 34.8746C72.6494 34.9071 72.645 34.9397 72.6346 34.9705C72.6241 35.0013 72.6078 35.0297 72.5865 35.0541C72.5461 35.139 72.5253 35.2321 72.5257 35.3264C72.5261 35.4207 72.5052 35.5138 72.4648 35.5987C72.4244 35.6836 72.4035 35.7767 72.4039 35.871C72.4029 35.9224 72.3916 35.9731 72.3707 36.02C72.3498 36.0668 72.3196 36.1088 72.2822 36.1433C72.2417 36.2282 72.2209 36.3213 72.2213 36.4156C72.2203 36.4671 72.209 36.5177 72.1881 36.5646C72.1671 36.6114 72.137 36.6534 72.0995 36.6879C72.0428 36.8788 71.9631 37.0617 71.8621 37.2326C71.7954 37.407 71.7543 37.5905 71.7404 37.7772C71.7423 37.8097 71.738 37.8423 71.7275 37.8731C71.7171 37.9039 71.7008 37.9323 71.6795 37.9567C71.6067 38.1012 71.5476 38.2525 71.503 38.4084C71.4578 38.5642 71.3987 38.7154 71.3264 38.8602C71.3052 38.8846 71.2888 38.913 71.2784 38.9438C71.2679 38.9746 71.2636 39.0072 71.2655 39.0397C71.2505 39.1687 71.2091 39.2931 71.1438 39.4049L70.9673 39.77C70.9205 39.8856 70.8997 40.0103 70.9064 40.1351V40.6798C71.0098 40.6934 71.1148 40.6717 71.2047 40.6179L71.9169 40.0732L72.4526 39.5286C72.5219 39.4563 72.602 39.3957 72.69 39.3491C72.9158 39.2204 73.121 39.0577 73.2988 38.8664L73.658 38.5013C73.6966 38.4608 73.743 38.429 73.7944 38.4077C73.8457 38.3864 73.9008 38.3761 73.9563 38.3775C74.0117 38.3789 74.0668 38.3686 74.1181 38.3473C74.1695 38.326 74.2159 38.2942 74.2545 38.2537C74.3177 38.1928 74.3923 38.1455 74.4739 38.1146C74.5555 38.0838 74.6424 38.0701 74.7294 38.0742C74.7659 38.0742 74.8268 38.0371 74.9059 37.9505L75.2651 37.5853C75.3865 37.4603 75.4873 37.3161 75.5634 37.1583C75.5806 37.1014 75.6113 37.0497 75.6526 37.0077C75.694 36.9656 75.7449 36.9345 75.8008 36.9169C75.8567 36.8994 75.9076 36.8683 75.949 36.8262C75.9903 36.7841 76.021 36.7324 76.0382 36.6756L76.2148 36.3104C76.2457 36.2444 76.2868 36.1838 76.3365 36.131C76.386 36.0779 76.4271 36.0174 76.4583 35.9515C76.5405 35.8162 76.6409 35.6933 76.7565 35.5863C76.8857 35.468 76.9875 35.3222 77.0548 35.1593C77.1005 35.0697 77.1601 34.9882 77.2314 34.9179C77.3105 34.8375 77.3714 34.7942 77.4079 34.7942C77.4619 34.8271 77.522 34.8482 77.5845 34.856C77.6468 34.8646 77.7068 34.8856 77.761 34.9179L78.2237 34.2248ZM69.1653 33.4388V33.2593C69.1227 33.2222 69.0984 33.1974 69.074 33.1974C69.0497 33.1974 69.0253 33.1974 68.9827 33.1355L68.6235 32.7704C68.5748 32.7273 68.5115 32.7052 68.447 32.7085C68.3784 32.7127 68.3113 32.7307 68.2496 32.7615C68.188 32.7923 68.133 32.8353 68.0878 32.888L67.82 33.1603C67.7199 33.2623 67.6302 33.3743 67.5521 33.4945L66.6572 34.4043C66.6333 34.4259 66.6053 34.4425 66.575 34.4531C66.5447 34.4637 66.5127 34.4682 66.4807 34.4662C66.4672 34.361 66.4887 34.2543 66.5416 34.1629C66.5879 34.0472 66.6087 33.9225 66.6024 33.7978C66.5144 33.8443 66.4343 33.9049 66.365 33.9772L66.1885 34.3424L66.012 34.5219C65.9232 34.6147 65.8437 34.7163 65.7745 34.8251L65.5371 35.1902C65.4194 35.3512 65.2997 35.5018 65.178 35.642C65.0519 35.7958 64.9512 35.9693 64.8797 36.1557V36.3352C64.8826 36.39 64.8666 36.4442 64.8343 36.4883C64.8021 36.5324 64.7556 36.5636 64.7031 36.5765C64.622 36.6591 64.622 36.7189 64.7031 36.756V36.9355C64.6341 37.0733 64.5751 37.216 64.5266 37.3625C64.5266 37.4059 64.484 37.4616 64.4048 37.542C64.3696 37.5718 64.3407 37.6086 64.3198 37.6501C64.2988 37.6916 64.2864 37.7369 64.2831 37.7834C64.2068 38.0339 64.1069 38.2764 63.9848 38.5075C63.8622 38.7383 63.7623 38.9808 63.6865 39.2316C63.6346 39.3879 63.554 39.5328 63.4491 39.6586C63.4093 39.6979 63.3779 39.7451 63.357 39.7973C63.336 39.8495 63.3259 39.9055 63.3273 39.9618C63.3335 40.0866 63.3128 40.2113 63.2665 40.327C63.1919 40.4008 63.141 40.4957 63.1203 40.5993C63.0993 40.7028 63.0485 40.7976 62.9742 40.8716C62.8965 40.977 62.8538 41.105 62.8525 41.2367C62.8539 41.2931 62.8438 41.3491 62.8228 41.4013C62.8019 41.4535 62.7705 41.5007 62.7307 41.54C62.6273 41.7724 62.5478 42.0151 62.4933 42.2641C62.4933 42.3446 62.4933 42.3879 62.5542 42.3879H62.6151L62.7916 42.2084C62.8434 42.1625 62.8857 42.1066 62.916 42.0439C62.9463 41.9812 62.9641 41.913 62.9682 41.8433C62.983 41.7142 63.0245 41.5897 63.0899 41.4781C63.1871 41.3696 63.2672 41.2464 63.3273 41.113C63.4 40.9605 63.4899 40.8172 63.5952 40.6859C63.7001 40.5544 63.79 40.4111 63.863 40.2589C63.887 40.2373 63.9149 40.2207 63.9452 40.2101C63.9755 40.1995 64.0076 40.195 64.0396 40.197C64.0853 40.1937 64.1299 40.181 64.1707 40.1597C64.2115 40.1385 64.2476 40.109 64.277 40.0732C64.553 39.6276 64.7559 39.3038 64.8857 39.1016C65.0156 38.8994 65.2348 38.5755 65.5432 38.1299C65.6223 38.0062 65.7015 37.901 65.7806 37.7957C65.8598 37.6905 65.9389 37.5853 66.018 37.4616C66.1277 37.1898 66.3141 36.9572 66.5537 36.7932L66.7303 36.6137C66.8013 36.5432 66.8609 36.4618 66.9068 36.3723L67.0286 36.131C67.1345 35.9772 67.2548 35.8341 67.3877 35.7039C67.4586 35.6106 67.5179 35.5087 67.5643 35.4007L67.9235 34.856C68.0659 34.6609 68.2248 34.4787 68.3983 34.3114C68.5138 34.2043 68.6142 34.0814 68.6966 33.9463C68.7422 33.8567 68.8018 33.7752 68.8731 33.7049C68.9477 33.6296 69.0169 33.549 69.0801 33.4636C69.1435 33.3783 69.2127 33.2977 69.2871 33.2222C69.3083 33.1978 69.3247 33.1694 69.3351 33.1386C69.3456 33.1078 69.3499 33.0752 69.348 33.0427L69.1653 33.4388ZM62.9682 32.7704C62.9599 32.7694 62.9516 32.7703 62.9437 32.7731C62.9359 32.7758 62.9288 32.7804 62.9229 32.7863C62.9171 32.7923 62.9126 32.7995 62.9099 32.8075C62.9072 32.8154 62.9063 32.8239 62.9073 32.8323V32.7704H62.9682ZM63.0899 32.4053C63.0981 32.4063 63.1065 32.4053 63.1143 32.4026C63.1221 32.3998 63.1293 32.3953 63.1351 32.3893C63.141 32.3834 63.1454 32.3762 63.1482 32.3682C63.1509 32.3602 63.1518 32.3517 63.1508 32.3434L63.0899 32.4053ZM66.012 34.3424C66.0202 34.3434 66.0285 34.3425 66.0364 34.3397C66.0442 34.3369 66.0513 34.3324 66.0572 34.3264C66.063 34.3205 66.0675 34.3133 66.0702 34.3053C66.0729 34.2973 66.0738 34.2889 66.0728 34.2805L66.012 34.3424ZM66.6694 32.8261C66.6776 32.8271 66.686 32.8262 66.6938 32.8234C66.7016 32.8207 66.7088 32.8161 66.7146 32.8102C66.7205 32.8042 66.7249 32.797 66.7277 32.789C66.7304 32.7811 66.7313 32.7726 66.7303 32.7642L66.6694 32.8261ZM66.9068 32.5847C66.8901 32.5814 66.8729 32.5822 66.8566 32.5872C66.8403 32.5922 66.8254 32.6013 66.8134 32.6135C66.8013 32.6258 66.7925 32.6408 66.7875 32.6574C66.7826 32.674 66.7817 32.6915 66.7851 32.7085C66.8007 32.7105 66.8166 32.7089 66.8316 32.7037C66.8465 32.6985 66.8601 32.6899 66.8713 32.6785C66.8824 32.6672 66.8909 32.6534 66.896 32.6382C66.9011 32.623 66.9027 32.6069 66.9007 32.5909L66.9068 32.5847ZM66.9068 33.2531C66.8901 33.2497 66.8729 33.2506 66.8566 33.2556C66.8403 33.2606 66.8254 33.2697 66.8134 33.2819C66.8013 33.2942 66.7925 33.3092 66.7875 33.3258C66.7826 33.3424 66.7817 33.3599 66.7851 33.3769C66.8013 33.3792 66.8179 33.3775 66.8333 33.3719C66.8488 33.3664 66.8628 33.3572 66.8741 33.3451C66.8854 33.333 66.8937 33.3184 66.8983 33.3024C66.903 33.2864 66.9038 33.2695 66.9007 33.2531H66.9068ZM67.0834 32.4053C67.0667 32.4019 67.0494 32.4027 67.0331 32.4077C67.0168 32.4128 67.002 32.4218 66.9899 32.434C66.9779 32.4463 66.969 32.4614 66.9641 32.4779C66.9591 32.4945 66.9583 32.5121 66.9616 32.529C66.9779 32.5313 66.9944 32.5296 67.0099 32.5241C67.0254 32.5185 67.0393 32.5093 67.0506 32.4973C67.0619 32.4852 67.0702 32.4705 67.0749 32.4545C67.0795 32.4385 67.0803 32.4217 67.0773 32.4053H67.0834ZM67.0834 33.0737C67.0667 33.0703 67.0494 33.0711 67.0331 33.0761C67.0168 33.0812 67.002 33.0902 66.9899 33.1024C66.9779 33.1147 66.969 33.1298 66.9641 33.1463C66.9591 33.1629 66.9583 33.1805 66.9616 33.1974C66.9779 33.1997 66.9944 33.198 67.0099 33.1925C67.0254 33.1869 67.0393 33.1777 67.0506 33.1657C67.0619 33.1536 67.0702 33.1389 67.0749 33.1229C67.0795 33.1069 67.0803 33.09 67.0773 33.0737H67.0834ZM67.1442 32.2877C67.1275 32.2843 67.1103 32.2851 67.094 32.2902C67.0777 32.2952 67.0628 32.3042 67.0508 32.3165C67.0388 32.3287 67.0299 32.3438 67.0249 32.3603C67.02 32.3769 67.0192 32.3945 67.0225 32.4115C67.0387 32.4137 67.0553 32.412 67.0708 32.4065C67.0862 32.4009 67.1002 32.3918 67.1115 32.3797C67.1228 32.3676 67.1311 32.3529 67.1357 32.3369C67.1404 32.3209 67.1412 32.3041 67.1382 32.2877H67.1442ZM67.1442 32.9561C67.136 32.9551 67.1277 32.956 67.1198 32.9588C67.112 32.9615 67.1049 32.966 67.099 32.972C67.0932 32.978 67.0887 32.9852 67.086 32.9932C67.0833 33.0011 67.0824 33.0096 67.0834 33.018L67.1442 32.9561ZM67.3208 32.1082C67.3041 32.1048 67.2868 32.1057 67.2705 32.1107C67.2542 32.1157 67.2394 32.1247 67.2273 32.137C67.2153 32.1492 67.2064 32.1643 67.2015 32.1809C67.1965 32.1974 67.1957 32.215 67.199 32.232C67.2164 32.2358 67.2343 32.235 67.2513 32.2297C67.2682 32.2244 67.2835 32.2147 67.2957 32.2017C67.3079 32.1886 67.3167 32.1726 67.3211 32.1552C67.3254 32.1377 67.3253 32.1194 67.3208 32.102V32.1082ZM67.4973 31.9287C67.4806 31.9253 67.4634 31.9262 67.4471 31.9312C67.4308 31.9362 67.4159 31.9453 67.4039 31.9575C67.3918 31.9697 67.3829 31.9848 67.378 32.0014C67.3731 32.018 67.3722 32.0355 67.3756 32.0525C67.3929 32.0563 67.4109 32.0555 67.4278 32.0502C67.4447 32.0449 67.46 32.0352 67.4723 32.0222C67.4845 32.0092 67.4932 31.9931 67.4976 31.9757C67.502 31.9582 67.5019 31.9399 67.4973 31.9225V31.9287ZM67.6739 31.6874C67.6386 31.7172 67.6097 31.754 67.5888 31.7954C67.5679 31.8369 67.5554 31.8822 67.5521 31.9287C67.5841 31.9307 67.6162 31.9263 67.6464 31.9157C67.6767 31.905 67.7047 31.8885 67.7287 31.8668C67.7692 31.8256 67.7692 31.7658 67.7287 31.6874H67.6739ZM69.3419 32.232C69.3428 32.2236 69.3419 32.2151 69.3392 32.2072C69.3365 32.1992 69.3321 32.192 69.3262 32.186C69.3203 32.1801 69.3132 32.1755 69.3054 32.1728C69.2976 32.17 69.2892 32.1691 69.281 32.1701L69.3419 32.232ZM69.3419 31.5079C69.3409 31.5163 69.3418 31.5247 69.3445 31.5327C69.3472 31.5407 69.3517 31.5479 69.3575 31.5538C69.3634 31.5598 69.3705 31.5643 69.3783 31.5671C69.3862 31.5698 69.3945 31.5708 69.4027 31.5698L69.3419 31.5079ZM69.5793 32.7457C69.5793 32.6652 69.5001 32.5847 69.3419 32.5043V32.5662C69.4203 32.6866 69.5217 32.7897 69.6402 32.8694H69.701L69.5793 32.7457ZM70.9551 40.7231C70.9633 40.7241 70.9716 40.7232 70.9795 40.7204C70.9873 40.7176 70.9944 40.7131 71.0003 40.7071C71.0061 40.7012 71.0106 40.694 71.0133 40.686C71.016 40.678 71.0169 40.6696 71.016 40.6612L70.9551 40.7231Z" fill="#F91616"/>
<path d="M110.92 1.33726C110.727 1.57092 110.63 1.75581 110.487 2.02422C110.344 2.29234 110.175 2.54527 109.982 2.77926C109.9 2.86463 109.84 2.96859 109.806 3.08251C109.771 3.19615 109.71 3.29997 109.629 3.38576C109.555 3.45954 109.504 3.55444 109.483 3.65807C109.462 3.76158 109.411 3.85637 109.337 3.93038L109.16 4.10986C109.085 4.30399 108.985 4.48712 108.862 4.65448C108.733 4.82974 108.613 5.01152 108.503 5.1991C108.432 5.26933 108.372 5.35084 108.326 5.44046C108.187 5.69417 108.028 5.93628 107.851 6.16456L107.316 7.07432C107.166 7.22141 107.044 7.3956 106.957 7.58799C106.869 7.78571 106.769 7.9779 106.658 8.16355L106.482 8.52869L106.305 8.89384C106.226 8.97429 106.183 9.03618 106.183 9.07331C106.104 9.15585 106.053 9.26217 106.037 9.37656C106.021 9.49071 105.97 9.59678 105.891 9.67982C105.817 9.7536 105.766 9.84849 105.745 9.95213C105.724 10.0556 105.673 10.1504 105.599 10.2244C105.556 10.2678 105.538 10.2925 105.538 10.3173C105.538 10.342 105.538 10.3668 105.477 10.4101C105.317 10.6389 105.177 10.8812 105.057 11.1342C104.984 11.2864 104.894 11.4296 104.789 11.5612C104.684 11.6924 104.594 11.8358 104.522 11.9883C104.416 12.2165 104.274 12.4256 104.102 12.6071L103.925 12.7866C103.85 12.8604 103.8 12.9553 103.779 13.0589C103.758 13.1624 103.707 13.2572 103.633 13.3312C103.602 13.3971 103.561 13.4577 103.511 13.5107C103.461 13.5636 103.42 13.6242 103.389 13.6902C103.314 13.8031 103.255 13.926 103.213 14.0553C103.178 14.169 103.117 14.2728 103.036 14.3586L102.86 14.7237C102.58 15.2477 102.322 15.7635 102.087 16.2709C101.851 16.7784 101.583 17.2962 101.283 17.8243C101.202 17.9852 101.123 18.1358 101.046 18.2761C100.955 18.4328 100.856 18.5837 100.747 18.7279C100.726 18.7523 100.71 18.7807 100.699 18.8115C100.689 18.8423 100.684 18.8749 100.686 18.9074C100.688 18.9399 100.684 18.9725 100.674 19.0033C100.663 19.0341 100.647 19.0625 100.626 19.0869C100.554 19.1571 100.495 19.2386 100.449 19.3282L100.327 19.5696C100.312 19.6986 100.271 19.823 100.205 19.9347L98.9514 22.6578C98.8769 22.7316 98.826 22.8265 98.8053 22.9301C98.7843 23.0336 98.7334 23.1284 98.6592 23.2024L98.5009 23.3943V23.5738L98.3244 24.1184C98.2818 24.1988 98.2453 24.2917 98.2027 24.3907C98.16 24.4897 98.1235 24.5826 98.0809 24.663C98.0383 24.7435 97.9348 24.9786 97.8739 25.1148C97.8079 25.2804 97.759 25.4526 97.7278 25.6285L97.5513 25.9936L97.0156 26.9034C96.893 27.1342 96.7931 27.3767 96.7173 27.6275L96.5407 27.9926C96.4616 28.1968 96.3825 28.3887 96.3033 28.5682C96.2242 28.7476 96.1451 28.9395 96.0659 29.1437C95.9454 29.3125 95.8453 29.4953 95.7676 29.6883C95.6885 29.8493 95.6215 30.004 95.5606 30.1401C95.5001 30.2865 95.4513 30.4376 95.4145 30.5919C95.4145 30.6352 95.3719 30.6909 95.2928 30.7714C95.2734 30.8512 95.2365 30.9255 95.1848 30.9887C95.1332 31.052 95.0681 31.1025 94.9945 31.1365C94.8727 31.217 94.818 31.2974 94.818 31.3779C94.819 31.4342 94.8087 31.4901 94.7878 31.5423C94.7669 31.5944 94.7357 31.6417 94.6962 31.6812L94.5197 31.8606C94.4679 31.9065 94.4256 31.9625 94.3953 32.0252C94.365 32.0878 94.3472 32.156 94.3431 32.2258V32.4053C94.2764 32.5797 94.2353 32.7632 94.2214 32.9499C94.2239 33.3077 94.0959 33.6539 93.8622 33.9215C93.8224 33.9608 93.7911 34.008 93.7701 34.0602C93.7492 34.1124 93.7391 34.1684 93.7404 34.2248C93.7467 34.3495 93.7259 34.4742 93.6796 34.5899C93.6391 34.6748 93.6183 34.7679 93.6187 34.8622C93.6191 34.9565 93.5983 35.0497 93.5578 35.1345C93.5219 35.199 93.5011 35.271 93.4969 35.3449C93.4924 35.4188 93.4716 35.4907 93.4361 35.5554L93.2595 36.1C93.2453 36.3452 93.2045 36.588 93.1378 36.8241C93.1343 36.9179 93.1137 37.0103 93.0769 37.0964C93.0397 37.1824 93.0191 37.2748 93.016 37.3687C92.9734 37.4492 92.9369 37.542 92.8943 37.641C92.8517 37.74 92.8151 37.8329 92.7725 37.9133C92.7844 37.9431 92.7844 37.9764 92.7725 38.0062C92.7607 38.0359 92.7607 38.0692 92.7725 38.099C92.7299 38.1794 92.6934 38.2723 92.6508 38.3713C92.6082 38.4703 92.5716 38.5631 92.529 38.6436C92.4864 38.7241 92.3707 38.9592 92.2916 39.0954C92.2125 39.2315 92.1333 39.3863 92.0542 39.5472C92.0084 39.6367 91.9488 39.7182 91.8776 39.7885C91.8344 39.838 91.8013 39.8959 91.7804 39.9586C91.7595 40.0213 91.7511 40.0876 91.7559 40.1537C91.6768 40.2341 91.6341 40.296 91.6341 40.3332V40.5126C91.4759 40.6323 91.4759 40.7334 91.6341 40.8159C91.6455 41.0055 91.6032 41.1945 91.5124 41.3605C91.4944 41.3758 91.4798 41.3947 91.4693 41.416C91.4588 41.4372 91.4528 41.4605 91.4515 41.4843C91.4503 41.5081 91.4442 41.5313 91.4338 41.5526C91.4233 41.5739 91.4086 41.5928 91.3906 41.6081C91.1732 41.8437 91.0274 42.1381 90.9706 42.4559C90.8932 42.6049 90.8515 42.7703 90.8488 42.9387C90.8338 43.0677 90.7924 43.1921 90.7271 43.3038V43.4833C90.7293 43.628 90.7087 43.7722 90.6662 43.9103L90.5445 44.2755C90.5018 44.3559 90.4653 44.4487 90.4227 44.5478C90.3814 44.6541 90.3607 44.7676 90.3618 44.882V45.0552C90.2964 45.1669 90.2549 45.2913 90.2401 45.4204V45.5999C90.1474 45.8291 90.1058 46.0764 90.1183 46.324V46.5034C90.0389 46.6197 89.9964 46.758 89.9966 46.8995C89.9908 47.0576 89.9491 47.2123 89.8748 47.3513L89.6983 47.8959C89.6579 47.9808 89.637 48.0739 89.6374 48.1682C89.6378 48.2625 89.617 48.3557 89.5765 48.4405C89.5406 48.505 89.5198 48.577 89.5157 48.651C89.5109 48.7248 89.4901 48.7967 89.4548 48.8614V49.0409C89.4577 49.1885 89.4265 49.3348 89.3635 49.4679C89.306 49.5858 89.2572 49.7078 89.2174 49.833C89.1444 50.0314 89.1033 50.2403 89.0956 50.4519C89.0939 50.5361 89.0731 50.6187 89.0347 50.6933C88.996 50.7677 88.9751 50.8504 88.9739 50.9347C88.9532 51.1001 88.9123 51.2622 88.8521 51.4174C88.8117 51.5022 88.7909 51.5954 88.7912 51.6897C88.7916 51.784 88.7708 51.8771 88.7304 51.962C88.6906 52.0013 88.6592 52.0485 88.6383 52.1007C88.6173 52.1529 88.6072 52.2089 88.6086 52.2653C88.6113 52.3697 88.5905 52.4734 88.5477 52.5685C88.5262 52.5927 88.5097 52.6211 88.4992 52.6519C88.4888 52.6828 88.4845 52.7154 88.4869 52.748C88.47 53.0351 88.3658 53.3098 88.1886 53.534C88.0717 53.6509 87.9894 53.7989 87.9512 53.961C87.8782 54.1593 87.8371 54.3683 87.8294 54.5799C87.8277 54.664 87.8069 54.7467 87.7685 54.8212C87.7297 54.8957 87.7089 54.9784 87.7077 55.0626C87.7137 55.1874 87.6929 55.312 87.6468 55.4277C87.5999 55.5433 87.5791 55.6681 87.5859 55.7929C87.5653 55.9583 87.5244 56.1205 87.4641 56.2756C87.4254 56.35 87.4045 56.4328 87.4033 56.517C87.4014 56.6011 87.3806 56.6837 87.3424 56.7584C87.2955 56.8739 87.2747 56.9987 87.2815 57.1235V57.4886C87.2875 57.6134 87.2668 57.738 87.2206 57.8538C87.1737 57.9693 87.1529 58.0941 87.1598 58.2189C87.1661 58.4025 87.1456 58.5861 87.0989 58.7635C87.052 58.8791 87.0312 59.0039 87.038 59.1287C87.0349 59.297 86.9932 59.4623 86.9163 59.6114C86.8947 59.6356 86.8782 59.664 86.8677 59.6948C86.8573 59.7257 86.8531 59.7583 86.8554 59.7909C86.8614 59.9156 86.8406 60.0402 86.7945 60.156C86.773 60.1802 86.7565 60.2086 86.746 60.2394C86.7355 60.2703 86.7313 60.303 86.7336 60.3355C86.7399 60.4603 86.7191 60.5849 86.6728 60.7006C86.6369 60.7651 86.616 60.8371 86.6119 60.9111C86.5989 60.9943 86.5554 61.0695 86.4901 61.1215C86.4153 61.195 86.3643 61.29 86.344 61.3938C86.3227 61.4972 86.2718 61.5919 86.1979 61.6661C86.0762 61.7899 86.0214 61.8703 86.0214 61.9075C86.0214 61.9446 85.9422 62.1365 85.8996 62.2417C85.8581 62.348 85.8375 62.4615 85.8388 62.5759C85.8244 62.821 85.7836 63.0639 85.717 63.3V63.4794C85.7274 63.6428 85.7067 63.8067 85.6561 63.9622C85.6092 64.0777 85.5884 64.2025 85.5953 64.3273V64.6925C85.5023 64.9216 85.4608 65.169 85.4735 65.4165V65.9612C85.4755 65.9937 85.4711 66.0263 85.4607 66.0571C85.4502 66.0879 85.4339 66.1163 85.4126 66.1406C85.3459 66.3151 85.3049 66.4986 85.2909 66.6853C85.2972 66.8689 85.2767 67.0524 85.23 67.2299C85.1831 67.3454 85.1623 67.4702 85.1691 67.595V68.6842C85.1755 68.8679 85.1549 69.0514 85.1082 69.2289C85.0867 69.253 85.0702 69.2814 85.0597 69.3123C85.0493 69.3431 85.0451 69.3758 85.0474 69.4083V70.1324C85.0483 70.2105 85.0261 70.287 84.9838 70.3521C84.9415 70.4172 84.8809 70.4679 84.81 70.4976H84.6334L84.3656 70.3738L84.0977 70.25C84.0181 70.1681 83.9486 70.0767 83.8907 69.9777C83.8296 69.8774 83.7979 69.7615 83.7994 69.6435V69.5816C83.7827 69.5782 83.7654 69.5791 83.7491 69.5841C83.7328 69.5891 83.718 69.5982 83.706 69.6104C83.6939 69.6227 83.685 69.6377 83.6801 69.6543C83.6752 69.6709 83.6743 69.6884 83.6777 69.7054C83.6796 69.7379 83.6753 69.7705 83.6648 69.8013C83.6544 69.8321 83.6381 69.8605 83.6168 69.8849C83.5762 70.0045 83.4768 70.0252 83.3185 69.9468H83.142C83.0628 69.8663 83.0202 69.8044 83.0202 69.7673V67.954C83.0089 67.7906 83.0296 67.6265 83.0811 67.4712C83.1234 67.4217 83.1453 67.3573 83.142 67.2918C83.1406 67.2354 83.1507 67.1794 83.1716 67.1272C83.1926 67.075 83.2239 67.0278 83.2637 66.9885C83.3203 66.9334 83.3652 66.8671 83.3956 66.7936C83.426 66.7202 83.4412 66.6412 83.4402 66.5615V66.382C83.4334 66.2572 83.4542 66.1324 83.5011 66.0169C83.58 65.7822 83.58 65.5275 83.5011 65.2928C83.4603 65.208 83.439 65.1149 83.439 65.0205C83.439 64.9261 83.4603 64.8329 83.5011 64.7481L83.6777 64.2035C83.6921 64.0744 83.7336 63.9499 83.7994 63.8384C83.8392 63.6591 83.8392 63.4731 83.7994 63.2938C83.7394 63.1843 83.703 63.0632 83.6925 62.9384C83.682 62.8135 83.6977 62.6879 83.7385 62.5697C83.8048 62.3951 83.8458 62.2116 83.8603 62.0251C83.8535 61.9002 83.8743 61.7755 83.9212 61.6599C83.9673 61.5441 83.9881 61.4195 83.982 61.2948C83.9797 61.2622 83.9839 61.2295 83.9944 61.1987C84.0049 61.1678 84.0214 61.1395 84.0429 61.1153C84.0896 60.9378 84.1101 60.7543 84.1038 60.5707C84.1178 60.384 84.1588 60.2005 84.2255 60.0261V59.8466C84.2278 59.5945 84.2883 59.3465 84.4021 59.1225C84.5188 58.9659 84.5809 58.7743 84.5786 58.5779V58.3984C84.6248 58.2826 84.6455 58.158 84.6395 58.0333C84.6282 57.8698 84.6489 57.7058 84.7004 57.5505C84.7402 57.3712 84.7402 57.1852 84.7004 57.0059C84.6404 56.8965 84.604 56.7753 84.5935 56.6505C84.583 56.5257 84.5987 56.4 84.6395 56.2818C84.7057 56.1072 84.7468 55.9238 84.7612 55.7372C84.7544 55.6124 84.7752 55.4876 84.8221 55.372C84.9193 55.1815 84.9615 54.967 84.9439 54.7532V54.5737C85.0362 54.3443 85.0778 54.0971 85.0656 53.8496C85.0803 53.7205 85.1218 53.596 85.1874 53.4845V53.305C85.2078 53.0282 85.2889 52.7597 85.4248 52.519L85.6013 52.1539L85.7779 51.6092C85.7766 51.4949 85.7973 51.3813 85.8388 51.275C85.8753 51.176 85.9179 51.0832 85.9605 51.0027L86.0823 50.6376C86.1216 50.52 86.1422 50.3967 86.1431 50.2724C86.1369 50.2578 86.1337 50.242 86.1337 50.226C86.1337 50.2101 86.1369 50.1943 86.1431 50.1796C86.155 50.1498 86.155 50.1165 86.1431 50.0868V49.9073C86.1728 49.819 86.1728 49.7233 86.1431 49.635C86.1125 49.5469 86.1125 49.4508 86.1431 49.3627C86.1937 49.2072 86.2144 49.0433 86.204 48.88V48.7005C86.2501 48.5847 86.2709 48.4601 86.2649 48.3353V47.9702C86.2536 47.8068 86.2743 47.6427 86.3258 47.4875C86.347 47.4631 86.3634 47.4347 86.3738 47.4039C86.3842 47.3731 86.3886 47.3405 86.3866 47.308C86.3843 47.2754 86.3885 47.2428 86.399 47.2119C86.4095 47.1811 86.426 47.1527 86.4475 47.1285C86.5397 46.8991 86.5812 46.6519 86.5693 46.4044C86.567 46.3719 86.5712 46.3392 86.5816 46.3083C86.5921 46.2775 86.6086 46.2491 86.6301 46.2249C86.7071 46.0758 86.7488 45.9106 86.7519 45.7422C86.7533 45.658 86.7742 45.5754 86.8128 45.5008C86.8511 45.4263 86.872 45.3436 86.8736 45.2595C86.8768 45.1656 86.8975 45.0732 86.9345 44.9872C86.9711 44.8881 87.0137 44.7953 87.0563 44.7149C87.0989 44.6344 87.1354 44.5416 87.178 44.4426C87.2206 44.3435 87.2572 44.2507 87.2998 44.1702C87.4177 44.0839 87.5035 43.9596 87.5433 43.8175C87.5446 43.6857 87.5872 43.5578 87.665 43.4523C87.6726 43.3023 87.7143 43.1562 87.7868 43.0253C87.868 42.8644 87.937 42.7138 87.9938 42.5735C88.0546 42.4312 88.1216 42.2826 88.2007 42.1217C88.2433 41.9836 88.2639 41.8394 88.2616 41.6947V41.212C88.3307 41.111 88.3803 40.9976 88.4077 40.8778C88.4344 40.7577 88.4841 40.6442 88.5538 40.5436V39.6771L89.0895 38.5879L89.2661 38.4084C89.3403 38.3344 89.3912 38.2396 89.4122 38.1361C89.4329 38.0325 89.4838 37.9376 89.5583 37.8638L89.9174 37.1397C89.954 37.0159 89.9966 36.9107 90.0392 36.8055C90.0818 36.7003 90.1183 36.5951 90.1609 36.4713C90.2036 36.3475 90.2401 36.298 90.2827 36.199C90.3253 36.1 90.3618 36.0072 90.4044 35.9267C90.4431 35.8497 90.4737 35.7688 90.4958 35.6853C90.5173 35.6017 90.548 35.5207 90.5871 35.444C90.5871 35.4068 90.6236 35.345 90.7088 35.2645C90.8593 35.0402 90.98 34.7967 91.068 34.5404C91.068 34.5033 91.1045 34.4414 91.1898 34.3609L91.3663 33.9958C91.3984 33.9408 91.4191 33.8797 91.4272 33.8163C91.4351 33.7529 91.4558 33.6918 91.488 33.6368C91.5344 33.5211 91.5551 33.3965 91.5489 33.2717V32.7271C91.547 32.6946 91.5513 32.662 91.5618 32.6312C91.5722 32.6004 91.5885 32.572 91.6098 32.5476C91.6493 32.5081 91.6804 32.4608 91.7014 32.4087C91.7223 32.3566 91.7326 32.3006 91.7316 32.2443C91.7302 32.188 91.7403 32.132 91.7612 32.0798C91.7822 32.0276 91.8135 31.9804 91.8533 31.9411C91.8937 31.8562 91.9145 31.7631 91.9142 31.6688C91.9151 31.6173 91.9265 31.5667 91.9474 31.5198C91.9683 31.473 91.9985 31.431 92.0359 31.3965C92.0366 31.1774 92.0978 30.963 92.2125 30.7776C92.2499 30.743 92.2801 30.701 92.301 30.6542C92.3219 30.6074 92.3332 30.5567 92.3342 30.5053C92.3338 30.411 92.3547 30.3178 92.3951 30.233L92.7543 29.5089C92.8707 29.3104 93.0339 29.1445 93.2291 29.0261C93.285 29.0086 93.3359 28.9775 93.3773 28.9354C93.4186 28.8933 93.4493 28.8416 93.4665 28.7848L94.0022 27.6955C94.0756 27.5856 94.1254 27.4612 94.1483 27.3304C94.1704 27.1993 94.2202 27.0747 94.2944 26.9653L94.6536 26.2412C94.6577 26.1714 94.6754 26.1032 94.7057 26.0405C94.736 25.9778 94.7783 25.9219 94.8301 25.876C94.941 25.7334 95.0218 25.5691 95.0675 25.3933C95.1446 25.1958 95.2341 25.0035 95.3354 24.8177C95.4362 24.6316 95.5256 24.4394 95.6033 24.2422V24.0627C95.6398 23.9822 95.6824 23.8894 95.725 23.7904C95.7676 23.6914 95.8041 23.5985 95.8468 23.5181C95.8962 23.3538 95.9552 23.1926 96.0233 23.0353C96.0253 23.0028 96.0209 22.9702 96.0105 22.9394C96 22.9086 95.9837 22.8802 95.9624 22.8559H95.9015C95.7832 22.9357 95.6818 23.0388 95.6033 23.1591C95.536 23.322 95.4341 23.4679 95.305 23.5861C95.2337 23.6564 95.1741 23.7379 95.1284 23.8275C95.0825 23.917 95.0229 23.9984 94.9519 24.0689C94.8734 24.1888 94.7837 24.3007 94.684 24.4031C94.5744 24.5197 94.484 24.6534 94.4162 24.7992L94.2396 24.9786C94.0923 25.1241 93.9616 25.286 93.85 25.4614C93.7486 25.6223 93.639 25.7832 93.5213 25.9441C93.4844 25.98 93.4536 26.0218 93.43 26.0679C93.4062 26.1138 93.3754 26.1556 93.3387 26.1917L92.9795 26.7363L92.803 26.9157C92.6873 27.0228 92.5869 27.1457 92.5047 27.2809L92.3281 27.4604C92.2116 27.5781 92.1113 27.7114 92.0298 27.8564C91.9507 27.9988 91.8716 28.1288 91.7924 28.2525C91.7712 28.2769 91.7548 28.3053 91.7444 28.3361C91.7339 28.3669 91.7296 28.3995 91.7316 28.432C91.7165 28.561 91.6751 28.6854 91.6098 28.7972C91.5531 28.988 91.4733 29.1709 91.3724 29.3418C91.1684 29.597 90.9489 29.8388 90.7149 30.0659C90.6458 30.1383 90.5657 30.1989 90.4775 30.2453L90.301 30.4248C90.1332 30.5583 89.9908 30.7219 89.8809 30.9075L89.7044 31.087C89.6586 31.1765 89.599 31.258 89.5278 31.3284C89.3601 31.462 89.2178 31.6256 89.1078 31.8111C89.0365 31.8814 88.9769 31.9629 88.9313 32.0525L88.8095 32.2938C88.7015 32.5229 88.5816 32.7461 88.4503 32.9622L88.0912 33.5069C88.0065 33.5959 87.9366 33.6983 87.8842 33.8101C87.8316 33.9218 87.7617 34.0242 87.6772 34.1134C87.4939 34.4024 87.3351 34.7068 87.2024 35.0231L87.0258 35.3883C86.9412 35.4774 86.8714 35.5798 86.8189 35.6915C86.7663 35.8032 86.6964 35.9056 86.6119 35.9948C86.5299 36.1993 86.4077 36.3846 86.2527 36.5394C86.1816 36.6325 86.1223 36.7344 86.0762 36.8427C85.9937 36.9777 85.8934 37.1006 85.7779 37.2078C85.7539 37.2294 85.726 37.246 85.6957 37.2566C85.6654 37.2672 85.6333 37.2717 85.6013 37.2697C85.5694 37.2677 85.5373 37.2721 85.507 37.2827C85.4767 37.2934 85.4488 37.3099 85.4248 37.3316C85.3091 37.4385 85.2087 37.5614 85.1265 37.6967C85.0807 37.7862 85.0211 37.8677 84.95 37.9381L84.5908 38.3032C84.5281 38.3622 84.4783 38.4339 84.4447 38.5136C84.4111 38.5934 84.3613 38.6651 84.2986 38.7241L84.1221 39.0892L83.7629 39.4543C83.6916 39.5246 83.632 39.6061 83.5863 39.6957C83.5072 39.8566 83.4402 40.0113 83.3794 40.1475C83.3185 40.2836 83.2515 40.4384 83.1724 40.5993C83.0668 40.7615 83.0058 40.9496 82.9959 41.1439C83.0053 41.2074 82.9929 41.2723 82.9608 41.3275C82.9286 41.3828 82.8786 41.425 82.8193 41.4472C82.7873 41.4451 82.7553 41.4496 82.725 41.4602C82.6947 41.4708 82.6667 41.4874 82.6428 41.509L82.4662 41.6885C82.3884 41.8458 82.2988 41.9968 82.1984 42.1403C82.0896 42.3002 81.9997 42.4727 81.9305 42.654L81.5714 43.3781C81.4518 43.6311 81.3113 43.8733 81.1513 44.1022L80.9748 44.4673C80.8936 44.5498 80.8936 44.6096 80.9748 44.6468C81.0539 44.7706 81.0539 44.8696 80.9748 44.95C80.8517 45.1445 80.7111 45.3268 80.5547 45.4947C80.4763 45.6873 80.3762 45.8701 80.2564 46.0393L79.8973 46.5839C79.7884 46.675 79.6975 46.7863 79.6294 46.9119C79.5766 47.0235 79.5068 47.1258 79.4224 47.2152C79.3005 47.4624 79.1402 47.6881 78.9476 47.8835L78.7711 48.063C78.7027 48.2085 78.6123 48.3421 78.5032 48.4591C78.403 48.561 78.3132 48.6729 78.2354 48.7933C78.1056 48.911 78.0037 49.057 77.9371 49.2203C77.8907 49.3095 77.8312 49.3909 77.7605 49.4617L76.6891 50.5509C76.644 50.6036 76.589 50.6466 76.5273 50.6774C76.4656 50.7082 76.3985 50.7262 76.3299 50.7304C76.2873 50.7304 76.2325 50.7676 76.1534 50.8542C76.0396 50.9013 75.917 50.9224 75.7942 50.9161H75.4351C75.2694 50.9186 75.1066 50.961 74.9602 51.0399C74.8791 51.1183 74.8202 51.1183 74.7837 51.0399C74.7145 50.9675 74.6344 50.9069 74.5463 50.8604C74.5223 50.8388 74.4944 50.8222 74.4641 50.8116C74.4338 50.8009 74.4017 50.7965 74.3697 50.7985L73.834 50.978C73.7549 51.0584 73.7123 51.1203 73.7123 51.1574C73.7056 51.2822 73.7264 51.407 73.7732 51.5226C73.8523 51.603 73.8949 51.6649 73.8949 51.7021C73.8979 51.7264 73.8953 51.751 73.8875 51.7742C73.8797 51.7973 73.8668 51.8183 73.8497 51.8356C73.8327 51.8529 73.812 51.8661 73.7893 51.874C73.7665 51.882 73.7423 51.8846 73.7184 51.8815C73.6757 51.8815 73.621 51.8382 73.5418 51.7578C73.4058 51.579 73.3234 51.3641 73.3044 51.1389V50.9594C73.3064 50.9269 73.302 50.8943 73.2916 50.8635C73.2811 50.8327 73.2648 50.8043 73.2435 50.7799L73.067 50.6005C73.0071 50.5363 72.9605 50.4604 72.9302 50.3774C72.8998 50.2945 72.8863 50.2061 72.8904 50.1177C72.8973 49.9929 72.8765 49.8681 72.8296 49.7526C72.7829 49.5751 72.7624 49.3916 72.7687 49.208V48.2796C72.7625 48.1549 72.7833 48.0302 72.8296 47.9145C72.8763 47.7989 72.8971 47.6742 72.8904 47.5494C72.8783 47.3018 72.9199 47.0546 73.0122 46.8253C73.0335 46.8009 73.0498 46.7725 73.0602 46.7417C73.0707 46.7109 73.075 46.6783 73.0731 46.6458C73.0617 46.4824 73.0824 46.3183 73.134 46.1631V45.9836C73.1416 45.772 73.1827 45.563 73.2557 45.3647L73.4323 44.8201C73.4789 44.6426 73.4994 44.4591 73.4931 44.2755C73.5079 44.1464 73.5494 44.0219 73.6149 43.9103V43.7308C73.6123 43.5861 73.6328 43.4419 73.6758 43.3038L73.7975 42.9387C73.834 42.8582 73.8766 42.7654 73.9193 42.6664C73.9619 42.5673 73.9984 42.4745 74.041 42.394C74.0808 42.3548 74.1121 42.3076 74.1331 42.2554C74.154 42.2032 74.1641 42.1471 74.1628 42.0908C74.1614 42.0344 74.1715 41.9784 74.1924 41.9262C74.2134 41.874 74.2447 41.8268 74.2845 41.7875C74.3249 41.7027 74.3458 41.6095 74.3454 41.5152C74.3464 41.4638 74.3577 41.4131 74.3786 41.3663C74.3995 41.3195 74.4297 41.2775 74.4671 41.2429C74.5137 41.1273 74.5344 41.0026 74.528 40.8778C74.542 40.6911 74.583 40.5076 74.6498 40.3332L74.8263 39.7885V39.6091C74.8628 39.4853 74.9054 39.3801 74.9481 39.2749C74.9907 39.1697 75.0272 39.0644 75.0698 38.9407C75.1124 38.8169 75.149 38.7674 75.1916 38.6684C75.2342 38.5693 75.2707 38.4765 75.3133 38.396C75.3678 38.147 75.4473 37.9044 75.5507 37.672L75.9099 37.1273L76.2691 36.4032L76.4456 36.2238C76.5167 36.1534 76.5763 36.0719 76.6221 35.9824C76.7384 35.6637 76.9211 35.3745 77.1579 35.1345C77.1944 35.0974 77.2187 35.0665 77.2187 35.0417C77.2187 35.0169 77.2187 34.9922 77.2796 34.9489L77.4561 34.7694C77.6608 34.5847 77.8229 34.3565 77.931 34.101C78.0446 33.8769 78.1051 33.629 78.1075 33.3769C78.1061 33.3205 78.1162 33.2645 78.1372 33.2123C78.1581 33.1601 78.1895 33.1129 78.2293 33.0736C78.3264 32.9651 78.4065 32.8419 78.4667 32.7085L78.8258 32.1639C78.8968 32.0706 78.9561 31.9688 79.0024 31.8606C79.075 31.7082 79.1649 31.5648 79.2702 31.4336C79.3751 31.302 79.4649 31.1587 79.5381 31.0066C79.5837 30.917 79.6434 30.8354 79.7146 30.7652C79.7858 30.6948 79.8454 30.6133 79.8912 30.5238L80.0982 30.1896C80.159 30.0906 80.226 29.9792 80.3051 29.8554C80.4699 29.6794 80.6491 29.5179 80.8408 29.3727C80.8408 29.4532 80.8408 29.4965 80.9017 29.4965C80.9626 29.4965 80.9626 29.4594 80.9626 29.3727C80.9793 29.3761 80.9966 29.3753 81.0129 29.3702C81.0292 29.3652 81.044 29.3562 81.056 29.3439C81.0681 29.3317 81.077 29.3166 81.0819 29.3C81.0868 29.2835 81.0877 29.2659 81.0843 29.2489C81.1209 29.2489 81.1817 29.2118 81.2609 29.1252C81.3349 29.0493 81.4143 28.979 81.4983 28.9147C81.5821 28.8503 81.6615 28.78 81.7357 28.7043C81.8239 28.6579 81.9041 28.5973 81.9731 28.5248L82.3323 28.1597C82.397 28.0895 82.479 28.0382 82.5697 28.0112C82.6606 27.9844 82.7427 27.9331 82.8071 27.8626C82.9752 27.7601 83.1552 27.679 83.3428 27.6213C83.5022 27.582 83.6476 27.4985 83.7629 27.3799C83.9033 27.2673 84.0649 27.1852 84.2377 27.1385C84.3819 27.0892 84.5223 27.0293 84.6578 26.9591C84.7311 26.9201 84.8124 26.8989 84.8952 26.8972C84.978 26.8957 85.0593 26.8745 85.1326 26.8353H86.0275C86.2111 26.8211 86.3916 26.7794 86.5632 26.7115C86.775 26.6303 87.0088 26.6303 87.2206 26.7115C87.2593 26.752 87.3057 26.7838 87.357 26.8051C87.4084 26.8264 87.4635 26.8367 87.5189 26.8353C87.6411 26.8363 87.7624 26.8572 87.8781 26.8972L88.2373 27.0767C88.5791 27.2297 88.8691 27.4815 89.0713 27.8008C89.069 27.8333 89.0732 27.866 89.0836 27.8968C89.0941 27.9277 89.1106 27.956 89.1321 27.9802C89.3566 28.2353 89.5026 28.5515 89.5522 28.89C89.643 29.056 89.6853 29.245 89.6739 29.4346V29.7997C89.7621 29.7533 89.8423 29.6927 89.9114 29.6203C90.0212 29.4347 90.1636 29.2711 90.3314 29.1375C90.3941 29.0786 90.4439 29.0069 90.4775 28.9271C90.5112 28.8473 90.5609 28.7756 90.6236 28.7167C90.7392 28.6096 90.8395 28.4867 90.9219 28.3516V28.1721C90.9331 28.1422 90.9331 28.1091 90.9219 28.0792C90.9157 28.0646 90.9125 28.0488 90.9125 28.0328C90.9125 28.0169 90.9157 28.0011 90.9219 27.9864V27.9245C90.9866 27.7027 91.0874 27.4935 91.2202 27.3056C91.2588 27.2652 91.3053 27.2333 91.3566 27.212C91.4079 27.1907 91.4631 27.1805 91.5185 27.1819C91.5352 27.1785 91.5525 27.1793 91.5688 27.1843C91.5851 27.1894 91.5999 27.1984 91.6119 27.2106C91.624 27.2229 91.6328 27.238 91.6378 27.2545C91.6427 27.2711 91.6436 27.2887 91.6402 27.3056V27.4851L92.3525 27.12C92.4752 26.9253 92.6158 26.7429 92.7725 26.5754C92.8267 26.5178 92.892 26.4722 92.9642 26.4413C93.0365 26.4104 93.1142 26.395 93.1926 26.3959C93.3143 26.3959 93.4117 26.3154 93.4909 26.1545C93.5274 26.1174 93.5517 26.0864 93.5517 26.0617C93.5517 26.0369 93.5517 26.0122 93.6126 25.9689L93.9718 25.4242C93.9718 25.3871 94.0083 25.3252 94.0935 25.2448C94.1788 25.1643 94.2701 25.1643 94.3918 25.2448H94.4527L94.6292 24.8796C94.7115 24.7444 94.8119 24.6215 94.9275 24.5145C95.0856 24.3708 95.2265 24.2087 95.3476 24.0317L95.7067 23.6666C95.7585 23.6207 95.8008 23.5648 95.8311 23.5021C95.8615 23.4394 95.8792 23.3712 95.8833 23.3015C95.9198 23.3015 95.9807 23.2643 96.0598 23.1777L96.419 22.8125C96.4623 22.7631 96.4954 22.7052 96.5163 22.6425C96.5372 22.5798 96.5455 22.5135 96.5407 22.4474C96.6334 22.3916 96.7099 22.3117 96.7623 22.2161C96.8147 22.1204 96.8412 22.0123 96.839 21.9028C96.9973 21.7831 96.9973 21.6614 96.839 21.5376C96.8431 21.4679 96.8609 21.3997 96.8912 21.337C96.9215 21.2743 96.9638 21.2184 97.0156 21.1725C97.0902 21.0972 97.1594 21.0165 97.2226 20.9311C97.2783 20.8553 97.3272 20.7745 97.3687 20.6898L97.7887 20.2627C97.9064 20.0193 98.0261 19.7676 98.1479 19.5077C98.2696 19.2478 98.3893 18.9755 98.507 18.6908C98.5862 18.6103 98.6288 18.5484 98.6288 18.5113C98.6436 18.3822 98.6851 18.2578 98.7505 18.1462C98.9088 17.8656 99.0569 17.583 99.1949 17.2983L99.6393 16.3885C99.6374 16.356 99.6417 16.3234 99.6522 16.2926C99.6626 16.2618 99.6789 16.2334 99.7002 16.209C99.8217 16.0841 99.9225 15.9399 99.9985 15.782L100.236 15.2993C100.317 15.174 100.386 15.0414 100.443 14.9032C100.5 14.7649 100.569 14.6323 100.65 14.5071L100.826 14.142C100.872 14.0337 100.932 13.9318 101.003 13.8387C101.119 13.7209 101.22 13.5877 101.301 13.4426C101.382 13.3024 101.462 13.1518 101.539 12.9908C101.599 12.8573 101.679 12.7341 101.776 12.6257L101.953 12.4462L102.312 11.9016C102.348 11.8645 102.373 11.8335 102.373 11.8088C102.373 11.784 102.373 11.7593 102.434 11.7159C102.514 11.5907 102.584 11.4581 102.641 11.3199C102.697 11.1816 102.767 11.049 102.847 10.9238C102.922 10.8498 102.973 10.755 102.994 10.6515C103.014 10.5478 103.065 10.4529 103.14 10.3792C103.211 10.2859 103.27 10.184 103.316 10.0759C103.397 9.915 103.477 9.7644 103.554 9.62412C103.644 9.46745 103.743 9.31657 103.852 9.17233L104.028 8.80719L104.205 8.44205L104.382 8.07691C104.463 7.916 104.542 7.7654 104.619 7.62512C104.7 7.48005 104.801 7.34682 104.917 7.22904C104.993 7.03497 105.093 6.85186 105.216 6.68442C105.345 6.50946 105.465 6.32766 105.575 6.1398C105.646 6.06942 105.705 5.98794 105.751 5.89844C105.823 5.71199 105.924 5.53852 106.05 5.38476C106.167 5.24712 106.267 5.0954 106.348 4.93298C106.427 4.8092 106.506 4.67923 106.585 4.53689C106.667 4.39182 106.767 4.25859 106.884 4.1408L107.243 3.59619C107.315 3.44377 107.405 3.30046 107.511 3.16916C107.608 3.0495 107.697 2.92779 107.778 2.80401L108.016 2.43887L108.253 2.07373C108.31 2.02081 108.359 1.96045 108.399 1.89425C108.44 1.82801 108.489 1.76764 108.545 1.71478L108.722 1.5353C108.849 1.30576 109.009 1.09709 109.197 0.916417C109.355 0.755507 109.501 0.613163 109.641 0.489386C109.781 0.365609 109.927 0.229455 110.086 0.0623562C110.11 0.0407383 110.138 0.0241432 110.168 0.013523C110.198 0.0029029 110.23 -0.00153367 110.262 0.000467508C110.294 -0.00153367 110.326 0.0029029 110.357 0.013523C110.387 0.0241432 110.415 0.0407383 110.439 0.0623562C110.475 0.105678 110.475 0.186133 110.439 0.303721C110.402 0.421309 110.36 0.483197 110.439 0.483197C110.595 0.561484 110.721 0.68981 110.798 0.848339V1.21348C110.795 1.23046 110.795 1.24802 110.8 1.26459C110.805 1.28116 110.814 1.29624 110.826 1.30848C110.838 1.32072 110.853 1.32976 110.869 1.33478C110.886 1.3398 110.903 1.34065 110.92 1.33726ZM87.1598 30.3506C87.1617 30.318 87.1574 30.2854 87.1469 30.2546C87.1365 30.2239 87.1202 30.1954 87.0989 30.1711C87.0464 30.1142 86.9871 30.0643 86.9223 30.0225C86.8568 29.9819 86.7974 29.9318 86.7458 29.874C86.648 29.766 86.5678 29.6427 86.5084 29.5089C86.4788 29.4733 86.4426 29.4441 86.4019 29.4229C86.3611 29.4016 86.3166 29.3888 86.271 29.3851V29.7502C86.2743 29.7672 86.2735 29.7848 86.2685 29.8013C86.2636 29.8179 86.2547 29.833 86.2427 29.8452C86.2306 29.8575 86.2158 29.8665 86.1995 29.8715C86.1832 29.8766 86.1659 29.8774 86.1492 29.874C86.1172 29.8764 86.0851 29.8721 86.0547 29.8615C86.0244 29.8508 85.9965 29.834 85.9727 29.8121C85.8441 29.6775 85.7035 29.5552 85.5526 29.447C85.2278 29.2612 84.8901 29.0999 84.5421 28.9643C84.4256 28.9242 84.2994 28.9242 84.1829 28.9643C84.039 29.0143 83.8987 29.0742 83.7629 29.1437C83.6452 29.2262 83.5153 29.3067 83.3733 29.3851L82.9837 29.6265C82.7848 29.8286 82.5819 30.0349 82.3749 30.2453C82.1679 30.4558 81.965 30.6621 81.7662 30.8642C81.5476 31.0916 81.3442 31.3335 81.1574 31.5883C81.0757 31.6737 81.0151 31.7777 80.9809 31.8916C80.9459 32.0052 80.8855 32.109 80.8043 32.1948C80.7299 32.2703 80.6607 32.351 80.5973 32.4362C80.5365 32.5167 80.4695 32.6157 80.3904 32.7394C80.3445 32.8289 80.2849 32.9104 80.2138 32.9808C80.0808 33.111 79.9605 33.2541 79.8547 33.4078L79.6781 33.773C79.6126 33.9129 79.533 34.0457 79.4407 34.1691C79.3616 34.2681 79.2824 34.3795 79.2033 34.5033L78.8441 34.8684C78.7842 34.9326 78.7376 35.0085 78.7073 35.0914C78.677 35.1744 78.6634 35.2627 78.6676 35.3511C78.6705 35.3754 78.668 35.4001 78.6602 35.4232C78.6524 35.4464 78.6394 35.4674 78.6224 35.4847C78.6054 35.502 78.5847 35.5151 78.5619 35.5231C78.5392 35.5311 78.5149 35.5336 78.491 35.5306C78.4286 35.521 78.3648 35.5336 78.3104 35.5663C78.2561 35.599 78.2145 35.6498 78.1927 35.7101L77.8031 36.3909C77.724 36.5518 77.657 36.7065 77.5962 36.8427C77.5353 36.9788 77.4683 37.1335 77.3892 37.2944C77.346 37.3894 77.3252 37.4932 77.3283 37.5977C77.3293 37.654 77.3191 37.7099 77.2981 37.7621C77.2772 37.8142 77.246 37.8615 77.2066 37.9009V38.0804L77.03 38.8045C76.9874 38.885 76.9509 38.9778 76.9083 39.0768C76.8656 39.1758 76.8291 39.2872 76.7865 39.411C76.7439 39.5348 76.7074 39.5843 76.6648 39.6833C76.6234 39.7897 76.6027 39.9032 76.6039 40.0175C76.5261 40.123 76.4834 40.2509 76.4821 40.3827C76.4784 40.514 76.436 40.6412 76.3604 40.7478C76.2328 40.9699 76.1519 41.2164 76.123 41.4719V41.6514C76.0825 41.7363 76.0617 41.8294 76.0621 41.9237C76.0625 42.018 76.0416 42.1111 76.0012 42.196C75.9608 42.2809 75.94 42.374 75.9403 42.4683C75.9394 42.5197 75.9281 42.5704 75.9071 42.6172C75.8862 42.6641 75.8561 42.7061 75.8186 42.7406L75.642 43.2852C75.6411 43.4095 75.6205 43.5328 75.5812 43.6504L75.4594 44.0155L75.3377 44.3807C75.2948 44.5187 75.2742 44.6629 75.2768 44.8077V44.9872C75.2114 45.0988 75.1699 45.2232 75.155 45.3523C75.1409 45.5975 75.1001 45.8404 75.0333 46.0764V46.1383H75.0942C75.2481 46.0224 75.3889 45.8895 75.5142 45.7422C75.6395 45.5949 75.7804 45.4621 75.9342 45.3461C75.9991 45.3146 76.0587 45.2728 76.1108 45.2223C76.163 45.1721 76.2226 45.1304 76.2873 45.0986C76.4187 45.0376 76.5399 44.9562 76.6465 44.8572L76.823 44.6777C76.9557 44.5472 77.0759 44.4042 77.1822 44.2507C77.3247 44.0555 77.4836 43.8733 77.657 43.7061C77.7543 43.5976 77.8344 43.4744 77.8944 43.3409C78.0107 43.1423 78.1739 42.9764 78.3693 42.8582C78.3933 42.8366 78.4212 42.82 78.4515 42.8094C78.4818 42.7988 78.5138 42.7943 78.5458 42.7963C78.625 42.8396 78.7041 42.7963 78.7832 42.6725C78.8892 42.5015 79.0094 42.34 79.1424 42.1898C79.1949 42.0983 79.2163 41.9917 79.2033 41.8866H79.0267C79.022 41.8205 79.0303 41.7542 79.0512 41.6914C79.0721 41.6287 79.1052 41.5709 79.1485 41.5214C79.1891 41.4802 79.2479 41.4802 79.325 41.5214V41.7009C79.4132 41.6545 79.4934 41.5939 79.5625 41.5214C79.6684 41.3504 79.7886 41.1889 79.9216 41.0387C79.9741 40.9471 79.9955 40.8406 79.9825 40.7354C79.8607 40.655 79.8242 40.5931 79.8607 40.556L80.2199 40.0113C80.3269 39.7552 80.4892 39.5267 80.6947 39.3429C80.7739 39.2625 80.8165 39.2006 80.8165 39.1635C80.858 39.0787 80.9069 38.9979 80.9626 38.9221C81.026 38.8369 81.0952 38.7562 81.1696 38.6807C81.2487 38.557 81.3157 38.4579 81.3766 38.3775C81.4399 38.2922 81.5091 38.2116 81.5835 38.1361V37.9566C81.6632 37.8748 81.7328 37.7834 81.7905 37.6843C81.8514 37.5853 81.9183 37.4739 81.9975 37.3501L82.5332 36.8055C82.6304 36.697 82.7105 36.5738 82.7706 36.4404C82.8498 36.3599 82.9106 36.3166 82.9472 36.3166H83.1237C83.2454 36.3971 83.3428 36.3599 83.422 36.1928C83.482 36.0593 83.5621 35.9361 83.6594 35.8277C83.7479 35.7346 83.8274 35.633 83.8968 35.5244C83.9659 35.4156 84.0454 35.314 84.1342 35.2212C84.1666 35.1128 84.2159 35.0103 84.2803 34.9179C84.3412 34.8375 84.4082 34.7384 84.4873 34.6147L84.6639 34.4352C84.8519 34.2544 85.012 34.0457 85.1387 33.8163C85.2552 33.6985 85.3555 33.5653 85.437 33.4202C85.5184 33.2752 85.6188 33.1419 85.7353 33.0241C85.8144 32.9437 85.857 32.8818 85.857 32.8447C85.8893 32.7362 85.9387 32.6338 86.0031 32.5414C86.064 32.4609 86.131 32.3619 86.2101 32.2382C86.2557 32.1485 86.3154 32.067 86.3866 31.9968C86.5022 31.8897 86.6026 31.7668 86.6849 31.6316L86.8615 31.4522C86.977 31.345 87.0774 31.2222 87.1598 31.087C87.2013 31.0023 87.2502 30.9215 87.3059 30.8457C87.3616 30.7699 87.4106 30.6891 87.452 30.6043L87.1598 30.3506ZM78.9354 41.9608C78.9364 41.9692 78.9355 41.9777 78.9328 41.9856C78.9301 41.9936 78.9256 42.0008 78.9198 42.0068C78.9139 42.0127 78.9068 42.0173 78.899 42.02C78.8911 42.0228 78.8828 42.0237 78.8745 42.0227L78.9354 41.9608ZM78.9963 41.8989C79.013 41.9023 79.0303 41.9015 79.0466 41.8965C79.0629 41.8914 79.0777 41.8824 79.0897 41.8702C79.1018 41.8579 79.1107 41.8428 79.1156 41.8263C79.1206 41.8097 79.1214 41.7921 79.1181 41.7752C79.1013 41.7751 79.0847 41.7791 79.0698 41.787C79.0549 41.7948 79.0421 41.8063 79.0325 41.8203C79.0229 41.8343 79.0169 41.8505 79.0148 41.8674C79.0127 41.8843 79.0147 41.9015 79.0207 41.9175L78.9963 41.8989ZM79.4285 42.0784C79.4452 42.0818 79.4625 42.081 79.4788 42.0759C79.4951 42.0709 79.5099 42.0619 79.522 42.0496C79.534 42.0374 79.5429 42.0223 79.5478 42.0057C79.5528 41.9892 79.5536 41.9716 79.5503 41.9546C79.5307 41.944 79.5083 41.9401 79.4863 41.9434C79.4644 41.9467 79.4441 41.9571 79.4284 41.9731C79.4127 41.989 79.4025 42.0097 79.3992 42.032C79.396 42.0543 79.3998 42.0771 79.4103 42.097L79.4285 42.0784ZM80.3173 40.8654C80.3091 40.8644 80.3007 40.8653 80.2929 40.8681C80.2851 40.8708 80.278 40.8754 80.2721 40.8813C80.2662 40.8873 80.2618 40.8945 80.2591 40.9025C80.2564 40.9104 80.2555 40.9189 80.2564 40.9273L80.3173 40.8654ZM87.6529 46.6458V46.5839C87.5737 46.5034 87.5311 46.5034 87.5311 46.5839L87.6529 46.6458ZM87.7746 46.3425C87.7913 46.3459 87.8086 46.3451 87.8249 46.34C87.8412 46.335 87.856 46.326 87.8681 46.3138C87.8801 46.3015 87.889 46.2864 87.8939 46.2699C87.8989 46.2533 87.8997 46.2357 87.8964 46.2188V45.8536C87.8172 45.8969 87.7746 45.996 87.7746 46.1569V46.3425ZM88.0729 45.4947C88.1196 45.3172 88.1401 45.1336 88.1338 44.95C88.0546 44.95 88.012 44.95 88.012 45.0119C87.8984 45.236 87.838 45.484 87.8355 45.736V45.9155C87.9146 45.9155 87.9572 45.9155 87.9572 45.8536C87.9893 45.7986 88.01 45.7375 88.0181 45.6741C88.0176 45.6104 88.03 45.5471 88.0546 45.4885L88.0729 45.4947ZM88.2494 44.7087C88.1703 44.7087 88.1277 44.7087 88.1277 44.7706V44.95C88.2068 44.95 88.2494 44.95 88.2494 44.8882V44.7087ZM88.152 28.8343C88.1603 28.8353 88.1686 28.8344 88.1764 28.8316C88.1843 28.8288 88.1914 28.8243 88.1973 28.8184C88.2031 28.8124 88.2076 28.8052 88.2103 28.7972C88.213 28.7892 88.2139 28.7808 88.2129 28.7724L88.152 28.8343ZM90.8915 40.6426C91.0497 40.523 91.0497 40.4012 90.8915 40.2775V40.6426ZM91.3115 39.8566C91.3125 39.8483 91.3116 39.8398 91.3089 39.8318C91.3062 39.8238 91.3017 39.8166 91.2958 39.8107C91.29 39.8047 91.2829 39.8002 91.275 39.7974C91.2672 39.7947 91.2589 39.7937 91.2506 39.7947L91.3115 39.8566Z" fill="#F91616"/>
<path d="M64.6406 5.63185C64.5648 5.43793 64.4645 5.25486 64.3423 5.08723C64.2193 4.92007 64.119 4.7369 64.044 4.54261C64.044 4.46216 64.044 4.23936 64.044 3.87422C64.044 3.50907 64.0927 3.12537 64.1353 2.72309C64.1779 2.32082 64.2023 1.96805 64.2266 1.6648C64.2509 1.36154 64.2266 1.21301 64.2266 1.21301C64.0683 1.25427 63.9202 1.44613 63.7822 1.78857C63.6442 2.13102 63.5144 2.48379 63.3926 2.84687C63.2749 3.20995 63.1552 3.53383 63.0334 3.81852C62.9117 4.1032 62.792 4.22492 62.6743 4.18366C62.5566 4.10114 62.4876 3.81852 62.4673 3.33579C62.4275 3.03388 62.4275 2.72793 62.4673 2.42603C62.5038 2.26512 62.5586 2.02994 62.6134 1.72669C62.6682 1.42343 62.5464 1.37392 62.2238 1.57815C62.2022 1.55398 62.1857 1.5256 62.1753 1.49476C62.1648 1.46391 62.1606 1.43122 62.1629 1.39868V1.2192C61.9236 1.34142 61.734 1.5451 61.6272 1.79476C61.4599 2.11429 61.3193 2.44761 61.2072 2.79117C61.0895 3.15425 60.99 3.50701 60.9089 3.84946C60.8277 4.19191 60.7689 4.46422 60.7323 4.66639C60.6532 4.98821 60.5619 5.28527 60.4645 5.60709C60.3563 5.9295 60.2261 6.24383 60.0749 6.5478C59.974 6.78678 59.843 7.01145 59.6853 7.21619C59.5274 7.42085 59.3964 7.64554 59.2957 7.88459C59.2548 7.96936 59.2336 8.0625 59.2336 8.1569C59.2336 8.25129 59.2548 8.34444 59.2957 8.42921C59.3383 8.52661 59.3603 8.63204 59.3603 8.73865C59.3603 8.84526 59.3383 8.95068 59.2957 9.04809C59.2202 9.35892 59.1204 9.66314 58.9974 9.95785L58.6382 10.8057C58.4799 11.1275 58.2608 11.5814 57.9807 12.1673C57.801 12.6123 57.5217 13.0085 57.165 13.3246C57.0967 13.5275 56.9719 13.706 56.8058 13.8383C56.6364 13.9823 56.4941 14.1563 56.3858 14.3519C56.2681 14.5541 56.1382 14.7872 55.9962 15.0513C55.8699 15.2897 55.6981 15.5001 55.4909 15.6702C55.3326 15.7506 55.2048 15.8125 55.1013 15.8496C54.9771 15.9073 54.8654 15.9893 54.7726 16.091C54.5545 16.3633 54.3648 16.6578 54.2064 16.9698C54.0386 17.2959 53.8495 17.6102 53.6403 17.9105L51.8505 20.6336C51.6111 20.9967 51.3534 21.4093 51.0774 21.8714C50.8412 22.2296 50.6644 22.6247 50.5539 23.0411C50.5539 23.0411 50.5052 23.0411 50.4199 23.1463L50.2982 23.2701C50.2845 23.3034 50.2774 23.3391 50.2774 23.3753C50.2774 23.4114 50.2845 23.4472 50.2982 23.4805C50.3123 23.5026 50.3199 23.5284 50.3199 23.5547C50.3199 23.5811 50.3123 23.6069 50.2982 23.629C50.2271 23.7808 50.1255 23.9158 49.9999 24.0251C49.8655 24.1485 49.763 24.3036 49.7016 24.4769C49.3925 25.0287 49.0552 25.5638 48.6911 26.0798C48.3339 26.5831 47.9971 27.0989 47.6805 27.627L45.9638 30.4367C45.3875 31.3857 44.8011 32.3243 44.2045 33.2527C43.4549 34.3739 42.7679 35.5372 42.1469 36.737C41.5355 37.9359 40.8587 39.0991 40.1197 40.2213C40.0268 40.3592 39.9039 40.4736 39.7606 40.5555C39.6507 40.609 39.55 40.68 39.4623 40.7659C39.2941 40.9408 39.1451 41.1338 39.0179 41.3415C38.8803 41.5554 38.732 41.762 38.5735 41.9604C38.3746 42.2038 38.1453 42.4555 37.8856 42.7154C37.6475 42.9486 37.4553 43.2259 37.3195 43.5323C37.36 43.3302 37.4392 43.0166 37.5569 42.5916C37.6746 42.1667 37.7943 41.7334 37.916 41.292L38.2448 40.0542C38.3022 39.8475 38.3429 39.6364 38.3665 39.4229C38.761 37.8147 39.3628 36.2664 40.1563 34.8184C40.4849 34.1785 40.7246 33.4954 40.8685 32.7885C41.0268 32.0417 41.1851 31.3259 41.3434 30.641C41.5422 29.7126 41.7614 28.774 42.0008 27.825C42.2403 26.8761 42.5183 25.9374 42.8348 25.0091C43.5085 23.1937 44.1538 21.366 44.7707 19.5258C45.3875 17.6857 46.0125 15.829 46.6456 13.9558C46.7633 13.5928 46.8729 13.24 46.9744 12.8976C47.0758 12.5551 47.1651 12.2023 47.2422 11.8393C47.3217 11.3589 47.3523 10.8716 47.3335 10.3849C47.3033 9.90058 47.3033 9.41481 47.3335 8.9305C47.3635 8.5474 47.3635 8.16248 47.3335 7.77938C47.3132 7.36679 47.0251 7.2657 46.4691 7.47612C46.1434 7.60602 45.8561 7.81919 45.6351 8.09501C45.5925 8.17546 45.5255 8.33637 45.4281 8.57774C45.3307 8.8191 45.2394 8.94288 45.1603 8.94288C45.0811 8.94288 45.0994 8.86242 45.0994 8.70151V8.41683C44.6614 8.62018 44.2896 8.94656 44.028 9.35753C43.7666 9.77104 43.4777 10.166 43.1635 10.5396C43.0186 10.7095 42.8882 10.8917 42.7739 11.0842C42.5954 11.3689 42.3924 11.6722 42.1652 11.994C41.9713 12.277 41.7924 12.5703 41.6295 12.8728C41.4915 13.1369 41.461 13.2874 41.5382 13.3246C41.6153 13.3617 41.7147 13.2916 41.8364 13.1142C41.9094 12.981 42.0115 12.8667 42.1347 12.78C42.1907 12.7624 42.2415 12.7313 42.2829 12.6892C42.3243 12.6472 42.3549 12.5954 42.3722 12.5386C42.288 12.8511 42.1631 13.1509 42.0008 13.4298C41.8019 13.7516 41.599 14.0549 41.3921 14.3396C41.1851 14.6242 40.9822 14.9873 40.7833 15.4288C40.5969 15.7973 40.3201 16.1107 39.9797 16.3385C39.858 16.419 39.7606 16.4314 39.6814 16.3385C39.6661 16.3223 39.6477 16.3093 39.6273 16.3004C39.6069 16.2916 39.5849 16.287 39.5627 16.287C39.5405 16.287 39.5186 16.2916 39.4982 16.3004C39.4778 16.3093 39.4594 16.3223 39.444 16.3385C39.1855 16.5161 38.9944 16.7781 38.9022 17.0812C38.7884 17.3511 38.6583 17.6136 38.5126 17.8672L37.8004 19.105C37.5609 19.5175 37.3235 19.9425 37.0881 20.3799C36.8985 20.7149 36.6913 21.0393 36.4672 21.3515C36.2233 21.6577 36.06 22.0219 35.9924 22.4098C35.9518 22.612 35.9518 22.7337 35.9924 22.7749C36.0141 22.7893 36.0395 22.797 36.0654 22.797C36.0913 22.797 36.1167 22.7893 36.1385 22.7749L36.3454 22.7131C36.422 22.6841 36.5063 22.6841 36.5829 22.7131C36.6194 22.7564 36.5829 22.8616 36.522 23.0473C36.4305 23.2492 36.3204 23.4419 36.1933 23.6228C36.0559 23.823 35.9076 24.0152 35.7489 24.1984L35.4506 24.5326C35.3288 24.6564 35.201 24.7987 35.061 24.9596C34.9375 25.1094 34.7865 25.2334 34.6166 25.3248C34.5213 25.3979 34.407 25.4409 34.2878 25.4485C34.2372 25.4495 34.1874 25.461 34.1413 25.4823C34.0953 25.5036 34.054 25.5342 34.02 25.5723C33.7479 25.7707 33.5233 26.0288 33.3625 26.3273C33.1831 26.6364 32.9796 26.9303 32.7538 27.2062C32.4696 27.5381 32.2111 27.8919 31.9806 28.2645C31.7412 28.6482 31.522 29.0216 31.3232 29.3846C30.9373 30.0506 30.5897 30.7387 30.2822 31.4455C29.9658 32.1787 29.5912 32.8845 29.1621 33.5559L26.727 37.7024C25.9162 39.0801 25.0216 40.405 24.0485 41.6695C23.5737 42.276 23.1374 42.8825 22.7397 43.489C22.342 44.0955 21.9361 44.7412 21.5222 45.4261L20.9134 46.5154L20.3046 47.6046L19.6959 48.5762C19.4988 48.8916 19.3567 49.2391 19.2758 49.6036C19.355 49.6036 19.4463 49.5046 19.5437 49.3003C19.6411 49.0961 19.7324 49.0156 19.8115 49.059C19.8907 49.1023 19.8602 49.2508 19.7202 49.5108C19.5605 49.8052 19.3815 50.0885 19.1845 50.3586C19.0323 50.569 18.8801 50.7671 18.728 50.9775C18.7304 50.9301 18.7304 50.8826 18.728 50.8352L18.6671 50.8971C18.5686 51.0005 18.479 51.1123 18.3992 51.2313C18.3322 51.3251 18.2865 51.4329 18.2653 51.5469C18.2151 51.6088 18.1703 51.6751 18.1314 51.7449C17.6931 52.2689 17.2872 52.7847 16.9139 53.2921C16.5405 53.7996 16.2036 54.3339 15.9033 54.895L15.1606 56.2257V56.2937H15.1119L14.978 56.5413C14.8603 56.7435 14.7203 57.0158 14.558 57.3582C14.4497 57.6391 14.2636 57.882 14.0222 58.0575C13.8214 58.2185 13.7118 58.268 13.6935 58.2061C13.6792 58.1388 13.6792 58.0691 13.6935 58.0018L13.5839 58.1132C13.5839 58.1504 13.5839 58.1566 13.6448 58.1566C13.4987 58.1566 13.6448 58.2742 13.6083 58.3299L13.3952 58.367C13.3952 58.4474 13.4622 58.4289 13.4865 58.4536C13.3465 58.7136 13.0665 58.8683 13.0056 59.1158C12.9204 59.1468 12.9143 59.0292 12.8413 59.1158C13.0421 59.1158 12.7439 59.4005 12.8839 59.3881C12.6952 59.3881 12.6647 59.6728 12.4943 59.5057C12.4212 59.5986 12.4943 59.6419 12.5612 59.6233C12.4779 59.7173 12.4285 59.8374 12.4212 59.9637C12.3299 60.0008 12.1412 60.5393 11.9281 60.5826C12.0681 60.5826 11.9768 60.6197 11.9768 60.7126H12.0986L11.9951 60.8611C11.9951 60.8982 11.9951 60.9044 11.9951 60.8982C11.9951 60.892 11.9464 60.8611 11.8916 60.8982C11.8368 60.9354 11.8916 61.0344 11.8916 61.121L11.8612 61.2015C11.8307 61.2572 11.8612 60.9601 11.7394 61.1087C11.7394 61.1087 11.8185 61.2943 11.7394 61.3067C11.7942 61.22 11.7394 61.1953 11.6846 61.2139L11.6055 61.3376H11.7394C11.5263 61.6966 11.2524 62.037 11.0515 62.4331C10.9541 62.3774 10.9054 62.7116 10.7776 62.6002C10.8141 62.4949 10.6497 62.6002 10.6254 62.6559C10.7106 62.594 10.6984 62.8787 10.8202 62.6868V62.8787C11.0576 63.1076 10.5888 63.2809 10.5706 63.5718C10.5743 63.5597 10.5743 63.5468 10.5706 63.5347C10.5706 63.7884 10.2723 63.9803 10.2966 64.0484H10.2114C10.2114 64.2588 10.2479 64.3083 10.1445 64.4568C10.1773 64.4902 10.1995 64.5328 10.2082 64.5792C10.2169 64.6255 10.2116 64.6735 10.1932 64.7167C10.1673 64.7873 10.1232 64.8493 10.0653 64.8962C10.1027 64.7677 10.1212 64.6342 10.1201 64.5001V64.5435C10.1201 64.5435 10.1201 64.5001 10.0653 64.5435C10.0941 64.5886 10.1095 64.6413 10.1095 64.6951C10.1095 64.7489 10.0941 64.8016 10.0653 64.8467L9.98009 65.0881C9.73658 64.9829 9.98009 65.5584 9.66962 65.5213C9.72441 65.5956 9.66962 65.7812 9.66962 65.8741C9.66962 65.9669 9.66962 65.8741 9.66962 65.9298C9.66962 65.9855 9.66962 65.9298 9.66962 65.8741C9.66298 65.8708 9.6557 65.8691 9.64831 65.8691C9.64093 65.8691 9.63365 65.8708 9.62701 65.8741C9.71832 66.0164 9.4809 66.1216 9.46264 66.233C9.44438 66.3444 9.52352 66.3011 9.57222 66.2887C9.42003 66.3815 9.57222 66.6972 9.49308 66.7281C9.41394 66.7591 9.3835 66.7281 9.32263 66.7281C9.32263 66.8828 9.55396 66.7838 9.3835 66.9447C9.3835 66.9447 9.3835 66.8767 9.3835 66.8828C9.3835 66.889 9.00607 66.9819 9.03651 67.0747L9.09739 67.0437C9.09739 67.118 9.0426 67.1737 8.98781 67.2232C8.98323 67.2768 8.98323 67.3306 8.98781 67.3841H9.02434V67.4151C9.03139 67.4538 9.04817 67.4901 9.07304 67.5203C9.19479 67.7245 9.24958 67.774 9.24958 67.6688C9.24958 67.5636 9.31045 67.4955 9.42612 67.4584C9.54178 67.4213 9.66353 67.5203 9.78528 67.7617C9.846 67.9282 9.9489 68.0755 10.0836 68.1887C10.1767 68.2755 10.2897 68.3372 10.4123 68.3682C10.5472 68.3456 10.6784 68.304 10.8019 68.2444C11.2226 68.0534 11.6061 67.7872 11.9342 67.4584C12.2317 67.0845 12.4965 66.6848 12.7256 66.264C13.2816 65.3769 13.797 64.4692 14.2718 63.5409C14.7467 62.6125 15.2621 61.7048 15.8181 60.8178C16.2564 60.1287 16.6622 59.4212 17.0356 58.695C17.4074 57.9747 17.8348 57.2856 18.314 56.6341C18.8309 55.9467 19.3085 55.2297 19.7446 54.4866C20.1829 53.7398 20.6192 52.9827 21.0534 52.2153C21.926 50.6392 22.7803 49.0734 23.6163 47.5179C24.4523 45.9625 25.3269 44.4173 26.24 42.8825C27.2709 41.1868 28.2855 39.522 29.2838 37.8881L32.3276 32.937L32.9364 31.9406L34.1539 30.0345C34.6084 29.3083 35.0853 28.5409 35.5845 27.7322C36.0837 26.9235 36.5808 26.1891 37.076 25.529C37.5143 24.8606 38.0114 24.0829 38.5674 23.1958C38.6039 23.2391 38.6161 23.3753 38.5674 23.6228C38.5434 23.8889 38.4945 24.1521 38.4213 24.4088C38.3401 24.6935 38.261 24.9555 38.1839 25.1948C38.1232 25.3498 38.0823 25.512 38.0621 25.6775C37.9444 26.1231 37.8146 26.5481 37.6725 26.9524C37.5305 27.3568 37.4006 27.7817 37.2829 28.2273C37.1652 28.6729 37.0455 29.0855 36.9238 29.4651C36.799 29.8709 36.6993 30.2843 36.6255 30.7029C36.596 30.8935 36.596 31.0877 36.6255 31.2784C36.6551 31.4483 36.6551 31.6222 36.6255 31.7921C36.5463 31.9963 36.4672 32.1882 36.3881 32.3677C36.3039 32.5656 36.2446 32.7735 36.2115 32.9865C36.1823 33.1273 36.1823 33.2728 36.2115 33.4136C36.2384 33.5733 36.2384 33.7366 36.2115 33.8963L35.8523 35.3507C35.7777 35.6506 35.7188 35.9542 35.6758 36.2604C35.6352 36.5451 35.5946 36.8484 35.5541 37.1702C35.4364 37.9376 35.3268 38.705 35.2253 39.4725C35.1286 40.2288 34.9801 40.9774 34.7809 41.7128C34.5821 42.538 34.3934 43.326 34.2148 44.0769C34.0362 44.8279 33.8475 45.6159 33.6486 46.4411C33.5501 46.7597 33.4708 47.0842 33.4112 47.4127C33.3301 47.8253 33.2611 48.2379 33.2042 48.6505C33.1527 49.0614 33.1527 49.4773 33.2042 49.8883C33.1811 50.1957 33.2581 50.5024 33.4234 50.7609C33.7122 51.0236 34.078 51.1823 34.4644 51.2127C34.6464 51.2786 34.8413 51.2995 35.0329 51.2737C35.2245 51.2479 35.4073 51.176 35.5662 51.0642C35.5667 50.9399 35.5872 50.8165 35.6271 50.699L35.7489 50.3339C35.8301 50.1289 35.9524 49.9435 36.108 49.7893C36.2692 49.6256 36.4102 49.4428 36.5281 49.2446C36.6092 49.125 36.7574 48.863 36.9725 48.4586C37.1876 48.0543 37.4169 47.6417 37.6604 47.2209C37.8998 46.8083 38.1291 46.4349 38.3483 46.1007C38.5674 45.7665 38.7155 45.6242 38.7927 45.6737C38.8718 45.7541 38.8718 45.8779 38.7927 46.0388C38.727 46.1504 38.6855 46.2748 38.6709 46.404H38.9022C38.8668 46.4717 38.8363 46.5421 38.8109 46.6144C38.7773 46.6942 38.7275 46.7658 38.6648 46.8248V46.4597C38.5605 46.5211 38.4695 46.6032 38.397 46.701C38.2996 46.8248 38.33 46.9238 38.4883 47.0043V47.3075C38.6024 47.2449 38.7122 47.1746 38.817 47.0971C38.8949 47.0288 38.9862 46.9782 39.0849 46.9486C39.0422 47.029 38.9753 47.1528 38.8779 47.3137C38.8014 47.4446 38.7116 47.567 38.61 47.6789C38.4112 47.9594 38.2082 48.2214 38.0013 48.4648C37.7792 48.7327 37.5758 49.016 37.3925 49.3127C37.4331 49.3952 37.5325 49.354 37.6908 49.1889C37.8491 49.028 38.0195 48.8362 38.1961 48.6134L38.7013 47.9945C38.8122 47.8608 38.912 47.7179 38.9996 47.5675L39.8032 46.4782C39.93 46.307 40.0382 46.1223 40.1258 45.9274L40.1197 45.8531C40.019 45.8718 39.9282 45.9267 39.8641 46.0079C39.9249 45.8841 39.9797 45.7851 40.0284 45.7046C40.0468 45.6633 40.0756 45.6278 40.112 45.6017C40.1484 45.5755 40.191 45.5598 40.2354 45.5561C40.1197 45.5932 40.0954 45.717 40.1745 45.915C40.2701 45.7079 40.3318 45.4863 40.3572 45.259C40.556 45.1765 40.7244 44.9351 40.8624 44.5349C40.9635 44.2198 41.094 43.9151 41.252 43.6252C41.5466 43.0743 41.8846 42.5486 42.2626 42.0532C42.5629 41.5993 42.8632 41.1352 43.1635 40.6607L44.1193 39.2063C44.3182 38.8845 44.5211 38.5813 44.7281 38.2966C44.935 38.0119 45.138 37.7086 45.3368 37.3868C45.5169 37.0782 45.7204 36.7843 45.9456 36.508C46.1686 36.2328 46.3306 35.912 46.4204 35.5673C46.4216 35.5435 46.4277 35.5202 46.4382 35.499C46.4486 35.4777 46.4633 35.4588 46.4813 35.4435C46.5025 35.4191 46.5189 35.3907 46.5293 35.3599C46.5398 35.3291 46.5441 35.2966 46.5422 35.264H46.4935V35.3259C46.4508 35.3692 46.396 35.3259 46.3169 35.264H46.4935C46.4925 35.2537 46.4925 35.2434 46.4935 35.2331C46.4331 35.2217 46.3712 35.2217 46.3108 35.2331C46.2874 35.2344 46.2646 35.2405 46.2436 35.2511C46.2227 35.2618 46.2041 35.2767 46.1891 35.295C45.9902 34.9732 46.0105 34.7318 46.25 34.5709C46.3254 34.1761 46.4877 33.8037 46.7248 33.4816C46.9655 33.1538 47.1469 32.7849 47.2605 32.3924C47.3376 32.1118 47.4573 31.7488 47.6197 31.3032C47.7305 30.9167 47.9863 30.59 48.3319 30.3934C48.5 30.2847 48.7009 30.2408 48.898 30.2696C49.036 30.3109 49.2653 30.2304 49.5859 30.0283C49.9334 29.7419 50.2317 29.3989 50.4686 29.0133C50.7081 28.6502 50.9455 28.2665 51.1809 27.8622C51.7369 27.0122 52.2827 26.1541 52.8185 25.2876C53.3514 24.4253 53.8194 23.5233 54.2186 22.5893C54.3671 22.206 54.557 21.8407 54.7847 21.5C55.0039 21.1782 55.2068 20.8358 55.3935 20.4727C55.4611 20.3709 55.5106 20.2578 55.5396 20.1385C55.6079 19.9281 55.6871 19.7215 55.777 19.5196C55.8744 19.2968 55.9637 19.105 56.0449 18.9441C56.1179 18.8017 56.1666 18.7274 56.2092 18.7089C56.146 18.838 56.1107 18.9794 56.1058 19.1235C56.0652 19.4082 56.0165 19.7218 55.9597 20.0642C55.8988 20.4108 55.8501 20.7388 55.8136 21.0668C55.777 21.3948 55.7527 21.5929 55.7527 21.6857C55.6721 22.1458 55.6232 22.6111 55.6066 23.0782C55.591 23.5404 55.479 23.994 55.2778 24.4088C55.077 24.3283 54.9796 24.4088 54.9796 24.5883C54.9022 24.7372 54.8605 24.9026 54.8578 25.071C54.8578 25.1515 54.8578 25.201 54.9187 25.2195C54.9796 25.2381 54.9796 25.2876 54.9796 25.3681C55.0261 25.6105 55.005 25.8613 54.9187 26.0922C54.8199 26.3072 54.7404 26.5309 54.6813 26.7606C54.6053 27.0271 54.5564 27.3008 54.5352 27.5775C54.5132 27.854 54.4643 28.1277 54.3891 28.3944C54.2775 28.6947 54.188 29.0029 54.1212 29.3166C54.0563 29.6377 54.0076 29.962 53.9751 30.2882C53.9345 30.8535 53.8757 31.4187 53.7986 31.9839L53.5611 33.6797C53.4812 33.9509 53.3815 34.2157 53.2629 34.4719C53.1416 34.7482 53.0814 35.0481 53.0863 35.3507C53.075 35.532 53.075 35.7139 53.0863 35.8953C53.1144 36.0757 53.1144 36.2595 53.0863 36.4399C52.9655 37.4196 52.7866 38.3909 52.5506 39.3487C52.3112 40.3183 52.092 41.2878 51.8931 42.2574C51.812 42.5421 51.7328 42.8041 51.6557 43.0434C51.5766 43.2848 51.4975 43.5509 51.4183 43.8294C51.3386 44.1043 51.3179 44.3935 51.3574 44.6773C51.3964 44.9585 51.3964 45.2439 51.3574 45.5251C51.2763 46.1316 51.2174 46.7382 51.1809 47.3447C51.1444 47.9512 51.1241 48.5577 51.12 49.1642V52.2586C51.1219 53.2927 51.063 54.326 50.9435 55.353C50.8721 55.8457 50.7306 56.3252 50.5234 56.7765C50.3191 57.2423 50.2576 57.7599 50.3469 58.2618L50.4686 58.8807C50.5102 59.1009 50.5306 59.3248 50.5295 59.5491C50.5295 59.8709 50.5295 60.1741 50.5295 60.4588C50.5295 60.7435 50.5295 61.0468 50.5295 61.3686C50.5295 62.4578 50.5782 63.5677 50.6756 64.6982C50.7847 65.826 50.7847 66.9619 50.6756 68.0897C50.5976 68.6203 50.5569 69.156 50.5539 69.6926C50.5572 70.2317 50.6164 70.769 50.7304 71.2955C50.7669 71.4564 50.8096 71.6606 50.8522 71.9144C50.8737 72.1166 50.9566 72.307 51.0896 72.459C51.1545 72.5466 51.2411 72.6151 51.3405 72.6575C51.44 72.7 51.5488 72.7147 51.6557 72.7004C51.8423 72.6595 52.0353 72.6595 52.2219 72.7004C52.395 72.729 52.5583 72.8013 52.6967 72.9108C52.8115 73.0069 52.912 73.1195 52.995 73.245C53.032 73.291 53.057 73.3457 53.0676 73.4041C53.0783 73.4626 53.0742 73.5228 53.0559 73.5792C53.0133 73.6782 53.1167 73.672 53.3542 73.5792C53.4203 73.5282 53.4754 73.464 53.5163 73.3906C53.5571 73.3172 53.5827 73.236 53.5916 73.1521C53.6322 72.95 53.7519 72.8902 53.9508 72.9727C54.109 73.0098 54.1882 73.0841 54.1882 73.1831C54.1842 73.2905 54.1527 73.395 54.0969 73.4863C54.0399 73.5831 53.991 73.6845 53.9508 73.7896C53.9081 73.8886 53.9507 73.9629 54.0116 74C54.2421 73.8134 54.491 73.6517 54.7543 73.5173C54.9329 73.4348 54.9633 73.1934 54.8456 72.7932C54.7665 72.5085 54.6995 72.2362 54.6386 71.9763C54.5778 71.7163 54.5108 71.4378 54.4317 71.1593C54.3557 70.8928 54.3068 70.6191 54.2856 70.3424C54.2653 70.0783 54.2348 69.806 54.1943 69.5255C54.154 69.2755 54.154 69.0205 54.1943 68.7704C54.2395 68.512 54.1966 68.2456 54.0725 68.0154C53.9913 68.0979 53.9609 68.3042 53.9812 68.6343C54.0015 68.9644 54.0015 69.3377 53.9812 69.7545C53.9812 70.2001 54.0015 70.7055 54.0421 71.2707C53.9629 71.2707 53.896 71.0974 53.8351 70.7571C53.7706 70.3764 53.7299 69.9919 53.7133 69.6059C53.692 69.1936 53.692 68.7805 53.7133 68.3682C53.7133 67.9845 53.7133 67.7513 53.7133 67.6688C53.7415 67.4318 53.7904 67.1977 53.8594 66.9695C53.9233 66.7672 53.9721 66.5603 54.0055 66.3506C54.0421 66.0288 54.0725 65.6822 54.0969 65.3232C54.1212 64.9643 54.0969 64.6177 54.0969 64.2959C54.0969 63.5697 54.1273 62.8436 54.1882 62.1174C54.249 61.3913 54.2795 60.6651 54.2795 59.939C54.278 59.2205 54.3268 58.5028 54.4256 57.7914C54.5227 57.0985 54.5715 56.3995 54.5717 55.6996C54.6123 54.206 54.6813 52.7228 54.7787 51.2498C54.8761 49.7769 55.0242 48.2936 55.2231 46.8C55.3042 46.1523 55.3631 45.5066 55.3996 44.8629C55.4361 44.2193 55.495 43.553 55.5761 42.8639C55.6049 42.5614 55.6049 42.2567 55.5761 41.9542C55.5465 41.6517 55.5465 41.3469 55.5761 41.0444C55.6167 40.8422 55.6756 40.5101 55.7527 40.048C55.8298 39.5859 55.7892 39.2723 55.6309 39.1073C55.4726 38.9423 55.4524 39.1341 55.57 39.6829L55.3022 40.834L54.9126 42.4988C54.8314 42.4575 54.801 42.1852 54.8213 41.6819C54.8468 41.1135 54.9058 40.5473 54.9978 39.9861C55.0952 39.359 55.1946 38.7731 55.2961 38.2285C55.3248 37.9003 55.4157 37.5808 55.564 37.2878C55.6203 37.5162 55.6408 37.7522 55.6248 37.9871C55.6248 38.3708 55.6614 38.5627 55.7466 38.5627C55.8318 38.5627 55.8927 38.4389 55.9536 38.1975C56.0176 37.9294 56.0583 37.656 56.0753 37.3806C56.0753 37.0794 56.0956 36.7865 56.1362 36.5018C56.1768 36.2171 56.1768 36.0356 56.1362 35.9572L56.4954 34.1377C56.6131 33.5312 56.7125 32.9247 56.7937 32.3181C56.8708 32.0376 56.9398 31.7653 57.0006 31.5012C57.0615 31.2413 57.1285 30.969 57.2076 30.6843C57.26 30.4464 57.3292 30.2127 57.4146 29.9849C57.5187 29.7763 57.6497 29.5828 57.8042 29.4094C57.9845 29.2408 58.1187 29.0275 58.1938 28.7905C58.2547 28.5677 58.3216 28.314 58.4008 28.0355C58.4799 27.757 58.5591 27.5837 58.6382 27.4166C58.726 27.2187 58.8256 27.0265 58.9365 26.841C59.1776 26.3032 59.3377 25.7316 59.4113 25.1453C59.4925 24.5388 59.5716 23.9529 59.6487 23.3876C59.7299 22.942 59.8293 22.4882 59.947 22.0261C60.0647 21.564 60.1642 21.1101 60.2453 20.6645C60.363 20.1406 60.4827 19.6248 60.6045 19.1173C60.7262 18.6099 60.8662 18.0941 61.0245 17.5701C61.058 17.3572 61.1173 17.1493 61.2011 16.9512C61.3188 16.6294 61.4385 16.2663 61.5602 15.862C61.682 15.4577 61.8403 14.9522 62.0351 14.3457L62.2116 14.5252C62.3699 13.9187 62.5099 13.4339 62.6317 13.0708C62.7534 12.7078 62.8731 12.3756 62.9908 12.0744C63.0746 11.8914 63.134 11.6979 63.1674 11.4989C63.5407 10.2664 63.8395 9.01182 64.0622 7.74224L64.2997 7.01815C64.378 6.78336 64.378 6.52884 64.2997 6.29405L64.6406 5.63185ZM10.0044 65.2366C9.974 65.2366 10.0044 65.1438 10.0044 64.9581C10.0271 65.0495 10.0271 65.1452 10.0044 65.2366ZM10.5401 64.0855C10.5767 64.0422 10.601 64.0422 10.601 64.0855C10.601 64.1288 10.5401 64.1288 10.5401 64.0855ZM15.0937 56.4546V56.4175H15.1606L15.0937 56.4546ZM18.4662 51.6707C18.4236 51.7078 18.4236 51.6707 18.4662 51.6088C18.5088 51.5469 18.5027 51.6273 18.4662 51.6707ZM30.2639 34.0386C30.1422 34.2429 30.0448 34.3419 29.9656 34.3419V34.28C30.0022 34.1996 30.0752 34.0758 30.1726 33.9149C30.2443 33.7781 30.3605 33.6709 30.5014 33.6116C30.4587 33.6983 30.3796 33.853 30.2639 34.0386ZM37.1734 22.5274C37.1307 22.6512 37.076 22.6697 36.9968 22.5893L37.0577 22.5274C37.0473 22.5122 37.0406 22.4947 37.0381 22.4764C37.0356 22.4581 37.0374 22.4394 37.0433 22.4219C37.0492 22.4045 37.0592 22.3886 37.0722 22.3758C37.0853 22.3629 37.1012 22.3534 37.1186 22.3479C37.1835 22.3165 37.2431 22.2747 37.2951 22.2241C37.2471 22.3241 37.2064 22.4275 37.1734 22.5336V22.5274ZM38.4517 21.7105C38.4763 21.5529 38.5256 21.4003 38.5978 21.2587C38.6755 21.1013 38.7651 20.9502 38.8657 20.8069C38.9631 20.6645 39.0362 20.5965 39.0727 20.5965C39.1092 20.5965 39.1214 20.7388 39.0727 20.8997C39.0506 21.0649 39.0098 21.2269 38.9509 21.3825C38.8982 21.5324 38.8287 21.6756 38.7439 21.8095C38.6628 21.9291 38.6039 21.989 38.5674 21.989C38.5188 21.9659 38.4805 21.9251 38.4602 21.8746C38.4399 21.8241 38.439 21.7677 38.4578 21.7167L38.4517 21.7105ZM38.1778 48.5824C38.1799 48.5598 38.1799 48.537 38.1778 48.5144H38.2387L38.1778 48.5824ZM38.0074 48.6381C38.0084 48.5375 38.0368 48.4391 38.0894 48.3539C38.1421 48.2687 38.2169 48.2 38.3056 48.1554C38.3148 48.258 38.2905 48.3607 38.2366 48.4479C38.1827 48.5351 38.1022 48.602 38.0074 48.6381ZM39.7058 46.3049C39.6948 46.412 39.6515 46.5129 39.5817 46.5938C39.5119 46.6748 39.4191 46.7317 39.3162 46.7567C39.4137 46.6974 39.4953 46.6145 39.5536 46.5154C39.6084 46.4287 39.6693 46.3235 39.7241 46.2183L39.7058 46.3049ZM55.7649 37.1888C55.8014 37.1083 55.8257 37.1083 55.8257 37.1888C55.8257 37.2692 55.7222 37.2692 55.7649 37.1888ZM53.8594 18.2323L53.9812 18.2942C53.9386 18.2942 53.9203 18.2942 53.9203 18.3871C53.9203 18.4799 53.9203 18.4799 53.8594 18.4799C53.7377 18.3809 53.7377 18.2695 53.8594 18.2323ZM51.0774 24.2912L51.0165 24.2293C50.9354 24.2293 50.8461 24.1386 50.7487 23.957C50.672 23.8375 50.6221 23.7023 50.6026 23.5609C50.6909 23.2261 50.8328 22.9083 51.0226 22.6202C51.2986 22.1169 51.6172 21.5929 51.9784 21.0483C52.3396 20.5036 52.6683 20.0271 52.9646 19.6186C53.1145 19.3885 53.2948 19.1802 53.5003 18.9998C53.5794 19.0431 53.5916 19.1112 53.5003 19.2102C53.409 19.3092 53.3785 19.4206 53.3237 19.5444C53.2629 19.6714 53.214 19.8041 53.1776 19.9405C53.1573 19.9836 53.1535 20.0328 53.167 20.0786C53.1805 20.1244 53.2104 20.1634 53.2507 20.188C53.1449 20.3413 53.0685 20.5135 53.0254 20.6955C52.9774 20.9178 52.8864 21.1282 52.7576 21.3144L51.8627 22.9482C51.7026 23.1715 51.5717 23.4149 51.4731 23.6723C51.3148 24.0437 51.1829 24.25 51.0774 24.2912ZM55.3996 19.959C55.2981 20.2024 55.1784 20.4748 55.0404 20.7759L54.6508 21.6238C54.5881 21.7828 54.5085 21.9343 54.4134 22.0756L54.3525 22.0137C54.2748 22.2116 54.1516 22.3877 53.9934 22.5274C53.8349 22.6669 53.7117 22.8431 53.6342 23.0411C53.5552 23.2409 53.4961 23.4482 53.4577 23.66C53.4158 23.8791 53.3353 24.0887 53.2202 24.2788C53.0905 24.4209 52.9705 24.5719 52.8611 24.7306L52.3558 25.43C52.1793 25.6713 52.0088 25.8817 51.8505 26.0488C51.6923 26.2159 51.5888 26.3212 51.5522 26.3212C51.5157 26.3212 51.5522 26.0922 51.7288 25.7456C51.9053 25.399 52.094 24.9658 52.3375 24.4459C52.581 23.9261 52.8915 23.3629 53.2324 22.7811C53.5733 22.1994 53.8899 21.661 54.1882 21.1782C54.4865 20.6955 54.7543 20.2932 54.9917 19.9405C55.2291 19.5877 55.3874 19.4763 55.4666 19.5134C55.5457 19.5506 55.4726 19.6867 55.3752 19.9281L55.3996 19.959ZM56.1423 17.1122C55.9028 17.5949 55.6248 18.1189 55.3083 18.6841C54.9917 19.2494 54.6671 19.7672 54.3343 20.2375C54.0177 20.7203 53.7986 20.9822 53.6768 21.0235H53.6159C53.5733 21.0235 53.6829 20.7698 53.9447 20.2685C54.2064 19.7672 54.5108 19.2164 54.87 18.6346L55.8562 17.0317C56.1524 16.549 56.3411 16.3262 56.4223 16.3633C56.5035 16.4004 56.404 16.6397 56.124 17.0812L56.1423 17.1122ZM56.678 14.5685C56.6354 14.5685 56.6354 14.5685 56.678 14.5067H56.7389L56.678 14.5685ZM62.1568 2.19085L61.9194 2.43221C61.9384 2.31791 61.969 2.20591 62.0107 2.09802C62.0716 1.91854 62.1386 1.82571 62.2177 1.82571L62.1568 1.8876C62.3435 1.87935 62.3374 1.9763 62.1386 2.17847L62.1568 2.19085Z" fill="#F91616"/>
</svg>
