<svg width="131" height="74" viewBox="0 0 131 74" fill="none" xmlns="http://www.w3.org/2000/svg">
<path d="M100.124 39.1142C100.124 39.5289 100.325 39.6403 100.946 39.6403C101.28 39.6403 101.658 39.6403 101.993 39.6403C103.332 39.6403 104.702 39.8569 104.702 41.6826C104.702 43.5083 103.606 44.22 102.145 44.22C100.684 44.22 99.6367 44.0963 99.2227 44.0963V42.8894C99.2227 42.8894 100.787 43.0132 102.035 43.0132C102.961 43.0132 103.387 42.7038 103.387 41.7754C103.387 40.9585 102.808 40.8038 102.096 40.8038C101.743 40.8038 101.366 40.8038 100.939 40.8038C99.8619 40.8038 98.8392 40.5253 98.8392 39.04C98.8251 38.7319 98.9106 38.4275 99.0827 38.1735C98.5653 37.7403 98.4131 37.1214 98.4131 36.0879C98.4131 34.3241 98.9183 33.5381 100.891 33.5195H104.756V34.4726L103.922 34.5964C104.086 35.0775 104.158 35.5857 104.135 36.0941C104.135 38.0745 103.405 38.6439 101.993 38.6439H100.41C100.197 38.6439 100.124 38.6934 100.124 38.9038V39.1142ZM102.906 36.0198C102.906 34.813 102.614 34.615 101.688 34.615H100.976C99.9715 34.615 99.6671 34.8006 99.6671 36.1127C99.6671 37.6104 100.063 37.6104 101.706 37.6104C102.601 37.6289 102.906 37.1214 102.906 36.0074V36.0198Z" fill="white"/>
<path d="M109.834 33.4697V34.658C109.072 34.7485 108.329 34.9572 107.63 35.2769V41.3419H106.309V33.6059H107.453L107.545 34.1505C108.258 33.7775 109.035 33.5464 109.834 33.4697V33.4697Z" fill="white"/>
<path d="M110.941 37.4739C110.941 34.3052 111.368 33.4512 113.772 33.4512C116.177 33.4512 116.645 34.3609 116.645 37.4739C116.645 40.5869 116.238 41.4781 113.772 41.4781C111.307 41.4781 110.941 40.5683 110.941 37.4739ZM115.337 37.4739C115.337 34.9551 115.184 34.4909 113.772 34.4909C112.36 34.4909 112.269 35.017 112.269 37.4739C112.269 39.9309 112.39 40.4136 113.772 40.4136C115.154 40.4136 115.343 39.9185 115.343 37.4739H115.337Z" fill="white"/>
<path d="M119.726 33.637V39.5907C119.718 39.6739 119.729 39.7577 119.757 39.8363C119.785 39.9148 119.829 39.9862 119.887 40.0452C119.945 40.1043 120.016 40.1496 120.093 40.178C120.17 40.2064 120.253 40.2172 120.334 40.2096C121.08 40.18 121.814 40.0056 122.496 39.6959V33.637H123.817V41.3422H122.721L122.599 40.8037C121.841 41.1935 121.012 41.421 120.164 41.4721C119.129 41.4721 118.447 40.9028 118.447 39.6155V33.6309L119.726 33.637Z" fill="white"/>
<path d="M131 38.0185C130.939 40.494 130.482 41.4966 128.888 41.4966C128.37 41.4966 127.822 41.4347 127.061 41.3605V44.3435H125.771V33.6058H126.763L126.897 34.1628C127.527 33.779 128.244 33.5659 128.979 33.5439C130.361 33.5439 130.988 34.7322 130.988 37.5976L131 38.0185ZM128.735 34.6951C128.148 34.744 127.58 34.935 127.08 35.2521V40.166C127.602 40.2618 128.132 40.3074 128.662 40.3022H128.711C129.655 40.3022 129.655 39.0644 129.655 37.9814C129.648 35.5739 129.478 34.6889 128.735 34.6889V34.6951Z" fill="white"/>
<path d="M1.58277 38.9158V35.2024H0V34.1503H1.58277V32.1885H2.8429V34.138H4.46829V35.1901H2.8429V39.4232C2.8429 40.661 3.11685 40.9828 3.8778 40.9828C4.12813 40.9893 4.37857 40.9748 4.62657 40.9395C4.62657 41.1871 4.62657 41.6327 4.62657 41.8678C4.32731 41.9446 4.02156 41.9922 3.71343 42.0102C1.70453 42.0102 1.58277 40.7848 1.58277 38.9158Z" fill="white"/>
<path d="M10.1358 41.8981V35.9011C10.1358 35.4988 9.93488 35.2389 9.52701 35.2389C8.76798 35.2585 8.01977 35.4266 7.3233 35.734V41.8981H6.03882V31.2285H7.31721V34.5705C8.09547 34.2602 8.91753 34.0784 9.75225 34.0321C10.8906 34.0321 11.4385 34.6509 11.4385 35.8887V41.8981H10.1358Z" fill="white"/>
<path d="M18.7316 38.4019H18.3907H14.4642C14.5068 40.8775 14.9512 40.8775 16.333 40.8775C16.68 40.8775 17.4714 40.8156 18.3115 40.7413V41.7006C17.4544 41.868 16.5848 41.9612 15.7121 41.9791C13.5693 41.9791 13.1736 40.9889 13.1736 37.9563C13.1736 34.9238 13.5206 33.9521 15.9556 33.9521C18.3115 33.9521 18.7255 34.8495 18.7255 37.9873L18.7316 38.4019ZM14.4702 37.3189H17.4532C17.4045 35.4003 17.2279 35.0476 15.9495 35.0476C14.5311 35.0476 14.5311 35.7098 14.4885 37.3189H14.4702Z" fill="white"/>
<path d="M77.8006 34.2252C77.8565 34.2427 77.9073 34.2738 77.9487 34.3159C77.9901 34.358 78.0207 34.4097 78.038 34.4665V34.646L77.8614 35.0111C77.7797 35.0965 77.7192 35.2005 77.6849 35.3144C77.65 35.428 77.5895 35.5318 77.5084 35.6176C77.4621 35.7258 77.4028 35.8276 77.3318 35.9209C77.2472 36.01 77.1773 36.1124 77.1248 36.2242C77.0723 36.3359 77.0025 36.4383 76.9179 36.5274C76.7502 36.661 76.6078 36.8246 76.4978 37.0101C76.4412 37.201 76.3614 37.3839 76.2604 37.5547C76.1891 37.625 76.1295 37.7065 76.0839 37.7961L75.9621 38.0375C75.8733 38.1303 75.7937 38.2319 75.7247 38.3407C75.6552 38.4493 75.5757 38.5508 75.4873 38.644L75.3107 38.8235C75.2362 38.8972 75.1853 38.9921 75.1646 39.0958C75.1436 39.1993 75.0927 39.2941 75.0185 39.3681C74.9419 39.4455 74.8818 39.5382 74.842 39.6404C74.8019 39.7424 74.7418 39.835 74.6654 39.9127C74.568 40.0211 74.4879 40.1443 74.428 40.2778L74.2515 40.643C74.2089 40.6863 74.1906 40.7111 74.1906 40.7358C74.1906 40.7606 74.1906 40.7853 74.1297 40.8286C73.9785 40.9401 73.8554 41.0865 73.7706 41.2557C73.6946 41.4135 73.5938 41.5577 73.4723 41.6827C73.4012 41.7759 73.3418 41.8777 73.2957 41.986C73.2213 42.0615 73.1522 42.1421 73.0888 42.2273C73.0256 42.3127 72.9564 42.3934 72.8818 42.4687L72.7053 42.6482L71.993 43.3723L71.8165 43.5517C71.6341 43.6228 71.4713 43.7374 71.3416 43.8859C71.2199 44.0283 71.0799 44.1768 70.9216 44.3377C70.5979 44.5434 70.2602 44.7254 69.911 44.8823C69.5539 45.0433 69.1968 45.2248 68.8396 45.427H68.1274C68.072 45.4284 68.0168 45.4181 67.9655 45.3968C67.9142 45.3755 67.8677 45.3436 67.8291 45.3032L67.6525 45.1237C67.6201 45.0689 67.5994 45.0077 67.5917 44.9442C67.5917 44.9071 67.5491 44.8452 67.4699 44.7648C67.3721 44.6567 67.2919 44.5334 67.2325 44.3996C67.1289 44.2192 67.0491 44.0257 66.9951 43.8241V42.5801C66.9884 42.3372 67.0088 42.0942 67.056 41.856L67.1777 41.4909L67.2995 41.1257C67.349 40.9614 67.4079 40.8002 67.476 40.643C67.5423 40.4684 67.5834 40.2849 67.5978 40.0984C67.6179 39.9328 67.6588 39.7706 67.7195 39.6156C67.7986 39.4547 67.756 39.3743 67.5978 39.3743C67.4708 39.3594 67.3483 39.3172 67.2386 39.2505C67.2066 39.2485 67.1746 39.2529 67.1443 39.2636C67.114 39.2742 67.086 39.2908 67.0621 39.3124C66.8739 39.4931 66.7138 39.7017 66.5872 39.9313L66.3498 40.2964L66.1124 40.6616L65.875 41.0267C65.8056 41.1353 65.7261 41.2368 65.6376 41.3299C65.5558 41.4153 65.4953 41.5193 65.461 41.6332C65.4261 41.7468 65.3657 41.8507 65.2845 41.9365C65.2053 42.0602 65.1384 42.1716 65.0775 42.2707C65.0197 42.3697 64.9502 42.4612 64.8705 42.543C64.7914 42.6667 64.7244 42.7781 64.6635 42.8772C64.6028 42.9827 64.5538 43.0948 64.5174 43.2114C64.3957 43.3723 64.2861 43.5332 64.1887 43.6941C64.0836 43.8671 63.994 44.0494 63.9209 44.2387L63.7443 44.4182L63.5678 44.5977L63.2086 44.9628C63.1459 45.0217 63.0962 45.0934 63.0625 45.1732C63.0289 45.253 62.9791 45.3247 62.9164 45.3836C62.8373 45.5074 62.7581 45.6374 62.679 45.7797C62.5975 45.9248 62.4972 46.058 62.3807 46.1758C62.302 46.2956 62.2123 46.4075 62.1128 46.51C62.0126 46.6118 61.9228 46.7238 61.845 46.8442L61.6684 47.0237C61.5603 47.2106 61.4177 47.3745 61.2484 47.5064C61.0801 47.6368 60.9214 47.7795 60.7736 47.9334L60.4144 48.1129L60.2074 48.2058C60.1363 48.2314 60.0671 48.2624 60.0004 48.2986H59.7265C59.5549 48.2307 59.3744 48.189 59.1908 48.1748H58.6551L58.2959 47.9953C58.2051 47.9827 58.1208 47.9401 58.0559 47.8742C57.991 47.8083 57.9492 47.7226 57.9368 47.6302C57.9218 47.5012 57.8803 47.3768 57.815 47.265C57.7338 47.2238 57.7338 47.164 57.815 47.0856C57.8617 46.9081 57.8822 46.7246 57.8759 46.541C57.8752 46.4791 57.8585 46.4185 57.8275 46.3653C57.7965 46.3121 57.7523 46.2681 57.6993 46.2377C57.592 46.1632 57.5092 46.0575 57.4619 45.9344C57.4732 45.9046 57.4732 45.8715 57.4619 45.8416C57.4557 45.8269 57.4525 45.8112 57.4525 45.7952C57.4525 45.7792 57.4557 45.7634 57.4619 45.7488C57.4067 45.5 57.3271 45.2574 57.2245 45.0247C57.2182 44.8411 57.2387 44.6575 57.2854 44.4801C57.3507 44.3684 57.3921 44.244 57.4071 44.1149C57.3946 43.8674 57.4362 43.6201 57.5289 43.3908C57.5502 43.3665 57.5665 43.3381 57.5769 43.3073C57.5874 43.2765 57.5917 43.2439 57.5898 43.2114C57.5878 43.1788 57.5922 43.1462 57.6026 43.1155C57.6131 43.0847 57.6294 43.0563 57.6506 43.0319C57.6881 42.9973 57.7182 42.9553 57.7392 42.9085C57.7601 42.8617 57.7714 42.811 57.7724 42.7596C57.772 42.6653 57.7928 42.5721 57.8333 42.4873L58.0098 42.1221C58.0889 42.0417 58.1316 41.9798 58.1316 41.9426C58.1357 41.8729 58.1534 41.8047 58.1837 41.742C58.214 41.6793 58.2563 41.6234 58.3081 41.5775C58.4278 41.4083 58.5279 41.2255 58.6064 41.0329C58.6549 40.8863 58.7139 40.7436 58.7829 40.6059L59.1177 39.857C59.1638 39.7488 59.2232 39.6469 59.2943 39.5537C59.4478 39.3603 59.5505 39.1303 59.5926 38.8854C59.5906 38.8528 59.595 38.8202 59.6054 38.7894C59.6159 38.7586 59.6322 38.7302 59.6535 38.7059C59.689 38.6412 59.7098 38.5693 59.7143 38.4955C59.7185 38.4215 59.7393 38.3495 59.7752 38.285L59.9517 37.9199C60.0235 37.778 60.0728 37.6256 60.0979 37.4681C60.1223 37.3105 60.1716 37.1579 60.244 37.0163C60.2513 36.8663 60.293 36.7201 60.3657 36.5893C60.4389 36.4 60.5285 36.2177 60.6336 36.0447L60.9623 35.5001C61.0291 35.3368 61.131 35.1909 61.2606 35.073C61.2927 35.018 61.3134 34.957 61.3215 34.8935C61.3294 34.8301 61.3501 34.769 61.3823 34.7141L61.5589 34.3489C61.6288 34.2439 61.6879 34.132 61.7354 34.0147C61.7826 33.8973 61.8417 33.7853 61.9119 33.6805C61.9666 33.4952 62.0697 33.3283 62.2102 33.1978C62.2627 33.1063 62.2841 32.9997 62.2711 32.8946C62.192 32.8141 62.1494 32.7522 62.1494 32.7151C62.1359 32.6099 62.1573 32.5032 62.2102 32.4118C62.2508 32.3706 62.3097 32.3706 62.3868 32.4118C62.4233 32.4118 62.4842 32.3747 62.5633 32.288C62.626 32.2291 62.6758 32.1574 62.7094 32.0776C62.7431 31.9978 62.7929 31.9261 62.8555 31.8672C62.9882 31.7366 63.1084 31.5937 63.2147 31.4402C63.297 31.305 63.3974 31.1821 63.513 31.075C63.701 30.8942 63.8611 30.6856 63.9878 30.4561C64.1042 30.2577 64.2674 30.0918 64.4627 29.9734C64.6139 29.8657 64.7546 29.7435 64.8827 29.6083C65.0574 29.3678 65.3094 29.197 65.5949 29.1255H65.7715C65.8035 29.1275 65.8355 29.1231 65.8658 29.1125C65.8961 29.1019 65.9241 29.0853 65.948 29.0637C66.0794 29.0028 66.2006 28.9213 66.3072 28.8223C66.5046 28.6479 66.7261 28.5041 66.9647 28.3953C67.0935 28.3218 67.2372 28.2794 67.3847 28.2715H67.7439L68.103 28.451C68.1907 28.4981 68.2708 28.5586 68.3404 28.6304L68.6996 28.9956C68.7684 29.0684 68.8486 29.129 68.937 29.1751C69.0921 29.2527 69.2339 29.3551 69.3571 29.4783L69.7162 29.8434C69.7954 29.9239 69.838 29.9858 69.838 30.0229C69.838 30.0601 69.9171 30.2581 69.9597 30.3571C70.0006 30.4636 70.0213 30.577 70.0206 30.6913C70.0444 30.7132 70.0723 30.73 70.1027 30.7407C70.133 30.7513 70.1651 30.7556 70.1972 30.7532C70.3285 30.6922 70.4497 30.6108 70.5563 30.5118C70.6355 30.4314 70.6963 30.3881 70.7329 30.3881C70.7953 30.38 70.8554 30.359 70.9094 30.3262L71.2686 29.961C71.2828 29.943 71.3009 29.9284 71.3215 29.9184C71.342 29.9083 71.3645 29.9031 71.3873 29.9031C71.4101 29.9031 71.4326 29.9083 71.4531 29.9184C71.4737 29.9284 71.4917 29.943 71.506 29.961C71.5423 29.9974 71.5731 30.0392 71.5973 30.0848C71.6321 30.1406 71.6832 30.1839 71.7434 30.2086C71.796 30.2394 71.8399 30.2836 71.8708 30.3367C71.9017 30.3898 71.9187 30.4501 71.9199 30.5118V30.6913C71.9991 30.7718 72.06 30.8151 72.0965 30.8151C72.1258 30.8271 72.1585 30.8271 72.1878 30.8151C72.2171 30.8031 72.2498 30.8031 72.2791 30.8151C72.3084 30.8271 72.3411 30.8271 72.3704 30.8151C72.3997 30.8031 72.4325 30.8031 72.4617 30.8151C72.5409 30.8151 72.5835 30.8151 72.5835 30.877C72.5897 31.0018 72.5689 31.1264 72.5226 31.2421C72.5345 31.2719 72.5345 31.3052 72.5226 31.335C72.5108 31.3647 72.5108 31.398 72.5226 31.4278C72.5203 31.4603 72.5245 31.493 72.535 31.5239C72.5454 31.5547 72.5619 31.5831 72.5835 31.6073C72.62 31.6877 72.6626 31.7806 72.7053 31.8796C72.7479 31.9786 72.7844 32.0714 72.827 32.1519C72.8737 32.3902 72.8941 32.6331 72.8879 32.876C72.8898 32.9085 72.8855 32.9411 72.875 32.9719C72.8646 33.0027 72.8483 33.0311 72.827 33.0555C72.7492 33.1609 72.7066 33.2888 72.7053 33.4206C72.7016 33.552 72.6591 33.6792 72.5835 33.7857C72.5072 34.0363 72.4073 34.2788 72.2852 34.5098C72.2385 34.6254 72.2177 34.7502 72.2243 34.875C72.2263 34.9075 72.2219 34.9401 72.2115 34.9709C72.201 35.0017 72.1847 35.0301 72.1634 35.0545C72.123 35.1393 72.1022 35.2325 72.1026 35.3268C72.103 35.4211 72.0821 35.5142 72.0417 35.5991C72.0013 35.6839 71.9804 35.7771 71.9808 35.8714C71.9799 35.9228 71.9685 35.9735 71.9476 36.0203C71.9267 36.0671 71.8965 36.1091 71.8591 36.1437C71.8186 36.2286 71.7978 36.3217 71.7982 36.416C71.7972 36.4674 71.7859 36.5181 71.765 36.5649C71.744 36.6118 71.7139 36.6538 71.6764 36.6883C71.6197 36.8791 71.54 37.0621 71.439 37.2329C71.3723 37.4074 71.3312 37.5909 71.3173 37.7775C71.3192 37.8101 71.3149 37.8427 71.3044 37.8735C71.294 37.9043 71.2777 37.9327 71.2564 37.957C71.1836 38.1016 71.1245 38.2529 71.0799 38.4088C71.0347 38.5646 70.9756 38.7158 70.9033 38.8606C70.8821 38.885 70.8657 38.9134 70.8553 38.9442C70.8448 38.975 70.8405 39.0076 70.8424 39.0401C70.8274 39.1691 70.786 39.2935 70.7207 39.4052L70.5442 39.7704C70.4974 39.886 70.4767 40.0107 70.4833 40.1355V40.6801C70.5867 40.6938 70.6917 40.672 70.7816 40.6182L71.4938 40.0736L72.0295 39.529C72.0988 39.4567 72.1789 39.3961 72.2669 39.3495C72.4927 39.2208 72.6979 39.058 72.8757 38.8668L73.2349 38.5016C73.2735 38.4612 73.3199 38.4293 73.3713 38.408C73.4226 38.3867 73.4777 38.3765 73.5332 38.3779C73.5886 38.3793 73.6437 38.369 73.695 38.3477C73.7464 38.3264 73.7928 38.2945 73.8315 38.2541C73.8946 38.1932 73.9692 38.1458 74.0508 38.115C74.1324 38.0842 74.2193 38.0704 74.3063 38.0746C74.3428 38.0746 74.4037 38.0375 74.4828 37.9508L74.842 37.5857C74.9634 37.4607 75.0642 37.3164 75.1403 37.1587C75.1575 37.1018 75.1882 37.0501 75.2295 37.008C75.2709 36.966 75.3218 36.9348 75.3777 36.9173C75.4336 36.8998 75.4845 36.8686 75.5259 36.8266C75.5672 36.7845 75.5979 36.7328 75.6151 36.6759L75.7917 36.3108C75.8226 36.2448 75.8637 36.1842 75.9134 36.1313C75.9629 36.0783 76.004 36.0177 76.0352 35.9518C76.1174 35.8166 76.2178 35.6937 76.3335 35.5867C76.4626 35.4684 76.5644 35.3226 76.6317 35.1597C76.6774 35.0701 76.737 34.9885 76.8083 34.9183C76.8874 34.8379 76.9483 34.7945 76.9848 34.7945C77.0388 34.8275 77.0989 34.8485 77.1614 34.8564C77.2237 34.865 77.2837 34.886 77.3379 34.9183L77.8006 34.2252ZM68.7422 33.4392V33.2597C68.6996 33.2226 68.6753 33.1978 68.6509 33.1978C68.6266 33.1978 68.6022 33.1978 68.5596 33.1359L68.2004 32.7708C68.1517 32.7277 68.0884 32.7055 68.0239 32.7089C67.9553 32.7131 67.8882 32.7311 67.8266 32.7619C67.7649 32.7927 67.7099 32.8357 67.6647 32.8884L67.3969 33.1607C67.2968 33.2627 67.2071 33.3746 67.129 33.4949L66.2341 34.4046C66.2102 34.4262 66.1822 34.4428 66.1519 34.4535C66.1216 34.4641 66.0896 34.4685 66.0576 34.4665C66.0441 34.3614 66.0656 34.2546 66.1185 34.1633C66.1648 34.0475 66.1856 33.9229 66.1794 33.7981C66.0913 33.8447 66.0112 33.9053 65.9419 33.9776L65.7654 34.3427L65.5889 34.5222C65.5001 34.6151 65.4206 34.7167 65.3514 34.8255L65.114 35.1906C64.9963 35.3515 64.8766 35.5021 64.7549 35.6424C64.6288 35.7962 64.5281 35.9696 64.4566 36.1561V36.3356C64.4595 36.3904 64.4435 36.4446 64.4112 36.4887C64.379 36.5328 64.3326 36.564 64.28 36.5769C64.1989 36.6594 64.1989 36.7193 64.28 36.7564V36.9359C64.2111 37.0737 64.152 37.2164 64.1035 37.3629C64.1035 37.4062 64.0609 37.4619 63.9817 37.5424C63.9465 37.5722 63.9176 37.609 63.8967 37.6504C63.8757 37.6919 63.8633 37.7373 63.86 37.7837C63.7837 38.0343 63.6838 38.2768 63.5617 38.5078C63.4391 38.7386 63.3392 38.9812 63.2634 39.2319C63.2115 39.3882 63.1309 39.5331 63.026 39.659C62.9862 39.6982 62.9548 39.7454 62.9339 39.7976C62.9129 39.8498 62.9028 39.9059 62.9042 39.9622C62.9105 40.087 62.8897 40.2116 62.8434 40.3274C62.7688 40.4011 62.7179 40.496 62.6972 40.5997C62.6762 40.7032 62.6254 40.798 62.5511 40.872C62.4734 40.9774 62.4307 41.1053 62.4294 41.2371C62.4308 41.2935 62.4207 41.3495 62.3997 41.4017C62.3788 41.4539 62.3474 41.5011 62.3076 41.5404C62.2043 41.7728 62.1247 42.0154 62.0702 42.2645C62.0702 42.3449 62.0702 42.3882 62.1311 42.3882H62.192L62.3685 42.2088C62.4203 42.1629 62.4626 42.1069 62.4929 42.0442C62.5232 41.9816 62.541 41.9134 62.5451 41.8436C62.5599 41.7145 62.6014 41.5901 62.6668 41.4785C62.764 41.3699 62.8441 41.2468 62.9042 41.1133C62.9769 40.9609 63.0668 40.8176 63.1721 40.6863C63.277 40.5547 63.3669 40.4115 63.4399 40.2593C63.4639 40.2377 63.4918 40.2211 63.5221 40.2104C63.5524 40.1998 63.5845 40.1954 63.6165 40.1974C63.6622 40.194 63.7068 40.1814 63.7476 40.1601C63.7884 40.1388 63.8245 40.1094 63.8539 40.0736C64.1299 39.628 64.3328 39.3041 64.4627 39.102C64.5925 38.8998 64.8117 38.5759 65.1201 38.1303C65.1993 38.0065 65.2784 37.9013 65.3575 37.7961C65.4367 37.6909 65.5158 37.5857 65.5949 37.4619C65.7046 37.1902 65.891 36.9576 66.1306 36.7935L66.3072 36.614C66.3782 36.5436 66.4378 36.4621 66.4837 36.3727L66.6055 36.1313C66.7114 35.9775 66.8317 35.8345 66.9647 35.7043C67.0355 35.611 67.0948 35.5091 67.1412 35.401L67.5004 34.8564C67.6428 34.6613 67.8017 34.479 67.9752 34.3118C68.0907 34.2047 68.1911 34.0818 68.2735 33.9467C68.3191 33.857 68.3787 33.7755 68.45 33.7053C68.5246 33.63 68.5938 33.5493 68.657 33.4639C68.7204 33.3787 68.7896 33.298 68.864 33.2226C68.8852 33.1982 68.9016 33.1698 68.912 33.139C68.9225 33.1082 68.9268 33.0756 68.9249 33.0431L68.7422 33.4392ZM62.5451 32.7708C62.5368 32.7698 62.5285 32.7707 62.5207 32.7735C62.5128 32.7762 62.5057 32.7807 62.4999 32.7867C62.494 32.7927 62.4895 32.7999 62.4868 32.8078C62.4841 32.8158 62.4832 32.8243 62.4842 32.8327V32.7708H62.5451ZM62.6668 32.4056C62.675 32.4066 62.6834 32.4057 62.6912 32.403C62.6991 32.4002 62.7062 32.3957 62.712 32.3897C62.7179 32.3838 62.7223 32.3765 62.7251 32.3686C62.7278 32.3606 62.7287 32.3521 62.7277 32.3437L62.6668 32.4056ZM65.5889 34.3427C65.5971 34.3437 65.6054 34.3428 65.6133 34.3401C65.6211 34.3373 65.6282 34.3328 65.6341 34.3268C65.6399 34.3209 65.6444 34.3136 65.6471 34.3057C65.6498 34.2977 65.6507 34.2892 65.6497 34.2808L65.5889 34.3427ZM66.2463 32.8265C66.2545 32.8275 66.2629 32.8266 66.2707 32.8238C66.2786 32.821 66.2857 32.8165 66.2915 32.8106C66.2974 32.8046 66.3018 32.7974 66.3046 32.7894C66.3073 32.7814 66.3082 32.773 66.3072 32.7646L66.2463 32.8265ZM66.4837 32.5851C66.467 32.5817 66.4498 32.5826 66.4335 32.5876C66.4172 32.5926 66.4023 32.6016 66.3903 32.6139C66.3782 32.6261 66.3694 32.6412 66.3644 32.6578C66.3595 32.6744 66.3586 32.6919 66.362 32.7089C66.3776 32.7109 66.3936 32.7092 66.4085 32.704C66.4234 32.6989 66.437 32.6903 66.4482 32.6789C66.4593 32.6676 66.4678 32.6538 66.4729 32.6386C66.478 32.6234 66.4796 32.6072 66.4776 32.5913L66.4837 32.5851ZM66.4837 33.2535C66.467 33.2501 66.4498 33.251 66.4335 33.256C66.4172 33.261 66.4023 33.27 66.3903 33.2823C66.3782 33.2945 66.3694 33.3096 66.3644 33.3262C66.3595 33.3427 66.3586 33.3603 66.362 33.3773C66.3782 33.3795 66.3948 33.3778 66.4103 33.3723C66.4257 33.3668 66.4397 33.3576 66.451 33.3455C66.4623 33.3334 66.4706 33.3188 66.4752 33.3028C66.4799 33.2868 66.4807 33.2699 66.4776 33.2535H66.4837ZM66.6603 32.4056C66.6436 32.4022 66.6263 32.4031 66.61 32.4081C66.5937 32.4131 66.5789 32.4222 66.5668 32.4344C66.5548 32.4467 66.5459 32.4617 66.541 32.4783C66.536 32.4949 66.5352 32.5124 66.5385 32.5294C66.5548 32.5317 66.5713 32.53 66.5868 32.5244C66.6023 32.5189 66.6162 32.5097 66.6275 32.4976C66.6388 32.4855 66.6471 32.4709 66.6518 32.4549C66.6564 32.4389 66.6572 32.422 66.6542 32.4056H66.6603ZM66.6603 33.074C66.6436 33.0706 66.6263 33.0715 66.61 33.0765C66.5937 33.0815 66.5789 33.0906 66.5668 33.1028C66.5548 33.115 66.5459 33.1301 66.541 33.1467C66.536 33.1633 66.5352 33.1808 66.5385 33.1978C66.5548 33.2001 66.5713 33.1983 66.5868 33.1928C66.6023 33.1873 66.6162 33.1781 66.6275 33.166C66.6388 33.1539 66.6471 33.1393 66.6518 33.1233C66.6564 33.1073 66.6572 33.0904 66.6542 33.074H66.6603ZM66.7211 32.288C66.7044 32.2847 66.6872 32.2855 66.6709 32.2905C66.6546 32.2955 66.6397 32.3046 66.6277 32.3168C66.6157 32.3291 66.6068 32.3441 66.6018 32.3607C66.5969 32.3773 66.5961 32.3948 66.5994 32.4118C66.6156 32.4141 66.6322 32.4124 66.6477 32.4068C66.6631 32.4013 66.6771 32.3921 66.6884 32.38C66.6997 32.3679 66.708 32.3533 66.7126 32.3373C66.7173 32.3213 66.7181 32.3044 66.7151 32.288H66.7211ZM66.7211 32.9564C66.7129 32.9554 66.7046 32.9564 66.6967 32.9591C66.6889 32.9619 66.6818 32.9664 66.6759 32.9724C66.6701 32.9783 66.6656 32.9856 66.6629 32.9935C66.6602 33.0015 66.6593 33.01 66.6603 33.0183L66.7211 32.9564ZM66.8977 32.1086C66.881 32.1052 66.8637 32.106 66.8474 32.1111C66.8311 32.1161 66.8163 32.1251 66.8042 32.1373C66.7922 32.1496 66.7833 32.1647 66.7784 32.1812C66.7734 32.1978 66.7726 32.2154 66.7759 32.2323C66.7933 32.2361 66.8112 32.2353 66.8282 32.23C66.8451 32.2247 66.8604 32.2151 66.8726 32.202C66.8849 32.189 66.8936 32.173 66.898 32.1555C66.9023 32.1381 66.9023 32.1198 66.8977 32.1024V32.1086ZM67.0742 31.9291C67.0575 31.9257 67.0403 31.9266 67.024 31.9316C67.0077 31.9366 66.9928 31.9456 66.9808 31.9579C66.9687 31.9701 66.9599 31.9852 66.9549 32.0018C66.95 32.0183 66.9491 32.0359 66.9525 32.0529C66.9698 32.0567 66.9878 32.0559 67.0047 32.0506C67.0216 32.0452 67.037 32.0356 67.0492 32.0226C67.0614 32.0095 67.0701 31.9935 67.0745 31.9761C67.0789 31.9586 67.0788 31.9403 67.0742 31.9229V31.9291ZM67.2508 31.6877C67.2156 31.7176 67.1866 31.7543 67.1657 31.7958C67.1448 31.8373 67.1323 31.8826 67.129 31.9291C67.161 31.9311 67.1931 31.9267 67.2234 31.916C67.2536 31.9054 67.2816 31.8888 67.3056 31.8672C67.3461 31.8259 67.3461 31.7661 67.3056 31.6877H67.2508ZM68.9188 32.2323C68.9197 32.224 68.9188 32.2155 68.9161 32.2075C68.9134 32.1996 68.909 32.1923 68.9031 32.1864C68.8972 32.1804 68.8901 32.1759 68.8823 32.1731C68.8745 32.1704 68.8661 32.1695 68.8579 32.1705L68.9188 32.2323ZM68.9188 31.5083C68.9178 31.5166 68.9187 31.5251 68.9214 31.5331C68.9241 31.541 68.9286 31.5483 68.9344 31.5542C68.9403 31.5602 68.9474 31.5647 68.9552 31.5675C68.9631 31.5702 68.9714 31.5711 68.9796 31.5701L68.9188 31.5083ZM69.1562 32.746C69.1562 32.6656 69.077 32.5851 68.9188 32.5047V32.5665C68.9972 32.6869 69.0986 32.7901 69.2171 32.8698H69.2779L69.1562 32.746ZM70.532 40.7234C70.5402 40.7244 70.5485 40.7235 70.5564 40.7208C70.5642 40.718 70.5713 40.7135 70.5772 40.7075C70.583 40.7016 70.5875 40.6943 70.5902 40.6864C70.5929 40.6784 70.5938 40.6699 70.5929 40.6616L70.532 40.7234Z" fill="#F91616"/>
<path d="M110.497 1.33726C110.304 1.57092 110.208 1.75581 110.065 2.02422C109.921 2.29234 109.752 2.54527 109.56 2.77926C109.478 2.86463 109.417 2.96859 109.383 3.08251C109.348 3.19615 109.288 3.29997 109.206 3.38576C109.132 3.45954 109.081 3.55444 109.06 3.65807C109.039 3.76158 108.988 3.85637 108.914 3.93038L108.738 4.10986C108.662 4.30399 108.562 4.48712 108.439 4.65448C108.311 4.82974 108.191 5.01152 108.08 5.1991C108.009 5.26933 107.949 5.35084 107.904 5.44046C107.764 5.69417 107.606 5.93628 107.429 6.16456L106.893 7.07431C106.743 7.22141 106.621 7.3956 106.534 7.58799C106.446 7.78571 106.346 7.9779 106.236 8.16355L106.059 8.52869L105.883 8.89384C105.804 8.97429 105.761 9.03618 105.761 9.07331C105.681 9.15585 105.63 9.26217 105.615 9.37657C105.599 9.49071 105.547 9.59678 105.469 9.67982C105.394 9.7536 105.343 9.84849 105.323 9.95213C105.302 10.0556 105.251 10.1504 105.176 10.2244C105.134 10.2678 105.116 10.2925 105.116 10.3173C105.116 10.342 105.116 10.3668 105.055 10.4101C104.895 10.6389 104.754 10.8812 104.635 11.1342C104.562 11.2864 104.472 11.4296 104.367 11.5612C104.261 11.6924 104.172 11.8358 104.099 11.9883C103.993 12.2165 103.851 12.4256 103.679 12.6071L103.502 12.7866C103.428 12.8604 103.377 12.9553 103.356 13.0589C103.335 13.1624 103.284 13.2572 103.21 13.3312C103.179 13.3971 103.138 13.4577 103.088 13.5107C103.039 13.5636 102.998 13.6242 102.967 13.6902C102.892 13.8031 102.832 13.926 102.79 14.0553C102.755 14.169 102.695 14.2728 102.614 14.3586L102.437 14.7237C102.157 15.2477 101.899 15.7635 101.664 16.2709C101.429 16.7784 101.161 17.2962 100.86 17.8243C100.779 17.9852 100.7 18.1358 100.623 18.2761C100.533 18.4328 100.433 18.5837 100.325 18.7279C100.303 18.7523 100.287 18.7807 100.277 18.8115C100.266 18.8423 100.262 18.8749 100.264 18.9074C100.266 18.9399 100.261 18.9725 100.251 19.0033C100.241 19.0341 100.224 19.0625 100.203 19.0869C100.132 19.1571 100.072 19.2386 100.026 19.3282L99.9046 19.5696C99.8896 19.6986 99.8481 19.823 99.7829 19.9347L98.5288 22.6578C98.4543 22.7316 98.4034 22.8265 98.3827 22.9301C98.3617 23.0336 98.3108 23.1284 98.2366 23.2024L98.0783 23.3943V23.5738L97.9018 24.1184C97.8592 24.1988 97.8227 24.2917 97.78 24.3907C97.7374 24.4897 97.7009 24.5826 97.6583 24.663C97.6157 24.7435 97.5122 24.9786 97.4513 25.1148C97.3853 25.2804 97.3364 25.4526 97.3052 25.6285L97.1287 25.9936L96.593 26.9034C96.4704 27.1342 96.3705 27.3767 96.2947 27.6275L96.1181 27.9926C96.039 28.1968 95.9599 28.3887 95.8807 28.5682C95.8016 28.7476 95.7224 28.9395 95.6433 29.1437C95.5228 29.3125 95.4226 29.4953 95.345 29.6883C95.2659 29.8493 95.1989 30.004 95.138 30.1401C95.0775 30.2865 95.0287 30.4376 94.9919 30.5919C94.9919 30.6352 94.9493 30.6909 94.8702 30.7714C94.8508 30.8512 94.8139 30.9255 94.7622 30.9887C94.7106 31.052 94.6455 31.1025 94.5719 31.1365C94.4501 31.217 94.3953 31.2974 94.3953 31.3779C94.3964 31.4342 94.3861 31.4901 94.3652 31.5423C94.3442 31.5944 94.3131 31.6417 94.2736 31.6812L94.0971 31.8606C94.0453 31.9065 94.003 31.9625 93.9727 32.0251C93.9423 32.0878 93.9246 32.156 93.9205 32.2258V32.4053C93.8538 32.5797 93.8127 32.7632 93.7988 32.9499C93.8013 33.3077 93.6733 33.6539 93.4396 33.9215C93.3998 33.9608 93.3685 34.008 93.3475 34.0602C93.3266 34.1124 93.3165 34.1684 93.3178 34.2248C93.3241 34.3495 93.3033 34.4742 93.257 34.5899C93.2165 34.6748 93.1957 34.7679 93.1961 34.8622C93.1965 34.9565 93.1757 35.0497 93.1352 35.1345C93.0993 35.199 93.0785 35.271 93.0743 35.3449C93.0698 35.4188 93.049 35.4907 93.0135 35.5554L92.8369 36.1C92.8227 36.3452 92.7819 36.588 92.7152 36.8241C92.7117 36.9179 92.6911 37.0103 92.6543 37.0964C92.6171 37.1824 92.5964 37.2748 92.5934 37.3687C92.5508 37.4492 92.5143 37.542 92.4717 37.641C92.4291 37.74 92.3925 37.8329 92.3499 37.9133C92.3618 37.9431 92.3618 37.9764 92.3499 38.0062C92.3381 38.0359 92.3381 38.0692 92.3499 38.099C92.3073 38.1794 92.2708 38.2723 92.2282 38.3713C92.1856 38.4703 92.149 38.5631 92.1064 38.6436C92.0638 38.7241 91.9481 38.9592 91.869 39.0954C91.7899 39.2315 91.7107 39.3863 91.6316 39.5472C91.5858 39.6367 91.5262 39.7182 91.455 39.7885C91.4118 39.838 91.3787 39.8959 91.3578 39.9586C91.3369 40.0213 91.3285 40.0876 91.3333 40.1537C91.2542 40.2341 91.2115 40.296 91.2115 40.3332V40.5126C91.0533 40.6323 91.0533 40.7334 91.2115 40.8159C91.2229 41.0055 91.1806 41.1945 91.0898 41.3605C91.0718 41.3758 91.0571 41.3947 91.0467 41.416C91.0362 41.4372 91.0301 41.4605 91.0289 41.4843C91.0277 41.5081 91.0216 41.5313 91.0112 41.5526C91.0007 41.5739 90.986 41.5928 90.968 41.6081C90.7506 41.8437 90.6048 42.1381 90.548 42.4559C90.4706 42.6049 90.4289 42.7703 90.4262 42.9387C90.4112 43.0677 90.3698 43.1921 90.3045 43.3038V43.4833C90.3066 43.628 90.2861 43.7722 90.2436 43.9103L90.1219 44.2755C90.0792 44.3559 90.0427 44.4487 90.0001 44.5478C89.9588 44.6541 89.9381 44.7676 89.9392 44.882V45.0552C89.8738 45.1669 89.8323 45.2913 89.8175 45.4204V45.5999C89.7248 45.8291 89.6832 46.0764 89.6957 46.324V46.5034C89.6163 46.6197 89.5738 46.758 89.574 46.8995C89.5682 47.0576 89.5265 47.2123 89.4522 47.3513L89.2757 47.8959C89.2352 47.9808 89.2144 48.0739 89.2148 48.1682C89.2152 48.2625 89.1944 48.3557 89.1539 48.4405C89.118 48.505 89.0972 48.577 89.0931 48.651C89.0883 48.7248 89.0675 48.7967 89.0322 48.8614V49.0409C89.0351 49.1885 89.0039 49.3348 88.9409 49.4679C88.8834 49.5858 88.8346 49.7078 88.7948 49.833C88.7218 50.0314 88.6807 50.2403 88.673 50.4519C88.6713 50.5361 88.6505 50.6187 88.6121 50.6933C88.5733 50.7677 88.5525 50.8504 88.5513 50.9346C88.5306 51.1001 88.4897 51.2622 88.4295 51.4174C88.3891 51.5022 88.3683 51.5954 88.3686 51.6897C88.369 51.784 88.3482 51.8771 88.3078 51.962C88.268 52.0013 88.2366 52.0485 88.2157 52.1007C88.1947 52.1529 88.1846 52.2089 88.186 52.2653C88.1887 52.3697 88.1678 52.4734 88.1251 52.5685C88.1036 52.5927 88.0871 52.6211 88.0766 52.6519C88.0661 52.6828 88.0619 52.7154 88.0643 52.748C88.0474 53.0351 87.9432 53.3098 87.766 53.534C87.6491 53.6509 87.5668 53.7989 87.5285 53.961C87.4556 54.1593 87.4145 54.3683 87.4068 54.5799C87.4051 54.664 87.3843 54.7467 87.3459 54.8212C87.3071 54.8957 87.2863 54.9784 87.285 55.0626C87.2911 55.1874 87.2703 55.312 87.2242 55.4278C87.1773 55.5433 87.1565 55.6681 87.1633 55.7929C87.1427 55.9583 87.1018 56.1205 87.0415 56.2756C87.0027 56.35 86.9819 56.4328 86.9807 56.517C86.9788 56.6011 86.9579 56.6837 86.9198 56.7584C86.8729 56.8739 86.8521 56.9987 86.8589 57.1235V57.4886C86.8649 57.6134 86.8442 57.738 86.798 57.8538C86.7511 57.9693 86.7303 58.0941 86.7372 58.2189C86.7435 58.4025 86.723 58.5861 86.6763 58.7635C86.6294 58.8791 86.6086 59.0039 86.6154 59.1287C86.6123 59.297 86.5706 59.4623 86.4937 59.6114C86.4721 59.6356 86.4556 59.664 86.4451 59.6948C86.4347 59.7257 86.4305 59.7583 86.4328 59.7909C86.4388 59.9156 86.418 60.0402 86.3719 60.156C86.3504 60.1802 86.3338 60.2086 86.3234 60.2394C86.3129 60.2703 86.3087 60.303 86.311 60.3355C86.3172 60.4603 86.2965 60.5849 86.2502 60.7006C86.2143 60.7651 86.1934 60.8371 86.1893 60.9111C86.1762 60.9943 86.1328 61.0695 86.0675 61.1215C85.9927 61.195 85.9417 61.29 85.9214 61.3938C85.9 61.4972 85.8492 61.5919 85.7753 61.6661C85.6536 61.7899 85.5988 61.8703 85.5988 61.9075C85.5988 61.9446 85.5196 62.1365 85.477 62.2417C85.4355 62.348 85.4149 62.4615 85.4161 62.5759C85.4018 62.821 85.361 63.0639 85.2944 63.3V63.4794C85.3048 63.6428 85.2841 63.8067 85.2335 63.9622C85.1866 64.0777 85.1658 64.2025 85.1726 64.3273V64.6924C85.0797 64.9216 85.0381 65.169 85.0509 65.4165V65.9612C85.0529 65.9937 85.0485 66.0263 85.0381 66.0571C85.0276 66.0879 85.0113 66.1163 84.99 66.1406C84.9233 66.3151 84.8822 66.4986 84.8683 66.6853C84.8746 66.8689 84.8541 67.0524 84.8074 67.2299C84.7605 67.3454 84.7397 67.4702 84.7465 67.595V68.6843C84.7528 68.8679 84.7323 69.0514 84.6856 69.2289C84.6641 69.253 84.6476 69.2814 84.6371 69.3123C84.6267 69.3431 84.6224 69.3758 84.6248 69.4083V70.1324C84.6257 70.2105 84.6035 70.287 84.5612 70.3521C84.5189 70.4172 84.4583 70.4679 84.3873 70.4976H84.2108L83.943 70.3738L83.6751 70.25C83.5955 70.1681 83.526 70.0767 83.4681 69.9777C83.407 69.8774 83.3753 69.7615 83.3768 69.6435V69.5816C83.3601 69.5782 83.3428 69.5791 83.3265 69.5841C83.3102 69.5891 83.2954 69.5982 83.2834 69.6104C83.2713 69.6227 83.2624 69.6377 83.2575 69.6543C83.2526 69.6709 83.2517 69.6884 83.2551 69.7054C83.257 69.7379 83.2527 69.7705 83.2422 69.8013C83.2318 69.8321 83.2154 69.8605 83.1942 69.8849C83.1536 70.0045 83.0542 70.0252 82.8959 69.9468H82.7194C82.6402 69.8663 82.5976 69.8044 82.5976 69.7673V67.954C82.5863 67.7905 82.607 67.6265 82.6585 67.4712C82.7008 67.4217 82.7227 67.3573 82.7194 67.2918C82.718 67.2354 82.7281 67.1794 82.749 67.1272C82.77 67.075 82.8013 67.0278 82.8411 66.9885C82.8977 66.9334 82.9426 66.8671 82.973 66.7936C83.0033 66.7202 83.0185 66.6412 83.0176 66.5615V66.382C83.0108 66.2572 83.0316 66.1324 83.0785 66.0169C83.1574 65.7822 83.1574 65.5275 83.0785 65.2928C83.0377 65.208 83.0164 65.1149 83.0164 65.0205C83.0164 64.9261 83.0377 64.8329 83.0785 64.7481L83.2551 64.2035C83.2695 64.0744 83.311 63.9499 83.3768 63.8384C83.4166 63.6591 83.4166 63.4731 83.3768 63.2938C83.3168 63.1843 83.2804 63.0632 83.2699 62.9384C83.2594 62.8135 83.2751 62.6879 83.3159 62.5697C83.3822 62.3951 83.4232 62.2116 83.4377 62.0251C83.4308 61.9002 83.4517 61.7755 83.4986 61.6599C83.5447 61.5441 83.5655 61.4195 83.5594 61.2948C83.5571 61.2622 83.5613 61.2295 83.5718 61.1987C83.5822 61.1678 83.5988 61.1395 83.6203 61.1153C83.667 60.9378 83.6875 60.7543 83.6812 60.5707C83.6952 60.384 83.7362 60.2005 83.8029 60.0261V59.8466C83.8052 59.5945 83.8656 59.3465 83.9795 59.1225C84.0961 58.9659 84.1583 58.7743 84.156 58.5779V58.3984C84.2022 58.2826 84.2229 58.158 84.2169 58.0333C84.2056 57.8698 84.2263 57.7058 84.2778 57.5505C84.3175 57.3712 84.3175 57.1852 84.2778 57.0059C84.2178 56.8965 84.1814 56.7753 84.1709 56.6505C84.1604 56.5257 84.176 56.4 84.2169 56.2818C84.2831 56.1072 84.3241 55.9238 84.3386 55.7372C84.3318 55.6124 84.3526 55.4876 84.3995 55.372C84.4967 55.1815 84.5389 54.967 84.5213 54.7532V54.5737C84.6136 54.3443 84.6552 54.0971 84.643 53.8496C84.6577 53.7205 84.6992 53.596 84.7648 53.4845V53.305C84.7851 53.0282 84.8663 52.7597 85.0022 52.519L85.1787 52.1539L85.3553 51.6092C85.354 51.4949 85.3747 51.3813 85.4161 51.275C85.4527 51.176 85.4953 51.0832 85.5379 51.0027L85.6597 50.6376C85.699 50.52 85.7195 50.3967 85.7205 50.2724C85.7143 50.2578 85.7111 50.242 85.7111 50.226C85.7111 50.2101 85.7143 50.1943 85.7205 50.1796C85.7324 50.1498 85.7324 50.1165 85.7205 50.0868V49.9073C85.7502 49.819 85.7502 49.7233 85.7205 49.635C85.6899 49.5469 85.6899 49.4508 85.7205 49.3627C85.7711 49.2072 85.7918 49.0433 85.7814 48.88V48.7005C85.8275 48.5847 85.8483 48.4601 85.8423 48.3353V47.9702C85.8309 47.8068 85.8516 47.6427 85.9032 47.4875C85.9244 47.4631 85.9407 47.4347 85.9512 47.4039C85.9616 47.3731 85.966 47.3405 85.964 47.308C85.9617 47.2754 85.9659 47.2428 85.9764 47.2119C85.9868 47.1811 86.0034 47.1527 86.0249 47.1285C86.117 46.8991 86.1586 46.6519 86.1467 46.4044C86.1443 46.3719 86.1485 46.3392 86.159 46.3083C86.1695 46.2775 86.186 46.2491 86.2075 46.2249C86.2845 46.0758 86.3262 45.9106 86.3293 45.7422C86.3307 45.658 86.3516 45.5754 86.3902 45.5008C86.4285 45.4263 86.4494 45.3436 86.451 45.2595C86.4542 45.1656 86.4749 45.0732 86.5119 44.9872C86.5484 44.8881 86.5911 44.7953 86.6337 44.7149C86.6763 44.6344 86.7128 44.5416 86.7554 44.4426C86.798 44.3435 86.8346 44.2507 86.8772 44.1702C86.9951 44.0839 87.0809 43.9596 87.1207 43.8175C87.122 43.6857 87.1646 43.5578 87.2424 43.4523C87.25 43.3023 87.2917 43.1562 87.3642 43.0253C87.4453 42.8644 87.5143 42.7138 87.5712 42.5735C87.632 42.4312 87.699 42.2826 87.7781 42.1217C87.8207 41.9836 87.8413 41.8394 87.839 41.6947V41.212C87.9081 41.111 87.9577 40.9976 87.9851 40.8778C88.0118 40.7577 88.0615 40.6442 88.1312 40.5436V39.6771L88.6669 38.5879L88.8435 38.4084C88.9177 38.3344 88.9685 38.2396 88.9896 38.1361C89.0102 38.0325 89.0612 37.9376 89.1357 37.8638L89.4948 37.1397C89.5314 37.0159 89.574 36.9107 89.6166 36.8055C89.6592 36.7003 89.6957 36.5951 89.7383 36.4713C89.781 36.3475 89.8175 36.298 89.8601 36.199C89.9027 36.1 89.9392 36.0072 89.9818 35.9267C90.0205 35.8497 90.0511 35.7688 90.0732 35.6853C90.0947 35.6017 90.1254 35.5207 90.1645 35.444C90.1645 35.4068 90.201 35.345 90.2862 35.2645C90.4367 35.0402 90.5574 34.7967 90.6454 34.5404C90.6454 34.5033 90.6819 34.4414 90.7671 34.3609L90.9437 33.9958C90.9758 33.9408 90.9965 33.8797 91.0046 33.8163C91.0125 33.7529 91.0332 33.6918 91.0654 33.6368C91.1118 33.5211 91.1325 33.3965 91.1263 33.2717V32.7271C91.1243 32.6946 91.1287 32.662 91.1392 32.6312C91.1496 32.6004 91.1659 32.572 91.1872 32.5476C91.2267 32.5081 91.2578 32.4608 91.2788 32.4087C91.2997 32.3566 91.31 32.3006 91.3089 32.2443C91.3076 32.188 91.3177 32.132 91.3386 32.0798C91.3596 32.0276 91.3909 31.9804 91.4307 31.9411C91.4711 31.8562 91.4919 31.7631 91.4916 31.6688C91.4925 31.6173 91.5038 31.5667 91.5248 31.5198C91.5457 31.473 91.5759 31.431 91.6133 31.3965C91.614 31.1774 91.6752 30.963 91.7899 30.7776C91.8273 30.743 91.8575 30.701 91.8784 30.6542C91.8993 30.6074 91.9106 30.5567 91.9116 30.5053C91.9112 30.411 91.9321 30.3178 91.9725 30.233L92.3317 29.5089C92.4481 29.3104 92.6113 29.1445 92.8065 29.0261C92.8624 29.0086 92.9133 28.9775 92.9546 28.9354C92.996 28.8933 93.0267 28.8416 93.0439 28.7848L93.5796 27.6955C93.653 27.5856 93.7028 27.4612 93.7257 27.3304C93.7478 27.1993 93.7976 27.0747 93.8718 26.9653L94.231 26.2412C94.2351 26.1714 94.2528 26.1032 94.2831 26.0405C94.3134 25.9778 94.3557 25.9219 94.4075 25.876C94.5184 25.7334 94.5992 25.5691 94.6449 25.3933C94.722 25.1958 94.8115 25.0035 94.9128 24.8177C95.0136 24.6316 95.103 24.4394 95.1807 24.2422V24.0627C95.2172 23.9822 95.2598 23.8894 95.3024 23.7904C95.345 23.6914 95.3815 23.5985 95.4242 23.5181C95.4736 23.3538 95.5326 23.1926 95.6007 23.0353C95.6027 23.0028 95.5983 22.9702 95.5879 22.9394C95.5774 22.9086 95.5611 22.8802 95.5398 22.8559H95.4789C95.3606 22.9357 95.2592 23.0388 95.1807 23.1591C95.1133 23.322 95.0115 23.4679 94.8824 23.5861C94.8111 23.6564 94.7515 23.7379 94.7058 23.8275C94.6599 23.917 94.6003 23.9984 94.5293 24.0689C94.4508 24.1888 94.3611 24.3007 94.2614 24.4031C94.1518 24.5197 94.0614 24.6534 93.9936 24.7992L93.817 24.9786C93.6697 25.1241 93.539 25.286 93.4274 25.4614C93.326 25.6223 93.2164 25.7832 93.0987 25.9441C93.0618 25.98 93.031 26.0218 93.0074 26.0679C92.9836 26.1138 92.9528 26.1556 92.9161 26.1917L92.5569 26.7363L92.3804 26.9157C92.2647 27.0228 92.1643 27.1457 92.0821 27.2809L91.9055 27.4604C91.789 27.5782 91.6887 27.7114 91.6072 27.8564C91.5281 27.9988 91.449 28.1288 91.3698 28.2525C91.3485 28.2769 91.3322 28.3053 91.3218 28.3361C91.3113 28.3669 91.307 28.3995 91.3089 28.432C91.2939 28.561 91.2525 28.6854 91.1872 28.7972C91.1305 28.988 91.0507 29.1709 90.9498 29.3418C90.7458 29.597 90.5263 29.8388 90.2923 30.0659C90.2232 30.1383 90.1431 30.1989 90.0549 30.2453L89.8784 30.4248C89.7106 30.5583 89.5682 30.7219 89.4583 30.9075L89.2818 31.087C89.236 31.1765 89.1763 31.258 89.1052 31.3284C88.9375 31.462 88.7952 31.6256 88.6852 31.8111C88.6139 31.8814 88.5543 31.9629 88.5086 32.0525L88.3869 32.2939C88.2789 32.5229 88.159 32.7461 88.0277 32.9622L87.6686 33.5069C87.5839 33.5959 87.514 33.6983 87.4616 33.8101C87.409 33.9218 87.3391 34.0242 87.2546 34.1134C87.0713 34.4024 86.9125 34.7068 86.7798 35.0231L86.6032 35.3883C86.5186 35.4774 86.4488 35.5798 86.3963 35.6915C86.3437 35.8032 86.2738 35.9056 86.1893 35.9948C86.1073 36.1993 85.9851 36.3846 85.8301 36.5394C85.759 36.6325 85.6997 36.7344 85.6536 36.8427C85.5711 36.9777 85.4708 37.1006 85.3553 37.2078C85.3313 37.2294 85.3034 37.246 85.2731 37.2566C85.2428 37.2672 85.2107 37.2717 85.1787 37.2697C85.1467 37.2677 85.1147 37.2721 85.0844 37.2827C85.0541 37.2934 85.0262 37.3099 85.0022 37.3316C84.8865 37.4385 84.7861 37.5614 84.7039 37.6967C84.6581 37.7862 84.5985 37.8677 84.5274 37.9381L84.1682 38.3032C84.1055 38.3622 84.0557 38.4339 84.0221 38.5136C83.9884 38.5934 83.9387 38.6651 83.876 38.7241L83.6995 39.0892L83.3403 39.4543C83.269 39.5246 83.2094 39.6061 83.1637 39.6957C83.0846 39.8566 83.0176 40.0113 82.9568 40.1475C82.8959 40.2836 82.8289 40.4384 82.7498 40.5993C82.6442 40.7615 82.5832 40.9496 82.5732 41.1439C82.5827 41.2074 82.5703 41.2723 82.5382 41.3275C82.506 41.3828 82.456 41.425 82.3967 41.4472C82.3647 41.4452 82.3327 41.4496 82.3024 41.4602C82.2721 41.4708 82.2441 41.4874 82.2202 41.509L82.0436 41.6885C81.9658 41.8458 81.8762 41.9968 81.7758 42.1403C81.667 42.3002 81.577 42.4727 81.5079 42.654L81.1488 43.3781C81.0292 43.6311 80.8887 43.8733 80.7287 44.1022L80.5522 44.4673C80.471 44.5498 80.471 44.6096 80.5522 44.6468C80.6313 44.7706 80.6313 44.8696 80.5522 44.95C80.4291 45.1445 80.2885 45.3268 80.1321 45.4947C80.0537 45.6873 79.9536 45.8701 79.8338 46.0393L79.4747 46.5839C79.3658 46.675 79.2749 46.7863 79.2068 46.9119C79.154 47.0235 79.0842 47.1258 78.9998 47.2152C78.8779 47.4624 78.7176 47.6881 78.525 47.8835L78.3485 48.063C78.2801 48.2085 78.1897 48.3421 78.0806 48.4591C77.9804 48.561 77.8906 48.6729 77.8128 48.7933C77.683 48.911 77.581 49.057 77.5145 49.2203C77.4681 49.3095 77.4086 49.3909 77.3379 49.4617L76.2665 50.5509C76.2214 50.6036 76.1663 50.6466 76.1047 50.6774C76.043 50.7082 75.9759 50.7262 75.9073 50.7304C75.8647 50.7304 75.8099 50.7676 75.7308 50.8542C75.617 50.9013 75.4944 50.9224 75.3716 50.9161H75.0125C74.8468 50.9186 74.684 50.961 74.5376 51.0399C74.4565 51.1183 74.3976 51.1183 74.3611 51.0399C74.2919 50.9675 74.2118 50.9069 74.1237 50.8604C74.0997 50.8388 74.0718 50.8222 74.0415 50.8115C74.0112 50.8009 73.9791 50.7965 73.9471 50.7985L73.4114 50.978C73.3323 51.0584 73.2897 51.1203 73.2897 51.1574C73.283 51.2822 73.3038 51.407 73.3505 51.5226C73.4297 51.603 73.4723 51.6649 73.4723 51.7021C73.4753 51.7264 73.4727 51.751 73.4649 51.7742C73.4571 51.7973 73.4442 51.8183 73.4271 51.8356C73.4101 51.8529 73.3894 51.8661 73.3667 51.874C73.3439 51.882 73.3196 51.8846 73.2958 51.8815C73.2531 51.8815 73.1984 51.8382 73.1192 51.7578C72.9832 51.579 72.9008 51.3641 72.8818 51.1389V50.9594C72.8838 50.9269 72.8794 50.8943 72.869 50.8635C72.8585 50.8327 72.8422 50.8043 72.8209 50.7799L72.6444 50.6005C72.5844 50.5363 72.5379 50.4604 72.5076 50.3774C72.4772 50.2945 72.4637 50.2061 72.4678 50.1177C72.4747 49.9929 72.4539 49.8681 72.407 49.7526C72.3603 49.5751 72.3398 49.3916 72.3461 49.208V48.2796C72.3399 48.1549 72.3607 48.0302 72.407 47.9145C72.4537 47.7989 72.4745 47.6742 72.4678 47.5494C72.4557 47.3018 72.4973 47.0546 72.5896 46.8253C72.6109 46.8009 72.6272 46.7725 72.6376 46.7417C72.6481 46.7109 72.6524 46.6783 72.6505 46.6458C72.6391 46.4824 72.6598 46.3183 72.7113 46.1631V45.9836C72.719 45.772 72.7601 45.563 72.8331 45.3647L73.0096 44.8201C73.0563 44.6426 73.0768 44.4591 73.0705 44.2755C73.0853 44.1464 73.1268 44.0219 73.1923 43.9103V43.7308C73.1897 43.5861 73.2102 43.4419 73.2531 43.3038L73.3749 42.9387C73.4114 42.8582 73.454 42.7654 73.4966 42.6664C73.5393 42.5673 73.5758 42.4745 73.6184 42.394C73.6582 42.3548 73.6895 42.3076 73.7105 42.2554C73.7314 42.2032 73.7415 42.1471 73.7402 42.0908C73.7388 42.0344 73.7489 41.9784 73.7698 41.9262C73.7908 41.874 73.8221 41.8268 73.8619 41.7875C73.9023 41.7027 73.9232 41.6095 73.9228 41.5152C73.9238 41.4638 73.9351 41.4131 73.956 41.3663C73.9769 41.3195 74.0071 41.2775 74.0445 41.2429C74.091 41.1273 74.1118 41.0026 74.1054 40.8778C74.1194 40.6911 74.1604 40.5076 74.2272 40.3332L74.4037 39.7885V39.6091C74.4402 39.4853 74.4828 39.3801 74.5254 39.2749C74.5681 39.1697 74.6046 39.0644 74.6472 38.9407C74.6898 38.8169 74.7263 38.7674 74.769 38.6684C74.8116 38.5693 74.8481 38.4765 74.8907 38.396C74.9452 38.147 75.0247 37.9044 75.1281 37.672L75.4873 37.1273L75.8465 36.4032L76.023 36.2238C76.0941 36.1534 76.1537 36.0719 76.1995 35.9824C76.3157 35.6637 76.4985 35.3745 76.7352 35.1345C76.7718 35.0974 76.7961 35.0665 76.7961 35.0417C76.7961 35.0169 76.7961 34.9922 76.857 34.9489L77.0335 34.7694C77.2382 34.5847 77.4003 34.3565 77.5084 34.101C77.622 33.8769 77.6824 33.629 77.6849 33.3769C77.6835 33.3205 77.6936 33.2645 77.7146 33.2123C77.7355 33.1601 77.7669 33.1129 77.8067 33.0736C77.9038 32.9651 77.9839 32.8419 78.0441 32.7085L78.4032 32.1639C78.4742 32.0706 78.5335 31.9688 78.5798 31.8606C78.6524 31.7082 78.7423 31.5648 78.8476 31.4336C78.9525 31.302 79.0423 31.1587 79.1155 31.0066C79.1611 30.917 79.2208 30.8354 79.292 30.7652C79.3632 30.6948 79.4227 30.6133 79.4686 30.5238L79.6756 30.1896C79.7364 30.0906 79.8034 29.9792 79.8825 29.8554C80.0473 29.6794 80.2265 29.5179 80.4182 29.3727C80.4182 29.4532 80.4182 29.4965 80.4791 29.4965C80.54 29.4965 80.54 29.4594 80.54 29.3727C80.5567 29.3761 80.574 29.3753 80.5903 29.3702C80.6066 29.3652 80.6214 29.3562 80.6334 29.3439C80.6455 29.3317 80.6544 29.3166 80.6593 29.3C80.6642 29.2835 80.6651 29.2659 80.6617 29.2489C80.6983 29.2489 80.7591 29.2118 80.8383 29.1252C80.9123 29.0493 80.9917 28.979 81.0757 28.9147C81.1595 28.8503 81.2389 28.78 81.3131 28.7043C81.4013 28.6579 81.4814 28.5973 81.5505 28.5248L81.9097 28.1597C81.9744 28.0895 82.0563 28.0382 82.1471 28.0112C82.238 27.9844 82.3201 27.9331 82.3845 27.8626C82.5526 27.7601 82.7326 27.679 82.9202 27.6213C83.0796 27.582 83.225 27.4985 83.3403 27.3799C83.4807 27.2673 83.6423 27.1852 83.8151 27.1385C83.9593 27.0892 84.0996 27.0293 84.2352 26.9591C84.3085 26.9201 84.3898 26.8989 84.4726 26.8972C84.5554 26.8957 84.6367 26.8745 84.71 26.8353H85.6049C85.7885 26.8211 85.969 26.7794 86.1406 26.7115C86.3524 26.6303 86.5862 26.6303 86.798 26.7115C86.8367 26.752 86.8831 26.7838 86.9344 26.8051C86.9858 26.8264 87.0409 26.8367 87.0963 26.8353C87.2185 26.8363 87.3398 26.8572 87.4555 26.8972L87.8147 27.0767C88.1565 27.2297 88.4465 27.4815 88.6487 27.8008C88.6463 27.8333 88.6505 27.866 88.661 27.8968C88.6715 27.9277 88.688 27.956 88.7095 27.9802C88.934 28.2353 89.08 28.5515 89.1296 28.89C89.2204 29.056 89.2626 29.245 89.2513 29.4346V29.7997C89.3395 29.7533 89.4197 29.6927 89.4887 29.6203C89.5986 29.4347 89.741 29.2711 89.9088 29.1375C89.9715 29.0786 90.0213 29.0069 90.0549 28.9271C90.0885 28.8473 90.1383 28.7756 90.201 28.7167C90.3165 28.6096 90.4169 28.4867 90.4993 28.3516V28.1721C90.5105 28.1422 90.5105 28.1091 90.4993 28.0792C90.4931 28.0646 90.4899 28.0488 90.4899 28.0328C90.4899 28.0169 90.4931 28.0011 90.4993 27.9864V27.9245C90.564 27.7027 90.6648 27.4935 90.7976 27.3056C90.8362 27.2652 90.8826 27.2333 90.934 27.212C90.9853 27.1907 91.0404 27.1805 91.0959 27.1819C91.1126 27.1785 91.1298 27.1793 91.1461 27.1843C91.1624 27.1894 91.1773 27.1984 91.1893 27.2106C91.2014 27.2229 91.2102 27.238 91.2152 27.2545C91.2201 27.2711 91.221 27.2887 91.2176 27.3056V27.4851L91.9299 27.12C92.0526 26.9253 92.1932 26.7429 92.3499 26.5754C92.4041 26.5178 92.4694 26.4722 92.5416 26.4413C92.6139 26.4104 92.6916 26.395 92.77 26.3959C92.8917 26.3959 92.9891 26.3154 93.0683 26.1545C93.1048 26.1174 93.1291 26.0864 93.1291 26.0617C93.1291 26.0369 93.1291 26.0122 93.19 25.9689L93.5492 25.4242C93.5492 25.3871 93.5857 25.3252 93.6709 25.2448C93.7561 25.1643 93.8475 25.1643 93.9692 25.2448H94.0301L94.2066 24.8796C94.2889 24.7444 94.3893 24.6215 94.5049 24.5145C94.663 24.3708 94.8039 24.2087 94.925 24.0317L95.2841 23.6666C95.3359 23.6207 95.3782 23.5648 95.4085 23.5021C95.4388 23.4394 95.4566 23.3712 95.4607 23.3015C95.4972 23.3015 95.5581 23.2643 95.6372 23.1777L95.9964 22.8125C96.0397 22.7631 96.0727 22.7052 96.0937 22.6425C96.1146 22.5798 96.1229 22.5135 96.1181 22.4474C96.2108 22.3916 96.2873 22.3117 96.3397 22.2161C96.3921 22.1204 96.4186 22.0123 96.4164 21.9028C96.5747 21.7831 96.5747 21.6614 96.4164 21.5376C96.4205 21.4679 96.4383 21.3997 96.4686 21.337C96.4989 21.2743 96.5412 21.2184 96.593 21.1725C96.6676 21.0972 96.7368 21.0165 96.7999 20.9311C96.8557 20.8553 96.9046 20.7745 96.9461 20.6898L97.3661 20.2627C97.4838 20.0193 97.6035 19.7676 97.7253 19.5077C97.847 19.2478 97.9667 18.9755 98.0844 18.6908C98.1636 18.6103 98.2062 18.5484 98.2062 18.5113C98.221 18.3822 98.2625 18.2578 98.3279 18.1462C98.4862 17.8656 98.6343 17.583 98.7723 17.2983L99.2167 16.3885C99.2148 16.356 99.2191 16.3234 99.2296 16.2926C99.24 16.2618 99.2563 16.2334 99.2776 16.209C99.3991 16.0841 99.4999 15.9399 99.5759 15.782L99.8133 15.2993C99.8941 15.174 99.9634 15.0414 100.02 14.9032C100.077 14.7649 100.146 14.6323 100.227 14.5071L100.404 14.142C100.45 14.0337 100.509 13.9318 100.58 13.8387C100.697 13.7209 100.797 13.5877 100.879 13.4426C100.96 13.3024 101.039 13.1518 101.116 12.9908C101.176 12.8573 101.256 12.7341 101.353 12.6257L101.53 12.4462L101.889 11.9016C101.926 11.8645 101.95 11.8335 101.95 11.8088C101.95 11.784 101.95 11.7593 102.011 11.7159C102.092 11.5907 102.161 11.4581 102.218 11.3199C102.275 11.1816 102.344 11.049 102.425 10.9238C102.499 10.8498 102.55 10.755 102.571 10.6515C102.592 10.5478 102.643 10.4529 102.717 10.3792C102.788 10.2859 102.847 10.184 102.894 10.0759C102.975 9.91499 103.054 9.7644 103.131 9.62412C103.221 9.46745 103.321 9.31657 103.429 9.17233L103.606 8.80719L103.782 8.44205L103.959 8.07691C104.04 7.916 104.119 7.7654 104.196 7.62512C104.278 7.48005 104.378 7.34682 104.495 7.22904C104.57 7.03497 104.67 6.85186 104.793 6.68442C104.922 6.50946 105.042 6.32766 105.152 6.1398C105.223 6.06942 105.283 5.98794 105.329 5.89843C105.4 5.71198 105.501 5.53852 105.627 5.38476C105.744 5.24712 105.844 5.0954 105.925 4.93298C106.004 4.8092 106.084 4.67923 106.163 4.53689C106.244 4.39182 106.344 4.25859 106.461 4.1408L106.82 3.59619C106.893 3.44377 106.983 3.30046 107.088 3.16916C107.185 3.0495 107.275 2.92779 107.356 2.80401L107.593 2.43887L107.831 2.07373C107.887 2.02081 107.936 1.96045 107.977 1.89425C108.017 1.82801 108.066 1.76764 108.123 1.71478L108.299 1.5353C108.426 1.30576 108.586 1.09709 108.774 0.916417C108.933 0.755507 109.079 0.613163 109.219 0.489386C109.359 0.365609 109.505 0.229455 109.663 0.0623562C109.687 0.0407383 109.715 0.0241432 109.745 0.013523C109.776 0.0029029 109.808 -0.00153367 109.84 0.000467508C109.872 -0.00153367 109.904 0.0029029 109.934 0.013523C109.964 0.0241432 109.992 0.0407383 110.016 0.0623562C110.053 0.105678 110.053 0.186133 110.016 0.303721C109.98 0.421309 109.937 0.483197 110.016 0.483197C110.172 0.561483 110.298 0.68981 110.375 0.848339V1.21348C110.372 1.23046 110.373 1.24802 110.378 1.26459C110.383 1.28116 110.392 1.29624 110.404 1.30848C110.416 1.32072 110.43 1.32976 110.447 1.33478C110.463 1.3398 110.48 1.34065 110.497 1.33726ZM86.7372 30.3506C86.7391 30.318 86.7348 30.2854 86.7243 30.2546C86.7139 30.2238 86.6975 30.1955 86.6763 30.1711C86.6238 30.1142 86.5645 30.0643 86.4997 30.0225C86.4342 29.9819 86.3748 29.9318 86.3232 29.874C86.2254 29.766 86.1452 29.6427 86.0858 29.5089C86.0562 29.4733 86.02 29.4441 85.9792 29.4229C85.9385 29.4016 85.894 29.3888 85.8484 29.3851V29.7502C85.8517 29.7672 85.8509 29.7848 85.8459 29.8013C85.841 29.8179 85.8321 29.833 85.8201 29.8452C85.808 29.8575 85.7932 29.8665 85.7769 29.8715C85.7606 29.8766 85.7433 29.8774 85.7266 29.874C85.6946 29.8764 85.6625 29.8721 85.6321 29.8615C85.6018 29.8508 85.5739 29.834 85.5501 29.8121C85.4215 29.6775 85.2809 29.5552 85.13 29.447C84.8052 29.2612 84.4675 29.0999 84.1195 28.9643C84.003 28.9242 83.8768 28.9242 83.7603 28.9643C83.6164 29.0143 83.4761 29.0742 83.3403 29.1437C83.2226 29.2262 83.0927 29.3067 82.9507 29.3851L82.5611 29.6265C82.3622 29.8286 82.1593 30.0349 81.9523 30.2453C81.7453 30.4558 81.5424 30.6621 81.3435 30.8642C81.125 31.0916 80.9216 31.3335 80.7348 31.5883C80.6531 31.6737 80.5925 31.7777 80.5583 31.8916C80.5233 32.0052 80.4629 32.109 80.3817 32.1948C80.3073 32.2703 80.2381 32.351 80.1747 32.4362C80.1139 32.5166 80.0469 32.6157 79.9678 32.7394C79.9219 32.829 79.8623 32.9104 79.7912 32.9808C79.6582 33.111 79.5379 33.2541 79.432 33.4078L79.2555 33.773C79.1899 33.9129 79.1104 34.0457 79.0181 34.1691C78.939 34.2681 78.8598 34.3795 78.7807 34.5033L78.4215 34.8684C78.3616 34.9326 78.315 35.0085 78.2847 35.0914C78.2544 35.1744 78.2408 35.2627 78.245 35.3511C78.2479 35.3754 78.2454 35.4001 78.2376 35.4232C78.2297 35.4464 78.2168 35.4674 78.1998 35.4847C78.1828 35.502 78.1621 35.5151 78.1393 35.5231C78.1166 35.5311 78.0923 35.5336 78.0684 35.5306C78.006 35.521 77.9422 35.5336 77.8878 35.5663C77.8334 35.599 77.7919 35.6498 77.7701 35.7101L77.3805 36.3909C77.3014 36.5518 77.2344 36.7065 77.1736 36.8427C77.1127 36.9788 77.0457 37.1335 76.9666 37.2944C76.9234 37.3894 76.9026 37.4932 76.9057 37.5977C76.9067 37.654 76.8965 37.7099 76.8755 37.7621C76.8546 37.8142 76.8234 37.8615 76.7839 37.9009V38.0804L76.6074 38.8045C76.5648 38.885 76.5283 38.9778 76.4857 39.0768C76.443 39.1758 76.4065 39.2872 76.3639 39.411C76.3213 39.5348 76.2848 39.5843 76.2422 39.6833C76.2008 39.7897 76.1801 39.9032 76.1813 40.0175C76.1035 40.123 76.0608 40.2509 76.0595 40.3827C76.0558 40.514 76.0134 40.6412 75.9378 40.7478C75.8102 40.9699 75.7293 41.2164 75.7004 41.4719V41.6514C75.6599 41.7363 75.6391 41.8294 75.6395 41.9237C75.6399 42.018 75.619 42.1111 75.5786 42.196C75.5382 42.2809 75.5173 42.374 75.5177 42.4683C75.5168 42.5197 75.5054 42.5704 75.4845 42.6172C75.4636 42.6641 75.4334 42.7061 75.396 42.7406L75.2194 43.2852C75.2184 43.4095 75.1979 43.5328 75.1586 43.6504L75.0368 44.0155L74.9151 44.3807C74.8721 44.5187 74.8516 44.6629 74.8542 44.8077V44.9872C74.7887 45.0988 74.7472 45.2232 74.7324 45.3523C74.7183 45.5975 74.6775 45.8404 74.6107 46.0764V46.1383H74.6716C74.8255 46.0224 74.9663 45.8895 75.0916 45.7422C75.2169 45.5949 75.3578 45.4621 75.5116 45.3461C75.5765 45.3146 75.6361 45.2728 75.6882 45.2223C75.7404 45.1721 75.8 45.1304 75.8647 45.0986C75.9961 45.0376 76.1172 44.9562 76.2239 44.8572L76.4004 44.6777C76.5331 44.5472 76.6533 44.4042 76.7596 44.2507C76.9021 44.0555 77.061 43.8733 77.2344 43.7061C77.3317 43.5976 77.4118 43.4744 77.4718 43.3409C77.5881 43.1423 77.7513 42.9764 77.9467 42.8582C77.9706 42.8366 77.9986 42.82 78.0289 42.8094C78.0592 42.7988 78.0912 42.7943 78.1232 42.7963C78.2024 42.8396 78.2815 42.7963 78.3606 42.6725C78.4666 42.5015 78.5868 42.34 78.7198 42.1898C78.7723 42.0983 78.7937 41.9917 78.7807 41.8866H78.6041C78.5994 41.8205 78.6077 41.7542 78.6286 41.6914C78.6495 41.6287 78.6826 41.5709 78.7259 41.5214C78.7665 41.4802 78.8253 41.4802 78.9024 41.5214V41.7009C78.9906 41.6545 79.0708 41.5939 79.1398 41.5214C79.2458 41.3504 79.3659 41.1889 79.499 41.0387C79.5515 40.9471 79.5729 40.8406 79.5599 40.7354C79.4381 40.655 79.4016 40.5931 79.4381 40.556L79.7973 40.0113C79.9043 39.7552 80.0666 39.5267 80.2721 39.3429C80.3513 39.2625 80.3939 39.2006 80.3939 39.1635C80.4354 39.0787 80.4843 38.9979 80.54 38.9221C80.6034 38.8369 80.6725 38.7562 80.747 38.6807C80.8261 38.557 80.8931 38.4579 80.9539 38.3775C81.0173 38.2922 81.0865 38.2116 81.1609 38.1361V37.9566C81.2406 37.8748 81.3101 37.7834 81.3679 37.6843C81.4288 37.5853 81.4957 37.4739 81.5749 37.3501L82.1106 36.8055C82.2078 36.697 82.2879 36.5738 82.348 36.4404C82.4271 36.3599 82.488 36.3166 82.5245 36.3166H82.7011C82.8228 36.3971 82.9202 36.3599 82.9994 36.1928C83.0593 36.0593 83.1395 35.9361 83.2368 35.8277C83.3253 35.7345 83.4048 35.633 83.4742 35.5244C83.5433 35.4156 83.6228 35.314 83.7116 35.2212C83.7439 35.1128 83.7933 35.0104 83.8577 34.9179C83.9186 34.8375 83.9856 34.7384 84.0647 34.6147L84.2412 34.4352C84.4293 34.2544 84.5894 34.0457 84.7161 33.8163C84.8326 33.6985 84.9329 33.5653 85.0144 33.4202C85.0958 33.2751 85.1962 33.1419 85.3127 33.0241C85.3918 32.9437 85.4344 32.8818 85.4344 32.8447C85.4667 32.7362 85.5161 32.6338 85.5805 32.5414C85.6414 32.4609 85.7084 32.3619 85.7875 32.2382C85.8331 32.1485 85.8928 32.067 85.964 31.9968C86.0796 31.8897 86.18 31.7668 86.2623 31.6316L86.4389 31.4522C86.5544 31.345 86.6548 31.2222 86.7372 31.087C86.7787 31.0023 86.8276 30.9215 86.8833 30.8457C86.939 30.7699 86.9879 30.6891 87.0294 30.6043L86.7372 30.3506ZM78.5128 41.9608C78.5138 41.9692 78.5129 41.9777 78.5102 41.9856C78.5075 41.9936 78.503 42.0008 78.4972 42.0068C78.4913 42.0128 78.4842 42.0173 78.4764 42.02C78.4685 42.0228 78.4602 42.0237 78.4519 42.0227L78.5128 41.9608ZM78.5737 41.8989C78.5904 41.9023 78.6077 41.9015 78.624 41.8965C78.6403 41.8914 78.6551 41.8824 78.6671 41.8702C78.6792 41.8579 78.6881 41.8428 78.693 41.8263C78.6979 41.8097 78.6988 41.7921 78.6955 41.7752C78.6787 41.7751 78.6621 41.7791 78.6472 41.787C78.6323 41.7948 78.6195 41.8063 78.6099 41.8203C78.6003 41.8343 78.5942 41.8505 78.5922 41.8674C78.5901 41.8843 78.5921 41.9015 78.598 41.9175L78.5737 41.8989ZM79.0059 42.0784C79.0226 42.0818 79.0399 42.081 79.0562 42.0759C79.0725 42.0709 79.0873 42.0619 79.0994 42.0496C79.1114 42.0374 79.1203 42.0223 79.1252 42.0057C79.1302 41.9892 79.131 41.9716 79.1277 41.9546C79.1081 41.944 79.0857 41.9401 79.0637 41.9434C79.0418 41.9467 79.0215 41.9571 79.0058 41.9731C78.9901 41.989 78.9799 42.0097 78.9766 42.032C78.9733 42.0543 78.9772 42.0771 78.9877 42.097L79.0059 42.0784ZM79.8947 40.8654C79.8865 40.8644 79.8781 40.8653 79.8703 40.8681C79.8625 40.8708 79.8554 40.8754 79.8495 40.8813C79.8436 40.8873 79.8392 40.8945 79.8365 40.9025C79.8338 40.9104 79.8328 40.9189 79.8338 40.9273L79.8947 40.8654ZM87.2302 46.6458V46.5839C87.1511 46.5034 87.1085 46.5034 87.1085 46.5839L87.2302 46.6458ZM87.352 46.3425C87.3687 46.3459 87.386 46.3451 87.4023 46.34C87.4186 46.335 87.4334 46.326 87.4454 46.3137C87.4575 46.3015 87.4664 46.2864 87.4713 46.2699C87.4763 46.2533 87.4771 46.2357 87.4738 46.2187V45.8536C87.3946 45.8969 87.352 45.996 87.352 46.1569V46.3425ZM87.6503 45.4947C87.697 45.3172 87.7175 45.1336 87.7112 44.95C87.632 44.95 87.5894 44.95 87.5894 45.0119C87.4758 45.236 87.4153 45.484 87.4129 45.736V45.9155C87.492 45.9155 87.5346 45.9155 87.5346 45.8536C87.5667 45.7986 87.5874 45.7375 87.5955 45.6741C87.595 45.6104 87.6074 45.5471 87.632 45.4885L87.6503 45.4947ZM87.8268 44.7087C87.7477 44.7087 87.7051 44.7087 87.7051 44.7706V44.95C87.7842 44.95 87.8268 44.95 87.8268 44.8882V44.7087ZM87.7294 28.8343C87.7377 28.8353 87.746 28.8344 87.7538 28.8316C87.7617 28.8289 87.7688 28.8243 87.7746 28.8184C87.7805 28.8124 87.785 28.8052 87.7877 28.7972C87.7904 28.7892 87.7913 28.7808 87.7903 28.7724L87.7294 28.8343ZM90.4689 40.6426C90.6271 40.523 90.6271 40.4012 90.4689 40.2775V40.6426ZM90.8889 39.8566C90.8899 39.8483 90.889 39.8398 90.8863 39.8318C90.8835 39.8238 90.8791 39.8166 90.8732 39.8107C90.8674 39.8047 90.8603 39.8002 90.8524 39.7974C90.8446 39.7947 90.8362 39.7937 90.828 39.7947L90.8889 39.8566Z" fill="#F91616"/>
<path d="M64.2179 5.63173C64.1422 5.43781 64.0419 5.25474 63.9197 5.08711C63.7967 4.91995 63.6964 4.73677 63.6214 4.54249C63.6214 4.46203 63.6214 4.23924 63.6214 3.87409C63.6214 3.50895 63.6701 3.12524 63.7127 2.72297C63.7553 2.32069 63.7796 1.96793 63.804 1.66468C63.8283 1.36142 63.804 1.21289 63.804 1.21289C63.6457 1.25415 63.4976 1.446 63.3596 1.78845C63.2216 2.1309 63.0917 2.48367 62.97 2.84675C62.8523 3.20982 62.7326 3.53371 62.6108 3.81839C62.4891 4.10308 62.3694 4.22479 62.2517 4.18354C62.134 4.10102 62.065 3.81839 62.0447 3.33566C62.0049 3.03376 62.0049 2.72781 62.0447 2.4259C62.0812 2.26499 62.136 2.02982 62.1908 1.72656C62.2456 1.42331 62.1238 1.3738 61.8012 1.57803C61.7796 1.55385 61.7631 1.52548 61.7527 1.49463C61.7422 1.46379 61.738 1.4311 61.7403 1.39856V1.21908C61.501 1.3413 61.3114 1.54498 61.2046 1.79464C61.0372 2.11416 60.8967 2.44748 60.7845 2.79105C60.6669 3.15412 60.5674 3.50689 60.4863 3.84934C60.4051 4.19179 60.3462 4.4641 60.3097 4.66627C60.2306 4.98809 60.1393 5.28515 60.0419 5.60697C59.9337 5.92938 59.8035 6.24371 59.6523 6.54767C59.5514 6.78666 59.4204 7.01133 59.2627 7.21607C59.1048 7.42073 58.9738 7.64542 58.873 7.88447C58.8322 7.96923 58.811 8.06238 58.811 8.15677C58.811 8.25117 58.8322 8.34432 58.873 8.42908C58.9157 8.52649 58.9377 8.63191 58.9377 8.73853C58.9377 8.84514 58.9157 8.95056 58.873 9.04797C58.7976 9.3588 58.6978 9.66302 58.5748 9.95773L58.2156 10.8056C58.0573 11.1274 57.8382 11.5813 57.5581 12.1671C57.3784 12.6121 57.0991 13.0084 56.7424 13.3245C56.6741 13.5274 56.5493 13.7059 56.3832 13.8381C56.2138 13.9821 56.0715 14.1562 55.9632 14.3518C55.8455 14.554 55.7156 14.7871 55.5736 15.0511C55.4473 15.2895 55.2755 15.4999 55.0683 15.67C54.91 15.7505 54.7822 15.8124 54.6787 15.8495C54.5545 15.9071 54.4428 15.9892 54.35 16.0909C54.1319 16.3631 53.9422 16.6577 53.7838 16.9697C53.616 17.2958 53.4269 17.61 53.2177 17.9104L51.4279 20.6335C51.1885 20.9966 50.9308 21.4092 50.6548 21.8713C50.4186 22.2295 50.2418 22.6246 50.1313 23.0409C50.1313 23.0409 50.0826 23.0409 49.9973 23.1462L49.8756 23.2699C49.8619 23.3033 49.8548 23.339 49.8548 23.3751C49.8548 23.4113 49.8619 23.447 49.8756 23.4804C49.8897 23.5025 49.8973 23.5283 49.8973 23.5546C49.8973 23.581 49.8897 23.6068 49.8756 23.6289C49.8045 23.7807 49.7029 23.9156 49.5773 24.025C49.4429 24.1484 49.3404 24.3035 49.279 24.4768C48.9699 25.0286 48.6326 25.5637 48.2685 26.0797C47.9113 26.583 47.5745 27.0988 47.2579 27.6269L45.5412 30.4366C44.9649 31.3856 44.3785 32.3242 43.7819 33.2525C43.0323 34.3738 42.3453 35.5371 41.7243 36.7369C41.1129 37.9358 40.4361 39.099 39.6971 40.2212C39.6042 40.3591 39.4813 40.4735 39.338 40.5554C39.2281 40.6088 39.1274 40.6799 39.0397 40.7658C38.8715 40.9407 38.7224 41.1337 38.5953 41.3414C38.4577 41.5553 38.3094 41.7619 38.1509 41.9602C37.952 42.2037 37.7227 42.4553 37.463 42.7153C37.2249 42.9485 37.0327 43.2258 36.8968 43.5322C36.9374 43.33 37.0166 43.0165 37.1343 42.5915C37.252 42.1665 37.3717 41.7333 37.4934 41.2918L37.8222 40.0541C37.8796 39.8474 37.9203 39.6363 37.9439 39.4228C38.3384 37.8145 38.9402 36.2663 39.7337 34.8183C40.0623 34.1784 40.302 33.4953 40.4459 32.7884C40.6042 32.0416 40.7625 31.3257 40.9207 30.6408C41.1196 29.7125 41.3388 28.7739 41.5782 27.8249C41.8176 26.876 42.0956 25.9373 42.4122 25.009C43.0859 23.1936 43.7312 21.3658 44.3481 19.5257C44.9649 17.6855 45.5899 15.8289 46.223 13.9557C46.3407 13.5926 46.4503 13.2399 46.5518 12.8974C46.6532 12.555 46.7425 12.2022 46.8196 11.8391C46.8991 11.3588 46.9297 10.8715 46.9109 10.3848C46.8806 9.90045 46.8806 9.41468 46.9109 8.93038C46.9409 8.54727 46.9409 8.16236 46.9109 7.77925C46.8906 7.36667 46.6025 7.26558 46.0465 7.476C45.7207 7.6059 45.4335 7.81907 45.2125 8.09488C45.1699 8.17534 45.1029 8.33625 45.0055 8.57762C44.9081 8.81898 44.8168 8.94276 44.7377 8.94276C44.6585 8.94276 44.6768 8.8623 44.6768 8.70139V8.41671C44.2388 8.62006 43.867 8.94644 43.6054 9.35741C43.3439 9.77092 43.0551 10.1659 42.7409 10.5395C42.596 10.7094 42.4656 10.8916 42.3513 11.0841C42.1728 11.3688 41.9698 11.672 41.7426 11.9939C41.5487 12.2768 41.3698 12.5702 41.2069 12.8727C41.0689 13.1367 41.0384 13.2873 41.1155 13.3245C41.1927 13.3616 41.2921 13.2915 41.4138 13.114C41.4868 12.9809 41.5889 12.8666 41.7121 12.7798C41.768 12.7623 41.8189 12.7312 41.8603 12.6891C41.9017 12.647 41.9323 12.5953 41.9495 12.5385C41.8653 12.851 41.7405 13.1507 41.5782 13.4297C41.3793 13.7515 41.1764 14.0547 40.9694 14.3394C40.7625 14.6241 40.5595 14.9872 40.3607 15.4287C40.1743 15.7972 39.8975 16.1105 39.5571 16.3384C39.4354 16.4189 39.338 16.4313 39.2588 16.3384C39.2435 16.3221 39.2251 16.3092 39.2047 16.3003C39.1843 16.2915 39.1623 16.2869 39.1401 16.2869C39.1179 16.2869 39.096 16.2915 39.0756 16.3003C39.0552 16.3092 39.0368 16.3221 39.0214 16.3384C38.7629 16.516 38.5717 16.778 38.4796 17.0811C38.3658 17.351 38.2357 17.6135 38.09 17.8671L37.3778 19.1048C37.1383 19.5174 36.9009 19.9424 36.6655 20.3797C36.4759 20.7148 36.2687 21.0391 36.0446 21.3514C35.8007 21.6576 35.6374 22.0217 35.5698 22.4097C35.5292 22.6119 35.5292 22.7336 35.5698 22.7748C35.5915 22.7892 35.6169 22.7969 35.6428 22.7969C35.6687 22.7969 35.6941 22.7892 35.7159 22.7748L35.9228 22.7129C35.9994 22.684 36.0837 22.684 36.1603 22.7129C36.1968 22.7563 36.1602 22.8615 36.0994 23.0471C36.0078 23.2491 35.8978 23.4418 35.7706 23.6227C35.6333 23.8229 35.4849 24.0151 35.3262 24.1983L35.028 24.5325C34.9062 24.6562 34.7784 24.7986 34.6384 24.9595C34.5149 25.1093 34.3639 25.2333 34.194 25.3246C34.0987 25.3978 33.9844 25.4408 33.8652 25.4484C33.8146 25.4494 33.7648 25.4609 33.7187 25.4822C33.6727 25.5035 33.6314 25.5341 33.5974 25.5722C33.3253 25.7706 33.1007 26.0286 32.9399 26.3272C32.7605 26.6363 32.557 26.9302 32.3312 27.206C32.047 27.538 31.7885 27.8918 31.558 28.2643C31.3186 28.648 31.0994 29.0214 30.9006 29.3845C30.5147 30.0504 30.1671 30.7386 29.8596 31.4454C29.5432 32.1786 29.1686 32.8844 28.7395 33.5558L26.3044 37.7023C25.4936 39.08 24.599 40.4049 23.6259 41.6694C23.1511 42.2759 22.7148 42.8824 22.3171 43.4889C21.9193 44.0954 21.5135 44.7411 21.0996 45.426L20.4908 46.5152L19.882 47.6045L19.2733 48.5761C19.0762 48.8915 18.9341 49.239 18.8532 49.6035C18.9324 49.6035 19.0237 49.5044 19.1211 49.3002C19.2185 49.096 19.3098 49.0155 19.3889 49.0588C19.4681 49.1022 19.4376 49.2507 19.2976 49.5106C19.1379 49.8051 18.9589 50.0884 18.7619 50.3585C18.6097 50.5689 18.4575 50.767 18.3053 50.9774C18.3078 50.93 18.3078 50.8825 18.3053 50.835L18.2445 50.8969C18.146 51.0004 18.0564 51.1122 17.9766 51.2311C17.9096 51.325 17.8639 51.4328 17.8427 51.5468C17.7925 51.6087 17.7477 51.675 17.7088 51.7448C17.2705 52.2688 16.8646 52.7845 16.4912 53.292C16.1179 53.7995 15.781 54.3338 15.4807 54.8949L14.738 56.2255V56.2936H14.6893L14.5554 56.5412C14.4377 56.7433 14.2977 57.0156 14.1353 57.3581C14.0271 57.639 13.841 57.8819 13.5996 58.0574C13.3987 58.2183 13.2892 58.2678 13.2709 58.206C13.2566 58.1387 13.2566 58.069 13.2709 58.0017L13.1613 58.1131C13.1613 58.1503 13.1613 58.1564 13.2222 58.1564C13.0761 58.1564 13.2222 58.274 13.1857 58.3297L12.9726 58.3669C12.9726 58.4473 13.0396 58.4288 13.0639 58.4535C12.9239 58.7134 12.6439 58.8682 12.583 59.1157C12.4978 59.1467 12.4917 59.0291 12.4186 59.1157C12.6195 59.1157 12.3212 59.4004 12.4613 59.388C12.2725 59.388 12.2421 59.6727 12.0717 59.5056C11.9986 59.5984 12.0717 59.6418 12.1386 59.6232C12.0553 59.7172 12.0059 59.8373 11.9986 59.9636C11.9073 60.0007 11.7186 60.5392 11.5055 60.5825C11.6455 60.5825 11.5542 60.6196 11.5542 60.7124H11.676L11.5725 60.861C11.5725 60.8981 11.5725 60.9043 11.5725 60.8981C11.5725 60.8919 11.5238 60.861 11.469 60.8981C11.4142 60.9352 11.469 61.0343 11.469 61.1209L11.4385 61.2014C11.4081 61.2571 11.4385 60.96 11.3168 61.1085C11.3168 61.1085 11.3959 61.2942 11.3168 61.3066C11.3716 61.2199 11.3168 61.1952 11.262 61.2137L11.1829 61.3375H11.3168C11.1037 61.6965 10.8298 62.0369 10.6289 62.4329C10.5315 62.3772 10.4828 62.7114 10.355 62.6C10.3915 62.4948 10.2271 62.6 10.2028 62.6557C10.288 62.5938 10.2758 62.8785 10.3976 62.6867V62.8785C10.635 63.1075 10.1662 63.2808 10.148 63.5717C10.1517 63.5596 10.1517 63.5466 10.148 63.5346C10.148 63.7883 9.84968 63.9802 9.87403 64.0482H9.78881C9.78881 64.2586 9.82533 64.3082 9.72185 64.4567C9.75468 64.49 9.77688 64.5327 9.78556 64.579C9.79425 64.6254 9.78902 64.6733 9.77055 64.7166C9.74474 64.7871 9.70055 64.8492 9.64271 64.8961C9.68014 64.7676 9.6986 64.6341 9.69749 64.5V64.5433C9.69749 64.5433 9.69749 64.5 9.64271 64.5433C9.67153 64.5885 9.68687 64.6411 9.68687 64.695C9.68687 64.7488 9.67153 64.8014 9.64271 64.8466L9.55748 65.088C9.31398 64.9827 9.55748 65.5583 9.24701 65.5212C9.3018 65.5954 9.24701 65.7811 9.24701 65.8739C9.24701 65.9668 9.24701 65.8739 9.24701 65.9296C9.24701 65.9853 9.24701 65.9296 9.24701 65.8739C9.24037 65.8707 9.23309 65.8689 9.22571 65.8689C9.21832 65.8689 9.21104 65.8707 9.2044 65.8739C9.29571 66.0163 9.0583 66.1215 9.04003 66.2329C9.02177 66.3443 9.10091 66.301 9.14961 66.2886C8.99742 66.3814 9.14961 66.6971 9.07047 66.728C8.99133 66.7589 8.9609 66.728 8.90002 66.728C8.90002 66.8827 9.13135 66.7837 8.9609 66.9446C8.9609 66.9446 8.9609 66.8765 8.9609 66.8827C8.9609 66.8889 8.58347 66.9817 8.6139 67.0746L8.67478 67.0436C8.67478 67.1179 8.61999 67.1736 8.5652 67.2231C8.56062 67.2766 8.56062 67.3305 8.5652 67.384H8.60173V67.415C8.60879 67.4537 8.62556 67.4899 8.65043 67.5202C8.77218 67.7244 8.82697 67.7739 8.82697 67.6687C8.82697 67.5635 8.88785 67.4954 9.00351 67.4583C9.11917 67.4211 9.24093 67.5202 9.36268 67.7615C9.42339 67.9281 9.52629 68.0754 9.66097 68.1886C9.75405 68.2754 9.86708 68.3371 9.9897 68.368C10.1246 68.3455 10.2558 68.3039 10.3793 68.2443C10.8 68.0533 11.1835 67.7871 11.5116 67.4583C11.8091 67.0843 12.0739 66.6847 12.303 66.2638C12.859 65.3768 13.3744 64.4691 13.8492 63.5407C14.3241 62.6124 14.8395 61.7047 15.3955 60.8176C15.8338 60.1286 16.2396 59.421 16.613 58.6949C16.9848 57.9746 17.4122 57.2854 17.8914 56.634C18.4083 55.9466 18.8859 55.2295 19.322 54.4865C19.7603 53.7397 20.1966 52.9826 20.6308 52.2152C21.5034 50.6391 22.3577 49.0733 23.1937 47.5178C24.0297 45.9624 24.9043 44.4172 25.8174 42.8824C26.8483 41.1866 27.8629 39.5218 28.8612 37.888L31.905 32.9369L32.5138 31.9405L33.7313 30.0343C34.1858 29.3082 34.6627 28.5408 35.1619 27.7321C35.6611 26.9234 36.1582 26.189 36.6533 25.5289C37.0917 24.8605 37.5888 24.0827 38.1448 23.1957C38.1813 23.239 38.1935 23.3751 38.1448 23.6227C38.1208 23.8888 38.0719 24.152 37.9987 24.4087C37.9175 24.6934 37.8384 24.9554 37.7613 25.1947C37.7006 25.3496 37.6597 25.5119 37.6395 25.6774C37.5218 26.123 37.392 26.548 37.2499 26.9523C37.1079 27.3566 36.978 27.7816 36.8603 28.2272C36.7426 28.6728 36.6229 29.0854 36.5012 29.465C36.3764 29.8708 36.2767 30.2842 36.2029 30.7027C36.1734 30.8934 36.1734 31.0876 36.2029 31.2783C36.2325 31.4482 36.2325 31.6221 36.2029 31.792C36.1237 31.9962 36.0446 32.1881 35.9654 32.3675C35.8813 32.5655 35.822 32.7734 35.7889 32.9864C35.7597 33.1272 35.7597 33.2727 35.7889 33.4134C35.8158 33.5732 35.8158 33.7364 35.7889 33.8962L35.4297 35.3506C35.3551 35.6504 35.2962 35.9541 35.2532 36.2603C35.2126 36.545 35.172 36.8483 35.1314 37.1701C35.0138 37.9375 34.9042 38.7049 34.8027 39.4723C34.706 40.2287 34.5575 40.9773 34.3583 41.7127C34.1595 42.5379 33.9707 43.3259 33.7922 44.0768C33.6136 44.8277 33.4249 45.6158 33.226 46.441C33.1274 46.7596 33.0482 47.0841 32.9886 47.4126C32.9074 47.8252 32.8385 48.2378 32.7816 48.6504C32.7301 49.0613 32.7301 49.4772 32.7816 49.8882C32.7585 50.1956 32.8355 50.5022 33.0008 50.7608C33.2896 51.0234 33.6554 51.1822 34.0418 51.2126C34.2238 51.2785 34.4187 51.2994 34.6103 51.2736C34.8019 51.2478 34.9847 51.1759 35.1436 51.064C35.1441 50.9397 35.1646 50.8164 35.2045 50.6989L35.3262 50.3337C35.4075 50.1288 35.5298 49.9433 35.6854 49.7891C35.8466 49.6255 35.9876 49.4426 36.1055 49.2445C36.1866 49.1249 36.3348 48.8629 36.5499 48.4585C36.765 48.0542 36.9942 47.6416 37.2378 47.2208C37.4772 46.8082 37.7065 46.4348 37.9256 46.1006C38.1448 45.7664 38.2929 45.624 38.37 45.6735C38.4492 45.754 38.4492 45.8778 38.37 46.0387C38.3044 46.1502 38.2629 46.2747 38.2483 46.4038H38.4796C38.4442 46.4716 38.4136 46.5419 38.3883 46.6143C38.3547 46.694 38.3049 46.7657 38.2422 46.8247V46.4595C38.1379 46.521 38.0469 46.603 37.9743 46.7009C37.8769 46.8247 37.9074 46.9237 38.0657 47.0041V47.3074C38.1797 47.2448 38.2896 47.1745 38.3944 47.097C38.4723 47.0287 38.5636 46.9781 38.6623 46.9485C38.6196 47.0289 38.5527 47.1527 38.4553 47.3136C38.3787 47.4445 38.289 47.5668 38.1874 47.6787C37.9886 47.9593 37.7856 48.2213 37.5787 48.4647C37.3566 48.7326 37.1532 49.0159 36.9699 49.3126C37.0105 49.3951 37.1099 49.3538 37.2682 49.1888C37.4265 49.0279 37.5969 48.836 37.7735 48.6132L38.2787 47.9944C38.3896 47.8606 38.4894 47.7178 38.577 47.5673L39.3806 46.4781C39.5074 46.3069 39.6156 46.1222 39.7032 45.9273L39.6971 45.853C39.5964 45.8717 39.5056 45.9266 39.4415 46.0077C39.5023 45.884 39.5571 45.7849 39.6058 45.7045C39.6241 45.6632 39.653 45.6277 39.6894 45.6015C39.7258 45.5754 39.7684 45.5597 39.8128 45.556C39.6971 45.5931 39.6728 45.7169 39.7519 45.9149C39.8475 45.7078 39.9092 45.4862 39.9346 45.2589C40.1334 45.1764 40.3018 44.935 40.4398 44.5348C40.5409 44.2196 40.6714 43.915 40.8294 43.625C41.124 43.0742 41.462 42.5485 41.84 42.0531C42.1403 41.5992 42.4406 41.1351 42.7409 40.6606L43.6967 39.2062C43.8955 38.8844 44.0985 38.5811 44.3054 38.2964C44.5124 38.0118 44.7153 37.7085 44.9142 37.3867C45.0943 37.0781 45.2978 36.7842 45.523 36.5079C45.746 36.2327 45.908 35.9118 45.9978 35.5672C45.999 35.5434 46.0051 35.5201 46.0155 35.4988C46.026 35.4775 46.0407 35.4587 46.0587 35.4434C46.0799 35.419 46.0963 35.3906 46.1067 35.3598C46.1172 35.329 46.1215 35.2964 46.1195 35.2639H46.0708V35.3258C46.0282 35.3691 45.9734 35.3258 45.8943 35.2639H46.0708C46.0699 35.2536 46.0699 35.2433 46.0708 35.233C46.0105 35.2216 45.9486 35.2216 45.8882 35.233C45.8648 35.2342 45.8419 35.2404 45.821 35.251C45.8001 35.2617 45.7815 35.2766 45.7665 35.2949C45.5676 34.973 45.5879 34.7317 45.8273 34.5708C45.9028 34.1759 46.0651 33.8036 46.3022 33.4815C46.5429 33.1536 46.7243 32.7848 46.8379 32.3923C46.915 32.1117 47.0347 31.7487 47.197 31.3031C47.3079 30.9166 47.5637 30.5898 47.9093 30.3933C48.0774 30.2846 48.2782 30.2407 48.4754 30.2695C48.6134 30.3108 48.8427 30.2303 49.1633 30.0281C49.5108 29.7418 49.8091 29.3988 50.046 29.0132C50.2855 28.6501 50.5229 28.2664 50.7583 27.8621C51.3143 27.0121 51.8601 26.1539 52.3959 25.2875C52.9288 24.4252 53.3968 23.5232 53.796 22.5892C53.9445 22.2059 54.1344 21.8406 54.3621 21.4999C54.5813 21.1781 54.7842 20.8357 54.9709 20.4726C55.0385 20.3708 55.088 20.2576 55.117 20.1384C55.1853 19.9279 55.2645 19.7214 55.3544 19.5195C55.4518 19.2967 55.5411 19.1048 55.6223 18.9439C55.6953 18.8016 55.744 18.7273 55.7866 18.7088C55.7234 18.8379 55.6881 18.9793 55.6832 19.1234C55.6426 19.4081 55.5939 19.7217 55.537 20.0641C55.4762 20.4107 55.4275 20.7387 55.3909 21.0667C55.3544 21.3947 55.3301 21.5928 55.3301 21.6856C55.2494 22.1457 55.2006 22.611 55.184 23.0781C55.1684 23.5403 55.0564 23.9939 54.8552 24.4087C54.6543 24.3282 54.5569 24.4087 54.5569 24.5882C54.4796 24.7371 54.4379 24.9025 54.4352 25.0709C54.4352 25.1513 54.4352 25.2009 54.4961 25.2194C54.5569 25.238 54.5569 25.2875 54.5569 25.3679C54.6035 25.6104 54.5824 25.8612 54.4961 26.092C54.3973 26.3071 54.3178 26.5308 54.2587 26.7604C54.1827 27.027 54.1337 27.3007 54.1126 27.5774C54.0906 27.8539 54.0417 28.1276 53.9665 28.3943C53.8549 28.6945 53.7654 29.0028 53.6986 29.3164C53.6337 29.6376 53.585 29.9619 53.5525 30.2881C53.5119 30.8533 53.4531 31.4186 53.376 31.9838L53.1385 33.6796C53.0586 33.9508 52.9589 34.2156 52.8402 34.4717C52.719 34.7481 52.6588 35.048 52.6637 35.3506C52.6524 35.5319 52.6524 35.7138 52.6637 35.8952C52.6918 36.0756 52.6918 36.2594 52.6637 36.4398C52.5429 37.4195 52.364 38.3908 52.128 39.3485C51.8886 40.3181 51.6694 41.2877 51.4705 42.2573C51.3894 42.542 51.3102 42.804 51.2331 43.0433C51.154 43.2847 51.0748 43.5508 50.9957 43.8293C50.916 44.1042 50.8953 44.3933 50.9348 44.6771C50.9738 44.9584 50.9738 45.2438 50.9348 45.525C50.8537 46.1315 50.7948 46.738 50.7583 47.3445C50.7218 47.951 50.7015 48.5575 50.6974 49.1641V52.2585C50.6993 53.2926 50.6404 54.3259 50.5209 55.3529C50.4495 55.8456 50.308 56.3251 50.1008 56.7763C49.8965 57.2422 49.835 57.7598 49.9243 58.2617L50.046 58.8805C50.0876 59.1008 50.108 59.3247 50.1069 59.5489C50.1069 59.8708 50.1069 60.174 50.1069 60.4587C50.1069 60.7434 50.1069 61.0466 50.1069 61.3685C50.1069 62.4577 50.1556 63.5676 50.253 64.6981C50.3621 65.8258 50.3621 66.9618 50.253 68.0895C50.175 68.6202 50.1343 69.1559 50.1313 69.6925C50.1346 70.2316 50.1938 70.7688 50.3078 71.2954C50.3443 71.4563 50.3869 71.6605 50.4296 71.9142C50.4511 72.1165 50.534 72.3069 50.667 72.4589C50.7318 72.5465 50.8185 72.615 50.9179 72.6574C51.0174 72.6998 51.1262 72.7146 51.2331 72.7002C51.4197 72.6594 51.6127 72.6594 51.7993 72.7002C51.9724 72.7288 52.1357 72.8012 52.2741 72.9107C52.3889 73.0068 52.4894 73.1194 52.5724 73.2448C52.6094 73.2908 52.6344 73.3456 52.645 73.404C52.6557 73.4624 52.6516 73.5226 52.6333 73.579C52.5907 73.6781 52.6941 73.6719 52.9316 73.579C52.9977 73.5281 53.0528 73.4639 53.0937 73.3905C53.1345 73.317 53.1601 73.2359 53.169 73.152C53.2096 72.9498 53.3293 72.89 53.5281 72.9725C53.6864 73.0097 53.7656 73.0839 53.7656 73.183C53.7615 73.2904 53.7301 73.3949 53.6742 73.4862C53.6173 73.583 53.5684 73.6844 53.5281 73.7895C53.4855 73.8885 53.5281 73.9628 53.589 73.9999C53.8195 73.8133 54.0684 73.6515 54.3317 73.5172C54.5103 73.4346 54.5407 73.1933 54.423 72.7931C54.3439 72.5084 54.2769 72.2361 54.216 71.9761C54.1552 71.7162 54.0882 71.4377 54.0091 71.1592C53.9331 70.8927 53.8842 70.6189 53.863 70.3423C53.8427 70.0782 53.8122 69.8059 53.7716 69.5254C53.7314 69.2753 53.7314 69.0203 53.7716 68.7703C53.8169 68.5119 53.774 68.2455 53.6499 68.0153C53.5687 68.0978 53.5383 68.3041 53.5586 68.6342C53.5789 68.9642 53.5789 69.3376 53.5586 69.7543C53.5586 70.1999 53.5789 70.7054 53.6195 71.2706C53.5403 71.2706 53.4734 71.0973 53.4125 70.7569C53.348 70.3762 53.3073 69.9917 53.2907 69.6058C53.2694 69.1935 53.2694 68.7803 53.2907 68.368C53.2907 67.9843 53.2907 67.7512 53.2907 67.6687C53.3189 67.4316 53.3677 67.1976 53.4368 66.9694C53.5007 66.7671 53.5495 66.5602 53.5829 66.3505C53.6195 66.0287 53.6499 65.6821 53.6742 65.3231C53.6986 64.9642 53.6742 64.6176 53.6742 64.2958C53.6742 63.5696 53.7047 62.8435 53.7656 62.1173C53.8264 61.3911 53.8569 60.665 53.8569 59.9388C53.8554 59.2204 53.9042 58.5027 54.003 57.7913C54.1001 57.0984 54.1489 56.3994 54.1491 55.6995C54.1897 54.2059 54.2587 52.7226 54.3561 51.2497C54.4535 49.7768 54.6016 48.2935 54.8004 46.7999C54.8816 46.1522 54.9405 45.5064 54.977 44.8628C55.0135 44.2192 55.0724 43.5528 55.1535 42.8638C55.1823 42.5613 55.1823 42.2566 55.1535 41.9541C55.1239 41.6515 55.1239 41.3468 55.1535 41.0443C55.1941 40.8421 55.253 40.51 55.3301 40.0479C55.4072 39.5858 55.3666 39.2722 55.2083 39.1072C55.05 38.9421 55.0297 39.134 55.1474 39.6827L54.8796 40.8339L54.49 42.4987C54.4088 42.4574 54.3784 42.1851 54.3987 41.6817C54.4242 41.1134 54.4832 40.5472 54.5752 39.986C54.6726 39.3589 54.772 38.773 54.8735 38.2284C54.9022 37.9002 54.9931 37.5807 55.1414 37.2877C55.1977 37.5161 55.2182 37.7521 55.2022 37.987C55.2022 38.3707 55.2388 38.5626 55.324 38.5626C55.4092 38.5626 55.4701 38.4388 55.531 38.1974C55.5949 37.9293 55.6357 37.6559 55.6527 37.3805C55.6527 37.0793 55.673 36.7864 55.7136 36.5017C55.7542 36.217 55.7542 36.0355 55.7136 35.9571L56.0728 34.1375C56.1904 33.531 56.2899 32.9245 56.371 32.318C56.4482 32.0375 56.5172 31.7652 56.578 31.5011C56.6389 31.2412 56.7059 30.9689 56.785 30.6842C56.8374 30.4463 56.9066 30.2126 56.992 29.9848C57.0961 29.7762 57.2271 29.5827 57.3816 29.4093C57.5618 29.2406 57.6961 29.0274 57.7712 28.7904C57.8321 28.5676 57.899 28.3138 57.9782 28.0353C58.0573 27.7568 58.1364 27.5836 58.2156 27.4165C58.3034 27.2186 58.403 27.0264 58.5139 26.8409C58.755 26.3031 58.9151 25.7314 58.9887 25.1452C59.0699 24.5386 59.149 23.9528 59.2261 23.3875C59.3073 22.9419 59.4067 22.4881 59.5244 22.026C59.6421 21.5639 59.7415 21.11 59.8227 20.6644C59.9404 20.1404 60.0601 19.6247 60.1819 19.1172C60.3036 18.6097 60.4436 18.094 60.6019 17.57C60.6354 17.3571 60.6947 17.1492 60.7785 16.9511C60.8962 16.6293 61.0159 16.2662 61.1376 15.8619C61.2594 15.4575 61.4177 14.9521 61.6125 14.3456L61.789 14.5251C61.9473 13.9186 62.0873 13.4338 62.209 13.0707C62.3308 12.7076 62.4505 12.3755 62.5682 12.0743C62.652 11.8913 62.7114 11.6977 62.7448 11.4987C63.1181 10.2663 63.4169 9.0117 63.6396 7.74212L63.877 7.01803C63.9554 6.78324 63.9554 6.52872 63.877 6.29393L64.2179 5.63173ZM9.58183 65.2365C9.55139 65.2365 9.58183 65.1437 9.58183 64.958C9.60451 65.0494 9.60451 65.1451 9.58183 65.2365ZM10.1175 64.0854C10.1541 64.042 10.1784 64.042 10.1784 64.0854C10.1784 64.1287 10.1175 64.1287 10.1175 64.0854ZM14.6711 56.4545V56.4174H14.738L14.6711 56.4545ZM18.0436 51.6705C18.001 51.7077 18.001 51.6705 18.0436 51.6087C18.0862 51.5468 18.0801 51.6272 18.0436 51.6705ZM29.8413 34.0385C29.7196 34.2428 29.6222 34.3418 29.543 34.3418V34.2799C29.5796 34.1994 29.6526 34.0757 29.75 33.9147C29.8217 33.778 29.9379 33.6708 30.0787 33.6115C30.0361 33.6981 29.957 33.8529 29.8413 34.0385ZM36.7507 22.5273C36.7081 22.651 36.6533 22.6696 36.5742 22.5892L36.6351 22.5273C36.6247 22.5121 36.618 22.4946 36.6155 22.4763C36.613 22.458 36.6148 22.4393 36.6207 22.4218C36.6266 22.4043 36.6365 22.3885 36.6496 22.3757C36.6627 22.3628 36.6786 22.3532 36.696 22.3478C36.7609 22.3164 36.8205 22.2746 36.8725 22.224C36.8245 22.324 36.7838 22.4274 36.7507 22.5335V22.5273ZM38.0291 21.7103C38.0537 21.5527 38.103 21.4002 38.1752 21.2586C38.2529 21.1011 38.3425 20.9501 38.4431 20.8068C38.5405 20.6644 38.6135 20.5964 38.6501 20.5964C38.6866 20.5964 38.6988 20.7387 38.6501 20.8996C38.628 21.0648 38.5871 21.2268 38.5283 21.3823C38.4756 21.5322 38.4061 21.6755 38.3213 21.8094C38.2402 21.929 38.1813 21.9888 38.1448 21.9888C38.0962 21.9658 38.0579 21.925 38.0376 21.8745C38.0172 21.824 38.0164 21.7676 38.0352 21.7165L38.0291 21.7103ZM37.7552 48.5823C37.7573 48.5597 37.7573 48.5369 37.7552 48.5142H37.8161L37.7552 48.5823ZM37.5847 48.638C37.5857 48.5374 37.6141 48.439 37.6668 48.3538C37.7195 48.2686 37.7943 48.1999 37.883 48.1553C37.8922 48.2578 37.8679 48.3606 37.814 48.4478C37.7601 48.535 37.6796 48.6018 37.5847 48.638ZM39.2832 46.3048C39.2722 46.4119 39.2289 46.5128 39.1591 46.5937C39.0893 46.6746 38.9965 46.7315 38.8936 46.7566C38.9911 46.6973 39.0727 46.6144 39.131 46.5152C39.1858 46.4286 39.2467 46.3234 39.3014 46.2182L39.2832 46.3048ZM55.3422 37.1886C55.3788 37.1082 55.4031 37.1082 55.4031 37.1886C55.4031 37.2691 55.2996 37.2691 55.3422 37.1886ZM53.4368 18.2322L53.5586 18.2941C53.516 18.2941 53.4977 18.2941 53.4977 18.3869C53.4977 18.4798 53.4977 18.4798 53.4368 18.4798C53.3151 18.3807 53.3151 18.2693 53.4368 18.2322ZM50.6548 24.2911L50.5939 24.2292C50.5128 24.2292 50.4235 24.1384 50.3261 23.9569C50.2493 23.8374 50.1995 23.7021 50.18 23.5608C50.2683 23.226 50.4102 22.9081 50.6 22.6201C50.876 22.1167 51.1946 21.5928 51.5558 21.0481C51.917 20.5035 52.2457 20.027 52.542 19.6185C52.6919 19.3883 52.8722 19.1801 53.0777 18.9996C53.1568 19.043 53.169 19.111 53.0777 19.2101C52.9863 19.3091 52.9559 19.4205 52.9011 19.5442C52.8403 19.6713 52.7914 19.8039 52.755 19.9403C52.7347 19.9834 52.7309 20.0327 52.7444 20.0785C52.7579 20.1243 52.7877 20.1633 52.8281 20.1879C52.7223 20.3412 52.6459 20.5133 52.6028 20.6954C52.5548 20.9177 52.4638 21.1281 52.335 21.3143L51.4401 22.9481C51.28 23.1714 51.1491 23.4148 51.0505 23.6722C50.8922 24.0435 50.7603 24.2498 50.6548 24.2911ZM54.977 19.9589C54.8755 20.2023 54.7558 20.4746 54.6178 20.7758L54.2282 21.6237C54.1655 21.7827 54.0859 21.9342 53.9908 22.0755L53.9299 22.0136C53.8522 22.2115 53.729 22.3876 53.5708 22.5273C53.4123 22.6668 53.2891 22.8429 53.2116 23.0409C53.1326 23.2407 53.0735 23.4481 53.0351 23.6598C52.9932 23.879 52.9127 24.0886 52.7976 24.2787C52.6679 24.4208 52.5479 24.5717 52.4385 24.7305L51.9332 25.4298C51.7567 25.6712 51.5862 25.8816 51.4279 26.0487C51.2696 26.2158 51.1662 26.321 51.1296 26.321C51.0931 26.321 51.1296 26.092 51.3062 25.7455C51.4827 25.3989 51.6714 24.9657 51.9149 24.4458C52.1584 23.926 52.4689 23.3628 52.8098 22.781C53.1507 22.1993 53.4673 21.6608 53.7656 21.1781C54.0639 20.6954 54.3317 20.2931 54.5691 19.9403C54.8065 19.5876 54.9648 19.4762 55.044 19.5133C55.1231 19.5504 55.05 19.6866 54.9526 19.928L54.977 19.9589ZM55.7197 17.112C55.4802 17.5948 55.2022 18.1188 54.8857 18.684C54.5691 19.2492 54.2444 19.767 53.9117 20.2374C53.5951 20.7201 53.376 20.9821 53.2542 21.0234H53.1933C53.1507 21.0234 53.2603 20.7696 53.5221 20.2683C53.7838 19.767 54.0882 19.2162 54.4474 18.6345L55.4336 17.0316C55.7298 16.5488 55.9185 16.326 55.9997 16.3632C56.0809 16.4003 55.9814 16.6396 55.7014 17.0811L55.7197 17.112ZM56.2554 14.5684C56.2128 14.5684 56.2128 14.5684 56.2554 14.5065H56.3163L56.2554 14.5684ZM61.7342 2.19073L61.4968 2.43209C61.5158 2.31778 61.5464 2.20579 61.5881 2.09789C61.649 1.91842 61.716 1.82559 61.7951 1.82559L61.7342 1.88747C61.9209 1.87922 61.9148 1.97618 61.716 2.17835L61.7342 2.19073Z" fill="#F91616"/>
</svg>
