<svg width="1322" height="1244" viewBox="0 0 1322 1244" fill="none" xmlns="http://www.w3.org/2000/svg">
<path d="M1184.6 575.346C1185.56 575.64 1186.43 576.164 1187.13 576.871C1187.84 577.578 1188.37 578.448 1188.66 579.403V582.42L1185.64 588.559C1184.24 589.994 1183.21 591.742 1182.62 593.657C1182.02 595.567 1180.99 597.312 1179.6 598.755C1178.81 600.572 1177.79 602.285 1176.58 603.853C1175.13 605.35 1173.94 607.072 1173.04 608.951C1172.14 610.829 1170.94 612.55 1169.5 614.048C1166.63 616.295 1164.19 619.045 1162.31 622.163C1161.34 625.372 1159.98 628.447 1158.25 631.319C1157.03 632.5 1156.01 633.87 1155.23 635.376L1153.14 639.434C1151.62 640.994 1150.26 642.702 1149.08 644.532C1147.89 646.357 1146.53 648.064 1145.02 649.63L1142 652.647C1140.73 653.887 1139.85 655.483 1139.5 657.225C1139.14 658.965 1138.27 660.558 1137 661.803C1135.69 663.105 1134.66 664.663 1133.98 666.38C1133.29 668.095 1132.27 669.652 1130.96 670.958C1129.29 672.78 1127.92 674.851 1126.9 677.096L1123.88 683.235C1123.15 683.963 1122.84 684.379 1122.84 684.795C1122.84 685.211 1122.84 685.628 1121.8 686.356C1119.21 688.23 1117.1 690.69 1115.65 693.535C1114.35 696.188 1112.63 698.613 1110.55 700.713C1109.33 702.279 1108.31 703.992 1107.53 705.811C1106.25 707.08 1105.07 708.436 1103.99 709.869C1102.9 711.305 1101.72 712.661 1100.44 713.926L1097.42 716.943L1085.24 729.116L1082.22 732.133C1079.1 733.328 1076.31 735.255 1074.09 737.751C1072.01 740.144 1069.62 742.641 1066.91 745.346C1061.37 748.804 1055.59 751.864 1049.62 754.502C1043.51 757.207 1037.4 760.259 1031.29 763.657H1019.1C1018.15 763.681 1017.21 763.508 1016.33 763.15C1015.45 762.792 1014.66 762.256 1014 761.576L1010.98 758.559C1010.42 757.637 1010.07 756.609 1009.94 755.542C1009.94 754.918 1009.21 753.877 1007.85 752.525C1006.18 750.709 1004.81 748.636 1003.79 746.387C1002.02 743.353 1000.65 740.1 999.729 736.711V715.799C999.614 711.715 999.963 707.632 1000.77 703.626L1002.85 697.488L1004.94 691.35C1005.78 688.588 1006.79 685.878 1007.96 683.235C1009.09 680.3 1009.79 677.216 1010.04 674.079C1010.39 671.296 1011.09 668.569 1012.12 665.964C1013.48 663.259 1012.75 661.907 1010.04 661.907C1007.87 661.656 1005.77 660.947 1003.9 659.826C1003.35 659.792 1002.8 659.867 1002.28 660.045C1001.76 660.224 1001.28 660.503 1000.87 660.866C997.655 663.903 994.916 667.411 992.751 671.27L988.689 677.408L984.627 683.547L980.565 689.685C979.377 691.51 978.017 693.217 976.503 694.783C975.105 696.218 974.069 697.966 973.483 699.881C972.885 701.791 971.851 703.537 970.462 704.979C969.108 707.06 967.963 708.932 966.921 710.597C965.933 712.262 964.744 713.8 963.38 715.175C962.026 717.256 960.88 719.128 959.839 720.793C958.799 722.567 957.961 724.451 957.339 726.411C955.256 729.116 953.381 731.821 951.715 734.526C949.917 737.435 948.383 740.499 947.132 743.682L944.112 746.699L941.091 749.716L934.946 755.854C933.874 756.845 933.023 758.05 932.447 759.392C931.871 760.733 931.019 761.938 929.947 762.929C928.593 765.01 927.239 767.195 925.885 769.587C924.492 772.026 922.775 774.266 920.782 776.246C919.436 778.26 917.902 780.141 916.199 781.864C914.484 783.576 912.948 785.458 911.616 787.482L908.596 790.499C906.746 793.642 904.306 796.397 901.41 798.614C898.53 800.806 895.814 803.205 893.286 805.793L887.141 808.81L883.6 810.371C882.382 810.802 881.198 811.324 880.058 811.931H875.372C872.436 810.791 869.347 810.09 866.206 809.851H857.041L850.896 806.834C849.341 806.621 847.899 805.906 846.789 804.797C845.68 803.689 844.964 802.248 844.751 800.695C844.494 798.526 843.785 796.435 842.668 794.557C841.279 793.863 841.279 792.858 842.668 791.54C843.467 788.556 843.817 785.471 843.709 782.384C843.697 781.345 843.412 780.326 842.882 779.432C842.352 778.537 841.596 777.797 840.689 777.286C838.852 776.035 837.436 774.258 836.627 772.188C836.819 771.686 836.819 771.13 836.627 770.628C836.521 770.381 836.466 770.116 836.466 769.848C836.466 769.579 836.521 769.314 836.627 769.067C835.681 764.885 834.321 760.807 832.565 756.895C832.457 753.808 832.808 750.723 833.607 747.739C834.723 745.861 835.433 743.77 835.69 741.601C835.475 737.439 836.186 733.282 837.773 729.428C838.136 729.018 838.416 728.541 838.594 728.023C838.773 727.506 838.848 726.958 838.814 726.411C838.78 725.864 838.855 725.317 839.034 724.799C839.213 724.281 839.492 723.804 839.856 723.394C840.497 722.813 841.012 722.107 841.37 721.32C841.729 720.533 841.922 719.681 841.939 718.816C841.932 717.231 842.288 715.665 842.98 714.238L846.001 708.1C847.355 706.748 848.084 705.707 848.084 705.083C848.154 703.911 848.457 702.764 848.976 701.71C849.494 700.656 850.218 699.716 851.104 698.945C853.153 696.099 854.865 693.027 856.208 689.789C857.037 687.326 858.047 684.926 859.228 682.61L864.956 670.022C865.745 668.202 866.76 666.49 867.977 664.924C870.604 661.671 872.36 657.804 873.08 653.687C873.046 653.141 873.121 652.593 873.3 652.075C873.479 651.557 873.758 651.08 874.122 650.67C874.729 649.584 875.085 648.375 875.163 647.133C875.234 645.89 875.59 644.679 876.205 643.596L879.225 637.457C880.453 635.073 881.297 632.51 881.725 629.862C882.142 627.213 882.987 624.648 884.224 622.268C884.35 619.745 885.064 617.287 886.308 615.089C887.559 611.907 889.093 608.843 890.89 605.933L896.514 596.778C897.657 594.034 899.401 591.581 901.618 589.599C902.167 588.675 902.521 587.648 902.659 586.582C902.795 585.515 903.149 584.488 903.701 583.565L906.721 577.426C907.917 575.662 908.93 573.779 909.742 571.808C910.548 569.835 911.561 567.952 912.762 566.19C913.698 563.074 915.462 560.27 917.866 558.075C918.763 556.536 919.129 554.745 918.907 552.977C917.553 551.625 916.824 550.584 916.824 549.96C916.594 548.192 916.96 546.398 917.866 544.862C918.56 544.169 919.567 544.169 920.886 544.862C921.511 544.862 922.552 544.238 923.906 542.781C924.979 541.79 925.83 540.585 926.406 539.244C926.982 537.903 927.833 536.698 928.906 535.707C931.175 533.512 933.233 531.108 935.051 528.528C936.459 526.255 938.176 524.189 940.154 522.39C943.371 519.35 946.11 515.843 948.278 511.986C950.27 508.649 953.062 505.86 956.402 503.871C958.99 502.06 961.396 500.005 963.588 497.732C966.578 493.69 970.889 490.819 975.774 489.617H978.794C979.342 489.651 979.89 489.576 980.408 489.398C980.927 489.219 981.405 488.94 981.815 488.577C984.063 487.553 986.136 486.184 987.96 484.519C991.337 481.588 995.127 479.17 999.208 477.341C1001.41 476.105 1003.87 475.393 1006.39 475.26H1012.54L1018.68 478.277C1020.19 479.069 1021.56 480.086 1022.75 481.294L1028.89 487.432C1030.07 488.656 1031.44 489.676 1032.95 490.45C1035.61 491.755 1038.03 493.476 1040.14 495.547L1046.29 501.686C1047.64 503.038 1048.37 504.079 1048.37 504.703C1048.37 505.327 1049.72 508.656 1050.45 510.321C1051.15 512.111 1051.5 514.018 1051.49 515.939C1051.9 516.308 1052.38 516.59 1052.9 516.768C1053.42 516.947 1053.97 517.019 1054.51 516.98C1056.76 515.955 1058.83 514.586 1060.66 512.922C1062.01 511.57 1063.05 510.841 1063.68 510.841C1064.75 510.706 1065.77 510.352 1066.7 509.801L1072.84 503.663C1073.09 503.359 1073.4 503.114 1073.75 502.945C1074.1 502.777 1074.48 502.689 1074.87 502.689C1075.26 502.689 1075.65 502.777 1076 502.945C1076.35 503.114 1076.66 503.359 1076.91 503.663C1077.53 504.274 1078.05 504.976 1078.47 505.743C1079.06 506.681 1079.94 507.409 1080.97 507.824C1081.87 508.343 1082.62 509.084 1083.15 509.977C1083.68 510.87 1083.97 511.885 1083.99 512.922V515.939C1085.34 517.292 1086.38 518.02 1087.01 518.02C1087.51 518.222 1088.07 518.222 1088.57 518.02C1089.07 517.818 1089.63 517.818 1090.13 518.02C1090.63 518.222 1091.19 518.222 1091.7 518.02C1092.2 517.818 1092.76 517.818 1093.26 518.02C1094.61 518.02 1095.34 518.02 1095.34 519.06C1095.45 521.158 1095.09 523.253 1094.3 525.199C1094.5 525.699 1094.5 526.259 1094.3 526.759C1094.1 527.26 1094.1 527.819 1094.3 528.32C1094.26 528.867 1094.33 529.416 1094.51 529.935C1094.69 530.454 1094.97 530.931 1095.34 531.337C1095.97 532.69 1096.69 534.25 1097.42 535.915C1098.15 537.579 1098.78 539.14 1099.51 540.493C1100.31 544.499 1100.65 548.582 1100.55 552.665C1100.58 553.212 1100.51 553.76 1100.33 554.277C1100.15 554.795 1099.87 555.273 1099.51 555.682C1098.18 557.455 1097.45 559.605 1097.42 561.821C1097.36 564.029 1096.63 566.167 1095.34 567.959C1094.04 572.171 1092.33 576.248 1090.24 580.132C1089.44 582.075 1089.08 584.172 1089.2 586.27C1089.23 586.817 1089.15 587.364 1088.98 587.882C1088.8 588.4 1088.52 588.877 1088.15 589.287C1087.46 590.714 1087.11 592.279 1087.11 593.865C1087.12 595.45 1086.76 597.016 1086.07 598.443C1085.38 599.869 1085.02 601.435 1085.03 603.02C1085.01 603.885 1084.82 604.737 1084.46 605.524C1084.1 606.311 1083.59 607.017 1082.95 607.598C1082.25 609.025 1081.9 610.59 1081.9 612.176C1081.89 613.04 1081.69 613.892 1081.34 614.679C1080.98 615.467 1080.46 616.172 1079.82 616.753C1078.85 619.961 1077.49 623.036 1075.76 625.909C1074.62 628.842 1073.92 631.927 1073.68 635.064C1073.71 635.611 1073.64 636.159 1073.46 636.677C1073.28 637.194 1073 637.672 1072.64 638.082C1071.39 640.512 1070.38 643.055 1069.61 645.676C1068.84 648.295 1067.83 650.837 1066.59 653.271C1066.23 653.681 1065.95 654.158 1065.77 654.676C1065.59 655.194 1065.52 655.742 1065.55 656.288C1065.3 658.458 1064.59 660.549 1063.47 662.427L1060.45 668.565C1059.65 670.509 1059.29 672.605 1059.41 674.703V683.859C1061.18 684.089 1062.97 683.723 1064.51 682.819L1076.7 673.663L1085.86 664.508C1087.05 663.292 1088.42 662.274 1089.92 661.49C1093.79 659.326 1097.3 656.59 1100.34 653.375L1106.48 647.237C1107.15 646.557 1107.94 646.021 1108.82 645.663C1109.7 645.305 1110.64 645.133 1111.59 645.156C1112.54 645.18 1113.48 645.007 1114.36 644.649C1115.24 644.291 1116.03 643.755 1116.69 643.075C1117.77 642.051 1119.05 641.256 1120.44 640.737C1121.84 640.219 1123.33 639.988 1124.82 640.058C1125.44 640.058 1126.48 639.434 1127.84 637.977L1133.98 631.839C1136.06 629.737 1137.78 627.313 1139.08 624.66C1139.38 623.705 1139.9 622.835 1140.61 622.128C1141.32 621.421 1142.19 620.898 1143.15 620.603C1144.1 620.308 1144.97 619.785 1145.68 619.077C1146.39 618.37 1146.91 617.501 1147.21 616.545L1150.23 610.407C1150.76 609.297 1151.46 608.278 1152.31 607.39C1153.16 606.498 1153.86 605.48 1154.39 604.373C1155.8 602.099 1157.52 600.033 1159.5 598.234C1161.71 596.246 1163.45 593.795 1164.6 591.056C1165.38 589.549 1166.4 588.179 1167.62 586.998C1168.98 585.646 1170.02 584.917 1170.64 584.917C1171.57 585.471 1172.59 585.825 1173.66 585.958C1174.73 586.101 1175.76 586.455 1176.68 586.998L1184.6 575.346ZM1029.62 562.133V559.116C1028.89 558.491 1028.48 558.075 1028.06 558.075C1027.64 558.075 1027.23 558.075 1026.5 557.035L1020.35 550.896C1019.52 550.172 1018.43 549.799 1017.33 549.856C1016.16 549.926 1015.01 550.229 1013.95 550.747C1012.9 551.265 1011.96 551.988 1011.19 552.873L1006.6 557.451C1004.89 559.166 1003.36 561.048 1002.02 563.069L986.71 578.363C986.3 578.726 985.822 579.005 985.304 579.184C984.785 579.362 984.237 579.437 983.69 579.403C983.459 577.636 983.826 575.842 984.731 574.305C985.524 572.36 985.879 570.265 985.773 568.167C984.266 568.95 982.895 569.969 981.711 571.184L978.69 577.323L975.67 580.34C974.151 581.901 972.791 583.609 971.608 585.438L967.546 591.576C965.532 594.281 963.484 596.813 961.401 599.171C959.245 601.756 957.522 604.672 956.298 607.806V610.823C956.348 611.745 956.073 612.656 955.522 613.397C954.97 614.139 954.176 614.663 953.277 614.881C951.889 616.268 951.889 617.274 953.277 617.898V620.915C952.097 623.231 951.088 625.631 950.257 628.094C950.257 628.822 949.528 629.758 948.174 631.111C947.571 631.613 947.076 632.23 946.718 632.928C946.36 633.625 946.147 634.387 946.091 635.168C944.786 639.381 943.077 643.457 940.987 647.341C938.89 651.221 937.18 655.298 935.884 659.514C934.996 662.141 933.618 664.577 931.822 666.692C931.141 667.353 930.605 668.146 930.246 669.024C929.888 669.901 929.715 670.843 929.739 671.79C929.845 673.888 929.49 675.983 928.697 677.929C927.423 679.169 926.551 680.764 926.198 682.506C925.838 684.246 924.968 685.84 923.698 687.084C922.367 688.856 921.637 691.007 921.615 693.222C921.639 694.17 921.466 695.112 921.107 695.989C920.749 696.866 920.213 697.66 919.532 698.32C917.763 702.228 916.402 706.307 915.47 710.493C915.47 711.846 915.47 712.574 916.512 712.574H917.553L920.573 709.557C921.46 708.785 922.183 707.845 922.702 706.791C923.22 705.737 923.524 704.591 923.594 703.418C923.847 701.248 924.557 699.157 925.677 697.28C927.34 695.455 928.71 693.385 929.739 691.142C930.982 688.579 932.52 686.17 934.322 683.963C936.117 681.751 937.654 679.343 938.904 676.784C939.314 676.421 939.792 676.142 940.311 675.963C940.829 675.785 941.377 675.71 941.925 675.744C942.707 675.688 943.47 675.474 944.168 675.117C944.866 674.759 945.484 674.265 945.987 673.663C950.708 666.172 954.18 660.727 956.402 657.329C958.624 653.93 962.373 648.485 967.65 640.995C969.004 638.914 970.358 637.145 971.712 635.376C973.066 633.608 974.42 631.839 975.774 629.758C977.65 625.19 980.839 621.28 984.939 618.522L987.96 615.505C989.175 614.321 990.195 612.951 990.98 611.447L993.063 607.39C994.875 604.805 996.933 602.4 999.208 600.211C1000.42 598.642 1001.44 596.93 1002.23 595.113L1008.37 585.958C1010.81 582.677 1013.53 579.614 1016.5 576.802C1018.47 575.002 1020.19 572.936 1021.6 570.664C1022.38 569.157 1023.4 567.787 1024.62 566.606C1025.9 565.341 1027.08 563.985 1028.16 562.549C1029.25 561.116 1030.43 559.76 1031.7 558.491C1032.07 558.082 1032.35 557.604 1032.53 557.086C1032.7 556.569 1032.78 556.021 1032.75 555.474L1029.62 562.133ZM923.594 550.896C923.453 550.88 923.31 550.895 923.176 550.941C923.042 550.988 922.921 551.064 922.82 551.164C922.72 551.264 922.644 551.386 922.598 551.52C922.551 551.654 922.536 551.796 922.552 551.937V550.896H923.594ZM925.677 544.758C925.818 544.775 925.961 544.759 926.095 544.713C926.229 544.667 926.35 544.591 926.45 544.49C926.551 544.39 926.627 544.269 926.673 544.135C926.72 544.001 926.735 543.858 926.718 543.718L925.677 544.758ZM975.67 577.323C975.811 577.339 975.953 577.324 976.087 577.277C976.221 577.231 976.343 577.155 976.443 577.055C976.544 576.955 976.62 576.833 976.666 576.699C976.713 576.565 976.728 576.423 976.711 576.282L975.67 577.323ZM986.918 551.833C987.059 551.85 987.202 551.834 987.336 551.788C987.47 551.741 987.592 551.665 987.692 551.565C987.792 551.465 987.868 551.343 987.915 551.21C987.961 551.076 987.977 550.933 987.96 550.792L986.918 551.833ZM990.98 547.775C990.694 547.718 990.399 547.733 990.12 547.817C989.841 547.901 989.588 548.053 989.382 548.259C989.175 548.465 989.023 548.718 988.939 548.997C988.854 549.276 988.84 549.571 988.897 549.856C989.165 549.89 989.437 549.862 989.693 549.775C989.948 549.687 990.181 549.543 990.372 549.352C990.563 549.161 990.707 548.929 990.795 548.674C990.882 548.419 990.91 548.147 990.876 547.879L990.98 547.775ZM990.98 559.012C990.694 558.955 990.399 558.969 990.12 559.053C989.841 559.138 989.588 559.29 989.382 559.495C989.175 559.701 989.023 559.955 988.939 560.233C988.854 560.512 988.84 560.807 988.897 561.092C989.175 561.13 989.458 561.101 989.723 561.009C989.988 560.916 990.227 560.761 990.42 560.558C990.613 560.355 990.755 560.109 990.835 559.84C990.914 559.571 990.928 559.287 990.876 559.012H990.98ZM994.001 544.758C993.715 544.701 993.419 544.715 993.141 544.8C992.862 544.884 992.608 545.036 992.402 545.242C992.196 545.448 992.044 545.701 991.959 545.98C991.875 546.258 991.861 546.553 991.918 546.839C992.196 546.877 992.479 546.848 992.743 546.755C993.008 546.662 993.247 546.508 993.44 546.305C993.634 546.101 993.776 545.855 993.855 545.586C993.934 545.317 993.949 545.034 993.896 544.758H994.001ZM994.001 555.994C993.715 555.937 993.419 555.952 993.141 556.036C992.862 556.121 992.608 556.272 992.402 556.478C992.196 556.684 992.044 556.937 991.959 557.216C991.875 557.495 991.861 557.79 991.918 558.075C992.196 558.113 992.479 558.084 992.743 557.991C993.008 557.899 993.247 557.744 993.44 557.541C993.634 557.338 993.776 557.091 993.855 556.823C993.934 556.554 993.949 556.27 993.896 555.994H994.001ZM995.042 542.781C994.756 542.724 994.461 542.739 994.182 542.823C993.903 542.907 993.65 543.059 993.443 543.265C993.237 543.471 993.085 543.724 993.001 544.003C992.916 544.282 992.902 544.577 992.959 544.862C993.237 544.9 993.52 544.871 993.785 544.778C994.05 544.686 994.289 544.531 994.482 544.328C994.675 544.125 994.817 543.878 994.897 543.61C994.976 543.341 994.99 543.057 994.938 542.781H995.042ZM995.042 554.018C994.901 554.001 994.759 554.016 994.625 554.063C994.491 554.109 994.369 554.185 994.269 554.285C994.168 554.385 994.092 554.507 994.046 554.641C993.999 554.775 993.984 554.917 994.001 555.058L995.042 554.018ZM998.063 539.764C997.777 539.707 997.481 539.722 997.202 539.806C996.924 539.89 996.67 540.042 996.464 540.248C996.258 540.454 996.106 540.707 996.021 540.986C995.937 541.264 995.923 541.56 995.98 541.845C996.276 541.909 996.584 541.895 996.873 541.806C997.163 541.717 997.425 541.555 997.634 541.336C997.843 541.116 997.992 540.847 998.067 540.554C998.142 540.26 998.141 539.953 998.063 539.66V539.764ZM1001.08 536.747C1000.8 536.69 1000.5 536.704 1000.22 536.789C999.944 536.873 999.69 537.025 999.484 537.231C999.278 537.437 999.126 537.69 999.042 537.969C998.957 538.247 998.943 538.542 999 538.828C999.296 538.892 999.604 538.878 999.894 538.789C1000.18 538.7 1000.45 538.538 1000.65 538.319C1000.86 538.099 1001.01 537.83 1001.09 537.537C1001.16 537.243 1001.16 536.936 1001.08 536.643V536.747ZM1004.1 532.69C1003.5 533.191 1003.01 533.809 1002.65 534.506C1002.29 535.203 1002.08 535.966 1002.02 536.747C1002.57 536.781 1003.12 536.706 1003.63 536.528C1004.15 536.349 1004.63 536.07 1005.04 535.707C1005.74 535.013 1005.74 534.007 1005.04 532.69H1004.1ZM1032.64 541.845C1032.66 541.704 1032.64 541.562 1032.6 541.428C1032.55 541.294 1032.47 541.172 1032.37 541.072C1032.27 540.972 1032.15 540.896 1032.02 540.85C1031.88 540.803 1031.74 540.788 1031.6 540.805L1032.64 541.845ZM1032.64 529.672C1032.62 529.813 1032.64 529.956 1032.69 530.09C1032.73 530.223 1032.81 530.345 1032.91 530.445C1033.01 530.545 1033.13 530.621 1033.27 530.668C1033.4 530.714 1033.54 530.73 1033.68 530.713L1032.64 529.672ZM1036.7 550.48C1036.7 549.128 1035.35 547.775 1032.64 546.423V547.463C1033.98 549.487 1035.72 551.221 1037.74 552.561H1038.79L1036.7 550.48ZM1060.24 684.587C1060.38 684.604 1060.52 684.589 1060.66 684.542C1060.79 684.496 1060.91 684.42 1061.01 684.319C1061.12 684.219 1061.19 684.098 1061.24 683.964C1061.28 683.83 1061.3 683.687 1061.28 683.547L1060.24 684.587Z" fill="white" fill-opacity="0.02"/>
<path d="M1744 22.4804C1740.7 26.4084 1739.05 29.5167 1736.61 34.0288C1734.15 38.5361 1731.26 42.7881 1727.96 46.7216C1726.56 48.1567 1725.53 49.9044 1724.94 51.8195C1724.34 53.7299 1723.31 55.4752 1721.92 56.9175C1720.65 58.1577 1719.77 59.753 1719.42 61.4952C1719.06 63.2352 1718.19 64.8288 1716.92 66.0729L1713.9 69.0901C1712.61 72.3535 1710.9 75.4321 1708.8 78.2456C1706.6 81.1919 1704.54 84.2477 1702.65 87.401C1701.43 88.5818 1700.41 89.952 1699.63 91.4586C1697.25 95.7236 1694.53 99.7938 1691.51 103.631L1682.34 118.925C1679.78 121.398 1677.69 124.326 1676.2 127.56C1674.69 130.884 1672.99 134.115 1671.09 137.236L1668.07 143.374L1665.05 149.513C1663.7 150.865 1662.97 151.906 1662.97 152.53C1661.61 153.917 1660.74 155.705 1660.47 157.628C1660.19 159.547 1659.32 161.33 1657.97 162.726C1656.7 163.966 1655.83 165.561 1655.47 167.303C1655.11 169.043 1654.24 170.637 1652.97 171.881C1652.24 172.609 1651.93 173.026 1651.93 173.442C1651.93 173.858 1651.93 174.274 1650.89 175.002C1648.15 178.849 1645.75 182.921 1643.7 187.175C1642.45 189.733 1640.91 192.141 1639.12 194.354C1637.32 196.559 1635.78 198.969 1634.54 201.532C1632.73 205.369 1630.3 208.884 1627.35 211.936L1624.33 214.953C1623.06 216.194 1622.18 217.789 1621.83 219.531C1621.47 221.271 1620.6 222.865 1619.33 224.109C1618.8 225.216 1618.09 226.234 1617.25 227.126C1616.4 228.016 1615.7 229.034 1615.16 230.143C1613.88 232.041 1612.86 234.107 1612.14 236.282C1611.55 238.192 1610.51 239.937 1609.12 241.38L1606.1 247.518C1601.31 256.327 1596.9 264.996 1592.88 273.528C1588.85 282.059 1584.27 290.764 1579.13 299.642C1577.74 302.347 1576.39 304.878 1575.07 307.237C1573.52 309.871 1571.82 312.408 1569.96 314.831C1569.6 315.241 1569.32 315.719 1569.14 316.236C1568.96 316.754 1568.89 317.302 1568.92 317.849C1568.95 318.395 1568.88 318.943 1568.7 319.461C1568.52 319.979 1568.24 320.456 1567.88 320.866C1566.66 322.046 1565.64 323.417 1564.86 324.923L1562.78 328.981C1562.52 331.15 1561.81 333.241 1560.69 335.119L1539.24 380.896C1537.96 382.137 1537.09 383.732 1536.74 385.474C1536.38 387.214 1535.51 388.808 1534.24 390.052L1531.53 393.277V396.294L1528.51 405.45C1527.78 406.802 1527.16 408.363 1526.43 410.028C1525.7 411.692 1525.07 413.253 1524.34 414.605C1523.62 415.958 1521.84 419.911 1520.8 422.2C1519.67 424.985 1518.84 427.879 1518.3 430.835L1515.28 436.974L1506.12 452.268C1504.02 456.148 1502.31 460.225 1501.01 464.44L1497.99 470.578C1496.64 474.012 1495.29 477.237 1493.93 480.254C1492.58 483.271 1491.22 486.497 1489.87 489.93C1487.81 492.767 1486.09 495.84 1484.77 499.085C1483.41 501.79 1482.27 504.391 1481.23 506.68C1480.19 509.141 1479.35 511.681 1478.73 514.275C1478.73 515.003 1478 515.94 1476.64 517.292C1476.31 518.634 1475.68 519.883 1474.8 520.946C1473.91 522.009 1472.8 522.858 1471.54 523.431C1469.46 524.783 1468.52 526.136 1468.52 527.488C1468.54 528.435 1468.36 529.375 1468 530.251C1467.64 531.128 1467.11 531.922 1466.44 532.586L1463.42 535.603C1462.53 536.375 1461.81 537.315 1461.29 538.369C1460.77 539.423 1460.47 540.569 1460.39 541.742V544.759C1459.25 547.691 1458.55 550.776 1458.31 553.914C1458.35 559.93 1456.17 565.749 1452.17 570.248C1451.49 570.909 1450.95 571.702 1450.59 572.58C1450.23 573.457 1450.06 574.399 1450.08 575.346C1450.19 577.444 1449.83 579.539 1449.04 581.485C1448.35 582.911 1447.99 584.477 1448 586.062C1448.01 587.648 1447.65 589.213 1446.96 590.64C1446.34 591.724 1445.99 592.934 1445.92 594.177C1445.84 595.419 1445.48 596.628 1444.88 597.715L1441.86 606.87C1441.61 610.992 1440.91 615.074 1439.77 619.043C1439.71 620.62 1439.36 622.173 1438.73 623.621C1438.09 625.066 1437.74 626.62 1437.69 628.198C1436.96 629.551 1436.34 631.111 1435.61 632.776C1434.88 634.441 1434.25 636.001 1433.52 637.354C1433.73 637.854 1433.73 638.414 1433.52 638.914C1433.32 639.415 1433.32 639.975 1433.52 640.475C1432.79 641.828 1432.17 643.388 1431.44 645.053C1430.71 646.717 1430.09 648.278 1429.36 649.63C1428.63 650.983 1426.65 654.937 1425.3 657.225C1423.94 659.514 1422.59 662.115 1421.23 664.82C1420.45 666.325 1419.43 667.695 1418.21 668.878C1417.47 669.71 1416.91 670.682 1416.55 671.736C1416.19 672.79 1416.05 673.906 1416.13 675.016C1414.78 676.369 1414.05 677.409 1414.05 678.033V681.05C1411.34 683.062 1411.34 684.761 1414.05 686.148C1414.24 689.336 1413.52 692.513 1411.96 695.304C1411.66 695.561 1411.41 695.878 1411.23 696.236C1411.05 696.594 1410.94 696.985 1410.92 697.385C1410.9 697.784 1410.8 698.175 1410.62 698.533C1410.44 698.891 1410.19 699.209 1409.88 699.465C1406.16 703.426 1403.67 708.376 1402.69 713.719C1401.37 716.223 1400.66 719.003 1400.61 721.834C1400.35 724.003 1399.65 726.094 1398.53 727.972V730.989C1398.57 733.422 1398.21 735.846 1397.49 738.168L1395.4 744.306C1394.67 745.659 1394.05 747.22 1393.32 748.884C1392.61 750.672 1392.26 752.58 1392.28 754.502V757.415C1391.16 759.292 1390.45 761.384 1390.2 763.554V766.571C1388.61 770.425 1387.9 774.582 1388.11 778.744V781.761C1386.75 783.716 1386.03 786.039 1386.03 788.419C1385.93 791.077 1385.22 793.676 1383.95 796.014L1380.93 805.169C1380.23 806.596 1379.88 808.162 1379.89 809.747C1379.89 811.333 1379.54 812.898 1378.84 814.325C1378.23 815.409 1377.87 816.619 1377.8 817.862C1377.72 819.104 1377.36 820.312 1376.76 821.4V824.417C1376.81 826.899 1376.28 829.358 1375.2 831.596C1374.22 833.578 1373.38 835.629 1372.7 837.734C1371.45 841.068 1370.75 844.581 1370.62 848.138C1370.59 849.553 1370.23 850.941 1369.57 852.195C1368.91 853.447 1368.55 854.837 1368.53 856.253C1368.18 859.034 1367.48 861.76 1366.45 864.368C1365.76 865.795 1365.4 867.361 1365.41 868.946C1365.41 870.531 1365.06 872.097 1364.37 873.524C1363.69 874.184 1363.15 874.977 1362.79 875.855C1362.43 876.732 1362.26 877.674 1362.28 878.621C1362.33 880.378 1361.97 882.121 1361.24 883.719C1360.87 884.126 1360.59 884.603 1360.41 885.121C1360.23 885.64 1360.16 886.189 1360.2 886.737C1359.91 891.563 1358.13 896.181 1355.1 899.95C1353.1 901.916 1351.69 904.403 1351.04 907.128C1349.79 910.462 1349.08 913.975 1348.95 917.532C1348.92 918.947 1348.57 920.336 1347.91 921.59C1347.25 922.841 1346.89 924.232 1346.87 925.647C1346.97 927.745 1346.62 929.839 1345.83 931.786C1345.03 933.728 1344.67 935.826 1344.79 937.924C1344.43 940.705 1343.73 943.431 1342.7 946.039C1342.04 947.29 1341.68 948.681 1341.66 950.097C1341.63 951.511 1341.27 952.899 1340.62 954.154C1339.82 956.097 1339.46 958.194 1339.58 960.292V966.431C1339.68 968.528 1339.33 970.623 1338.54 972.569C1337.73 974.512 1337.38 976.609 1337.5 978.707C1337.6 981.794 1337.25 984.879 1336.45 987.863C1335.65 989.805 1335.3 991.903 1335.41 994.001C1335.36 996.831 1334.65 999.61 1333.33 1002.12C1332.96 1002.52 1332.68 1003 1332.5 1003.52C1332.32 1004.04 1332.25 1004.59 1332.29 1005.13C1332.39 1007.23 1332.04 1009.33 1331.25 1011.27C1330.88 1011.68 1330.6 1012.16 1330.42 1012.67C1330.24 1013.19 1330.17 1013.74 1330.2 1014.29C1330.31 1016.39 1329.96 1018.48 1329.16 1020.43C1328.55 1021.51 1328.19 1022.72 1328.12 1023.96C1327.9 1025.36 1327.15 1026.63 1326.04 1027.5C1324.76 1028.74 1323.89 1030.34 1323.54 1032.08C1323.17 1033.82 1322.3 1035.41 1321.04 1036.66C1318.96 1038.74 1318.02 1040.09 1318.02 1040.71C1318.02 1041.34 1316.66 1044.56 1315.94 1046.33C1315.23 1048.12 1314.87 1050.03 1314.89 1051.95C1314.65 1056.07 1313.95 1060.15 1312.81 1064.12V1067.14C1312.99 1069.89 1312.64 1072.64 1311.77 1075.26C1310.97 1077.2 1310.61 1079.3 1310.73 1081.39V1087.53C1309.14 1091.39 1308.43 1095.54 1308.65 1099.71V1108.86C1308.68 1109.41 1308.6 1109.96 1308.43 1110.47C1308.25 1110.99 1307.97 1111.47 1307.6 1111.88C1306.46 1114.81 1305.76 1117.9 1305.52 1121.03C1305.63 1124.12 1305.28 1127.21 1304.48 1130.19C1303.68 1132.13 1303.32 1134.23 1303.44 1136.33V1154.64C1303.55 1157.72 1303.19 1160.81 1302.4 1163.79C1302.03 1164.2 1301.74 1164.68 1301.57 1165.2C1301.39 1165.71 1301.31 1166.26 1301.35 1166.81V1178.98C1301.37 1180.3 1300.99 1181.58 1300.27 1182.68C1299.54 1183.77 1298.51 1184.62 1297.29 1185.12H1294.27L1289.69 1183.04L1285.11 1180.96C1283.75 1179.58 1282.56 1178.05 1281.57 1176.38C1280.52 1174.7 1279.98 1172.75 1280 1170.76V1169.72C1279.72 1169.67 1279.42 1169.68 1279.14 1169.77C1278.86 1169.85 1278.61 1170 1278.4 1170.21C1278.2 1170.41 1278.05 1170.67 1277.96 1170.95C1277.88 1171.22 1277.86 1171.52 1277.92 1171.8C1277.95 1172.35 1277.88 1172.9 1277.7 1173.42C1277.52 1173.93 1277.24 1174.41 1276.88 1174.82C1276.18 1176.83 1274.48 1177.18 1271.78 1175.86H1268.76C1267.4 1174.51 1266.67 1173.47 1266.67 1172.85V1142.36C1266.48 1139.61 1266.83 1136.86 1267.71 1134.25C1268.44 1133.41 1268.81 1132.33 1268.76 1131.23C1268.73 1130.28 1268.9 1129.34 1269.26 1128.46C1269.62 1127.59 1270.16 1126.79 1270.84 1126.13C1271.81 1125.21 1272.57 1124.09 1273.09 1122.86C1273.61 1121.62 1273.87 1120.29 1273.86 1118.95V1115.94C1273.74 1113.84 1274.1 1111.74 1274.9 1109.8C1276.25 1105.85 1276.25 1101.57 1274.9 1097.62C1274.2 1096.2 1273.84 1094.63 1273.84 1093.05C1273.84 1091.46 1274.2 1089.89 1274.9 1088.47L1277.92 1079.31C1278.17 1077.14 1278.88 1075.05 1280 1073.18C1280.68 1070.16 1280.68 1067.03 1280 1064.02C1278.98 1062.18 1278.35 1060.14 1278.17 1058.05C1277.99 1055.95 1278.26 1053.83 1278.96 1051.85C1280.1 1048.91 1280.8 1045.83 1281.04 1042.69C1280.93 1040.59 1281.28 1038.5 1282.09 1036.55C1282.88 1034.61 1283.23 1032.51 1283.13 1030.42C1283.09 1029.87 1283.16 1029.32 1283.34 1028.8C1283.52 1028.28 1283.8 1027.8 1284.17 1027.4C1284.97 1024.41 1285.32 1021.33 1285.21 1018.24C1285.45 1015.1 1286.15 1012.02 1287.29 1009.09V1006.07C1287.33 1001.83 1288.37 997.662 1290.31 993.897C1292.31 991.265 1293.37 988.044 1293.33 984.742V981.725C1294.12 979.778 1294.48 977.684 1294.38 975.586C1294.18 972.839 1294.54 970.081 1295.42 967.471C1296.1 964.457 1296.1 961.33 1295.42 958.316C1294.39 956.476 1293.77 954.44 1293.59 952.341C1293.41 950.243 1293.68 948.13 1294.38 946.143C1295.51 943.208 1296.21 940.124 1296.46 936.988C1296.34 934.889 1296.7 932.792 1297.5 930.849C1299.16 927.647 1299.88 924.04 1299.58 920.445V917.428C1301.16 913.572 1301.87 909.417 1301.67 905.256C1301.92 903.085 1302.63 900.993 1303.75 899.117V896.1C1304.1 891.448 1305.49 886.933 1307.81 882.887L1310.83 876.749L1313.85 867.593C1313.83 865.671 1314.18 863.762 1314.89 861.975C1315.52 860.311 1316.25 858.75 1316.98 857.397L1319.06 851.259C1319.73 849.282 1320.09 847.209 1320.1 845.121C1320 844.874 1319.94 844.609 1319.94 844.34C1319.94 844.072 1320 843.807 1320.1 843.56C1320.3 843.06 1320.3 842.5 1320.1 842V838.982C1320.61 837.499 1320.61 835.888 1320.1 834.405C1319.58 832.924 1319.58 831.308 1320.1 829.827C1320.97 827.214 1321.32 824.459 1321.14 821.712V818.695C1321.93 816.748 1322.29 814.654 1322.18 812.556V806.418C1321.99 803.671 1322.35 800.912 1323.23 798.303C1323.59 797.893 1323.87 797.416 1324.05 796.898C1324.23 796.38 1324.3 795.832 1324.27 795.286C1324.23 794.739 1324.3 794.189 1324.48 793.671C1324.66 793.152 1324.94 792.675 1325.31 792.269C1326.89 788.412 1327.6 784.257 1327.39 780.096C1327.35 779.549 1327.42 779 1327.6 778.481C1327.78 777.962 1328.07 777.485 1328.43 777.079C1329.75 774.572 1330.46 771.794 1330.52 768.964C1330.54 767.549 1330.9 766.159 1331.56 764.906C1332.22 763.652 1332.57 762.263 1332.6 760.849C1332.65 759.271 1333.01 757.717 1333.64 756.271C1334.27 754.606 1335 753.046 1335.72 751.693C1336.45 750.341 1337.08 748.78 1337.81 747.116C1338.54 745.451 1339.16 743.89 1339.89 742.538C1341.91 741.086 1343.38 738.997 1344.06 736.608C1344.08 734.392 1344.81 732.242 1346.14 730.469C1346.27 727.948 1346.98 725.49 1348.22 723.29C1349.61 720.585 1350.79 718.054 1351.76 715.696C1352.81 713.303 1353.95 710.806 1355.31 708.101C1356.03 705.779 1356.39 703.355 1356.35 700.922V692.807C1357.53 691.109 1358.38 689.203 1358.85 687.189C1359.3 685.171 1360.15 683.262 1361.35 681.571V667.005L1370.51 648.694L1373.53 645.677C1374.8 644.433 1375.67 642.839 1376.03 641.099C1376.39 639.357 1377.26 637.762 1378.53 636.521L1384.68 624.349C1385.3 622.268 1386.03 620.499 1386.76 618.731C1387.49 616.962 1388.11 615.193 1388.84 613.113C1389.57 611.032 1390.2 610.2 1390.93 608.535C1391.65 606.87 1392.28 605.31 1393.01 603.957C1393.67 602.663 1394.19 601.303 1394.57 599.9C1394.94 598.494 1395.46 597.133 1396.13 595.842C1396.13 595.218 1396.76 594.177 1398.22 592.825C1400.79 589.054 1402.86 584.962 1404.36 580.652C1404.36 580.028 1404.99 578.988 1406.44 577.635L1409.46 571.497C1410.01 570.572 1410.37 569.546 1410.51 568.48C1410.64 567.413 1411 566.386 1411.55 565.463C1412.34 563.517 1412.7 561.422 1412.59 559.324V550.169C1412.56 549.622 1412.63 549.074 1412.81 548.556C1412.99 548.039 1413.27 547.561 1413.63 547.152C1414.31 546.488 1414.84 545.693 1415.2 544.817C1415.56 543.94 1415.73 543 1415.71 542.054C1415.69 541.106 1415.86 540.164 1416.22 539.287C1416.58 538.41 1417.12 537.616 1417.8 536.956C1418.49 535.529 1418.84 533.963 1418.84 532.378C1418.85 531.513 1419.05 530.661 1419.41 529.874C1419.76 529.087 1420.28 528.381 1420.92 527.8C1420.93 524.118 1421.98 520.513 1423.94 517.396C1424.58 516.815 1425.1 516.109 1425.46 515.322C1425.81 514.535 1426.01 513.683 1426.02 512.819C1426.02 511.233 1426.37 509.668 1427.07 508.241L1433.21 496.068C1435.2 492.732 1437.99 489.943 1441.33 487.953C1442.29 487.658 1443.16 487.135 1443.87 486.428C1444.58 485.72 1445.1 484.851 1445.4 483.896L1454.56 465.585C1455.82 463.736 1456.67 461.645 1457.06 459.446C1457.44 457.243 1458.29 455.149 1459.56 453.308L1465.71 441.135C1465.78 439.963 1466.08 438.817 1466.6 437.763C1467.12 436.709 1467.84 435.769 1468.73 434.997C1470.62 432.599 1472.01 429.837 1472.79 426.882C1474.11 423.562 1475.64 420.33 1477.37 417.206C1479.1 414.077 1480.63 410.846 1481.95 407.531V404.513C1482.58 403.161 1483.31 401.6 1484.04 399.936C1484.77 398.271 1485.39 396.71 1486.12 395.358C1486.97 392.596 1487.98 389.886 1489.14 387.243C1489.17 386.696 1489.1 386.148 1488.92 385.631C1488.74 385.113 1488.46 384.635 1488.1 384.226H1487.06C1485.03 385.568 1483.3 387.302 1481.95 389.324C1480.8 392.063 1479.06 394.514 1476.85 396.502C1475.63 397.683 1474.61 399.053 1473.83 400.56C1473.05 402.064 1472.03 403.433 1470.81 404.617C1469.47 406.634 1467.93 408.515 1466.23 410.236C1464.35 412.195 1462.8 414.444 1461.64 416.894L1458.62 419.911C1456.1 422.356 1453.87 425.079 1451.96 428.026C1450.22 430.731 1448.35 433.436 1446.33 436.141C1445.7 436.745 1445.18 437.448 1444.77 438.222C1444.37 438.994 1443.84 439.697 1443.21 440.303L1437.06 449.458L1434.04 452.476C1432.07 454.275 1430.35 456.341 1428.94 458.614L1425.92 461.631C1423.93 463.611 1422.21 465.851 1420.82 468.29C1419.46 470.683 1418.11 472.867 1416.76 474.948C1416.39 475.358 1416.11 475.835 1415.93 476.353C1415.75 476.871 1415.68 477.419 1415.71 477.965C1415.46 480.134 1414.75 482.226 1413.63 484.104C1412.66 487.311 1411.3 490.387 1409.57 493.259C1406.08 497.549 1402.32 501.615 1398.32 505.432C1397.14 506.65 1395.77 507.669 1394.26 508.449L1391.24 511.466C1388.37 513.711 1385.93 516.461 1384.05 519.581L1381.03 522.598C1380.25 524.103 1379.23 525.473 1378.01 526.656C1375.14 528.902 1372.71 531.652 1370.82 534.771C1369.6 535.952 1368.58 537.322 1367.8 538.828L1365.72 542.886C1363.87 546.737 1361.82 550.488 1359.58 554.122L1353.43 563.278C1351.98 564.774 1350.79 566.496 1349.89 568.376C1348.99 570.253 1347.79 571.974 1346.35 573.474C1343.21 578.333 1340.49 583.449 1338.22 588.767L1335.2 594.906C1333.76 596.404 1332.56 598.125 1331.66 600.004C1330.76 601.881 1329.57 603.602 1328.12 605.102C1326.72 608.54 1324.63 611.655 1321.98 614.257C1320.76 615.823 1319.74 617.536 1318.96 619.355C1317.55 621.626 1315.83 623.692 1313.85 625.493C1313.44 625.857 1312.96 626.136 1312.45 626.314C1311.93 626.493 1311.38 626.567 1310.83 626.534C1310.29 626.5 1309.74 626.575 1309.22 626.753C1308.7 626.932 1308.22 627.211 1307.81 627.574C1305.83 629.372 1304.11 631.438 1302.71 633.712C1301.92 635.217 1300.91 636.587 1299.69 637.77L1293.54 643.908C1292.47 644.899 1291.62 646.104 1291.04 647.446C1290.47 648.787 1289.62 649.992 1288.54 650.983L1285.52 657.121L1279.38 663.26C1278.16 664.44 1277.14 665.811 1276.36 667.317C1275 670.022 1273.86 672.623 1272.82 674.912C1271.78 677.201 1270.63 679.802 1269.28 682.507C1267.47 685.235 1266.43 688.396 1266.26 691.662C1266.42 692.73 1266.21 693.82 1265.65 694.749C1265.1 695.678 1264.25 696.389 1263.24 696.76C1262.69 696.727 1262.14 696.801 1261.62 696.98C1261.1 697.158 1260.62 697.437 1260.21 697.801L1257.19 700.818C1255.86 703.462 1254.33 706.001 1252.61 708.413C1250.75 711.101 1249.21 714 1248.03 717.048L1241.88 729.221C1239.84 733.474 1237.43 737.547 1234.7 741.393L1231.68 747.532C1230.29 748.919 1230.29 749.925 1231.68 750.549C1233.03 752.63 1233.03 754.294 1231.68 755.647C1229.57 758.915 1227.17 761.981 1224.49 764.802C1223.15 768.041 1221.44 771.113 1219.39 773.958L1213.24 783.113C1211.38 784.645 1209.82 786.516 1208.66 788.627C1207.76 790.503 1206.56 792.224 1205.12 793.725C1203.03 797.882 1200.29 801.676 1196.99 804.961L1193.97 807.979C1192.8 810.424 1191.26 812.671 1189.39 814.637C1187.68 816.349 1186.14 818.232 1184.81 820.255C1182.59 822.234 1180.84 824.688 1179.71 827.434C1178.91 828.933 1177.89 830.302 1176.68 831.492L1158.35 849.802C1157.58 850.688 1156.64 851.411 1155.59 851.929C1154.53 852.447 1153.38 852.749 1152.21 852.82C1151.48 852.82 1150.54 853.444 1149.19 854.9C1147.24 855.692 1145.14 856.047 1143.04 855.941H1136.9C1134.06 855.983 1131.28 856.696 1128.77 858.022C1127.39 859.339 1126.38 859.339 1125.75 858.022C1124.57 856.805 1123.2 855.786 1121.69 855.004C1121.28 854.641 1120.8 854.362 1120.29 854.184C1119.77 854.005 1119.22 853.93 1118.67 853.964L1109.51 856.981C1108.15 858.334 1107.42 859.374 1107.42 859.998C1107.31 862.096 1107.67 864.193 1108.47 866.137C1109.82 867.489 1110.55 868.53 1110.55 869.154C1110.6 869.562 1110.56 869.977 1110.42 870.366C1110.29 870.755 1110.07 871.108 1109.78 871.399C1109.48 871.69 1109.13 871.911 1108.74 872.045C1108.35 872.178 1107.94 872.222 1107.53 872.171C1106.8 872.171 1105.86 871.443 1104.51 870.09C1102.18 867.084 1100.77 863.472 1100.45 859.686V856.669C1100.48 856.122 1100.4 855.575 1100.23 855.057C1100.05 854.539 1099.77 854.062 1099.4 853.652L1096.38 850.635C1095.36 849.556 1094.56 848.28 1094.04 846.886C1093.52 845.491 1093.29 844.006 1093.36 842.52C1093.48 840.422 1093.12 838.324 1092.32 836.381C1091.52 833.398 1091.17 830.312 1091.28 827.226V811.62C1091.17 809.522 1091.53 807.427 1092.32 805.482C1093.12 803.538 1093.48 801.441 1093.36 799.343C1093.16 795.182 1093.87 791.027 1095.45 787.171C1095.81 786.761 1096.09 786.284 1096.27 785.766C1096.45 785.248 1096.52 784.7 1096.49 784.154C1096.29 781.406 1096.65 778.648 1097.53 776.039V773.021C1097.66 769.464 1098.36 765.951 1099.61 762.617L1102.63 753.462C1103.43 750.478 1103.78 747.393 1103.67 744.306C1103.93 742.137 1104.64 740.045 1105.76 738.168V735.151C1105.71 732.718 1106.06 730.293 1106.8 727.972L1108.88 721.834C1109.51 720.481 1110.24 718.921 1110.96 717.256C1111.69 715.592 1112.32 714.031 1113.05 712.678C1113.73 712.018 1114.26 711.224 1114.62 710.347C1114.98 709.47 1115.15 708.528 1115.13 707.581C1115.11 706.633 1115.28 705.691 1115.64 704.814C1116 703.937 1116.53 703.143 1117.21 702.483C1117.91 701.056 1118.26 699.49 1118.26 697.905C1118.27 697.04 1118.47 696.188 1118.82 695.401C1119.18 694.614 1119.7 693.908 1120.34 693.327C1121.13 691.383 1121.49 689.287 1121.38 687.189C1121.62 684.051 1122.32 680.966 1123.46 678.033L1126.48 668.878V665.861C1127.11 663.78 1127.84 662.011 1128.57 660.243C1129.3 658.474 1129.92 656.705 1130.65 654.624C1131.38 652.544 1132 651.711 1132.73 650.047C1133.46 648.382 1134.09 646.821 1134.82 645.469C1135.75 641.283 1137.11 637.204 1138.88 633.296L1145.02 624.141L1151.17 611.968L1154.19 608.951C1155.4 607.768 1156.42 606.398 1157.21 604.893C1159.2 599.537 1162.32 594.674 1166.37 590.64C1167 590.016 1167.42 589.496 1167.42 589.079C1167.42 588.663 1167.42 588.247 1168.46 587.519L1171.48 584.502C1174.98 581.398 1177.75 577.561 1179.6 573.266C1181.54 569.499 1182.58 565.33 1182.62 561.093C1182.6 560.146 1182.77 559.204 1183.13 558.326C1183.49 557.449 1184.02 556.655 1184.7 555.995C1186.37 554.17 1187.74 552.1 1188.77 549.857L1194.91 540.701C1196.13 539.133 1197.14 537.421 1197.93 535.603C1199.17 533.04 1200.71 530.631 1202.51 528.424C1204.31 526.212 1205.85 523.804 1207.1 521.246C1207.88 519.739 1208.9 518.369 1210.12 517.188C1211.33 516.005 1212.35 514.635 1213.14 513.131L1216.68 507.513C1217.72 505.848 1218.87 503.975 1220.22 501.894C1223.04 498.934 1226.11 496.219 1229.39 493.779C1229.39 495.132 1229.39 495.86 1230.43 495.86C1231.47 495.86 1231.47 495.236 1231.47 493.779C1231.75 493.836 1232.05 493.822 1232.33 493.738C1232.61 493.653 1232.86 493.501 1233.07 493.296C1233.27 493.09 1233.43 492.836 1233.51 492.558C1233.59 492.279 1233.61 491.984 1233.55 491.699C1234.18 491.699 1235.22 491.074 1236.57 489.618C1237.84 488.343 1239.2 487.16 1240.63 486.08C1242.07 484.997 1243.43 483.815 1244.7 482.543C1246.2 481.763 1247.58 480.744 1248.76 479.526L1254.9 473.388C1256.01 472.208 1257.41 471.346 1258.96 470.891C1260.52 470.44 1261.92 469.577 1263.03 468.394C1265.9 466.669 1268.98 465.306 1272.19 464.336C1274.92 463.677 1277.41 462.272 1279.38 460.279C1281.78 458.386 1284.55 457.005 1287.5 456.221C1289.97 455.392 1292.37 454.384 1294.69 453.204C1295.94 452.548 1297.33 452.192 1298.75 452.164C1300.17 452.139 1301.56 451.782 1302.81 451.123H1318.12C1321.26 450.884 1324.35 450.183 1327.29 449.042C1330.91 447.676 1334.91 447.676 1338.54 449.042C1339.2 449.722 1339.99 450.258 1340.87 450.616C1341.75 450.974 1342.69 451.147 1343.64 451.123C1345.73 451.14 1347.81 451.491 1349.79 452.164L1355.93 455.181C1361.78 457.754 1366.74 461.987 1370.2 467.353C1370.16 467.9 1370.23 468.45 1370.41 468.968C1370.59 469.487 1370.87 469.964 1371.24 470.37C1375.08 474.658 1377.58 479.974 1378.43 485.664C1379.98 488.455 1380.7 491.632 1380.51 494.82V500.958C1382.02 500.178 1383.39 499.159 1384.57 497.941C1386.45 494.821 1388.89 492.07 1391.76 489.826C1392.83 488.835 1393.68 487.63 1394.26 486.288C1394.83 484.947 1395.69 483.742 1396.76 482.751C1398.73 480.95 1400.45 478.885 1401.86 476.613V473.596C1402.05 473.093 1402.05 472.538 1401.86 472.035C1401.76 471.789 1401.7 471.523 1401.7 471.255C1401.7 470.986 1401.76 470.721 1401.86 470.474V469.434C1402.97 465.705 1404.69 462.188 1406.96 459.03C1407.63 458.35 1408.42 457.814 1409.3 457.456C1410.18 457.098 1411.12 456.926 1412.07 456.949C1412.35 456.892 1412.65 456.907 1412.93 456.991C1413.21 457.075 1413.46 457.227 1413.67 457.433C1413.87 457.639 1414.02 457.892 1414.11 458.171C1414.19 458.45 1414.21 458.745 1414.15 459.03V462.047L1426.34 455.909C1428.44 452.636 1430.84 449.571 1433.52 446.753C1434.45 445.786 1435.57 445.019 1436.8 444.5C1438.04 443.981 1439.37 443.721 1440.71 443.736C1442.79 443.736 1444.46 442.384 1445.81 439.679C1446.44 439.055 1446.85 438.534 1446.85 438.118C1446.85 437.702 1446.86 437.286 1447.9 436.558L1454.04 427.402C1454.04 426.778 1454.67 425.737 1456.12 424.385C1457.58 423.032 1459.14 423.032 1461.23 424.385H1462.27L1465.29 418.247C1466.7 415.973 1468.41 413.907 1470.39 412.108C1473.1 409.692 1475.51 406.969 1477.58 403.993L1483.72 397.855C1484.61 397.083 1485.33 396.143 1485.85 395.089C1486.37 394.035 1486.68 392.889 1486.75 391.717C1487.37 391.717 1488.41 391.092 1489.77 389.636L1495.91 383.497C1496.65 382.665 1497.22 381.693 1497.57 380.639C1497.93 379.585 1498.08 378.469 1497.99 377.359C1499.58 376.421 1500.89 375.079 1501.78 373.47C1502.68 371.862 1503.13 370.044 1503.1 368.204C1505.81 366.192 1505.81 364.146 1503.1 362.065C1503.17 360.893 1503.47 359.747 1503.99 358.693C1504.51 357.639 1505.23 356.699 1506.12 355.927C1507.39 354.661 1508.58 353.305 1509.66 351.869C1510.61 350.595 1511.45 349.237 1512.16 347.812L1519.34 340.633C1521.36 336.541 1523.41 332.31 1525.49 327.94C1527.57 323.571 1529.62 318.993 1531.63 314.207C1532.99 312.855 1533.72 311.814 1533.72 311.19C1533.97 309.02 1534.68 306.928 1535.8 305.052C1538.51 300.335 1541.04 295.584 1543.4 290.798L1551.01 275.504C1550.97 274.958 1551.05 274.41 1551.23 273.892C1551.41 273.374 1551.68 272.897 1552.05 272.487C1554.13 270.386 1555.85 267.962 1557.15 265.309L1561.21 257.193C1562.6 255.087 1563.78 252.858 1564.76 250.535C1565.73 248.21 1566.91 245.981 1568.3 243.876L1571.32 237.738C1572.1 235.918 1573.12 234.206 1574.34 232.64C1576.33 230.66 1578.05 228.42 1579.44 225.982C1580.83 223.623 1582.18 221.092 1583.5 218.387C1584.53 216.141 1585.9 214.07 1587.56 212.248L1590.58 209.231L1596.73 200.076C1597.35 199.452 1597.77 198.931 1597.77 198.515C1597.77 198.099 1597.77 197.683 1598.81 196.955C1600.2 194.849 1601.38 192.62 1602.35 190.296C1603.32 187.971 1604.51 185.742 1605.9 183.638C1607.16 182.393 1608.04 180.8 1608.39 179.06C1608.75 177.318 1609.62 175.722 1610.89 174.482C1612.11 172.914 1613.12 171.201 1613.91 169.384C1615.3 166.679 1616.66 164.148 1617.98 161.789C1619.52 159.155 1621.22 156.619 1623.08 154.194L1626.1 148.056L1629.12 141.918L1632.14 135.779C1633.53 133.074 1634.88 130.543 1636.2 128.185C1637.6 125.746 1639.31 123.506 1641.31 121.526C1642.6 118.264 1644.31 115.185 1646.41 112.371C1648.62 109.429 1650.67 106.373 1652.56 103.215C1653.77 102.032 1654.79 100.662 1655.58 99.1575C1656.8 96.0231 1658.52 93.1071 1660.68 90.5222C1662.68 88.2084 1664.4 85.6577 1665.78 82.9273C1667.14 80.8465 1668.49 78.6617 1669.84 76.2688C1671.24 73.8301 1672.95 71.5904 1674.95 69.6103L1681.09 60.4548C1682.34 57.8925 1683.87 55.4834 1685.68 53.2761C1687.34 51.2646 1688.87 49.2185 1690.26 47.1377L1694.32 40.9994L1698.38 34.8611C1699.35 33.9715 1700.19 32.9567 1700.88 31.8439C1701.58 30.7304 1702.42 29.7155 1703.38 28.8268L1706.4 25.8097C1708.57 21.9509 1711.31 18.4429 1714.53 15.4057C1717.23 12.7007 1719.73 10.3078 1722.13 8.22698C1724.52 6.14619 1727.02 3.85732 1729.73 1.04826C1730.14 0.684843 1730.62 0.405867 1731.14 0.227333C1731.66 0.0488001 1732.21 -0.0257822 1732.75 0.00785918C1733.3 -0.0257822 1733.85 0.0488001 1734.37 0.227333C1734.88 0.405867 1735.36 0.684843 1735.77 1.04826C1736.4 1.77653 1736.4 3.12904 1735.77 5.10579C1735.15 7.08254 1734.42 8.12294 1735.77 8.12294C1738.44 9.439 1740.6 11.5963 1741.92 14.2613V20.3996C1741.86 20.6851 1741.88 20.9802 1741.96 21.2587C1742.04 21.5373 1742.2 21.7908 1742.4 21.9966C1742.61 22.2024 1742.86 22.3543 1743.14 22.4387C1743.42 22.5231 1743.72 22.5374 1744 22.4804ZM1337.5 510.218C1337.53 509.671 1337.45 509.123 1337.28 508.605C1337.1 508.088 1336.82 507.61 1336.45 507.2C1335.56 506.245 1334.54 505.406 1333.43 504.703C1332.31 504.02 1331.3 503.179 1330.41 502.207C1328.74 500.39 1327.37 498.318 1326.35 496.068C1325.85 495.471 1325.23 494.979 1324.53 494.622C1323.83 494.265 1323.07 494.049 1322.29 493.987V500.126C1322.35 500.411 1322.33 500.706 1322.25 500.985C1322.16 501.263 1322.01 501.517 1321.8 501.723C1321.6 501.929 1321.35 502.08 1321.07 502.165C1320.79 502.249 1320.49 502.264 1320.21 502.207C1319.66 502.246 1319.11 502.174 1318.59 501.995C1318.07 501.817 1317.59 501.534 1317.19 501.166C1314.99 498.902 1312.58 496.847 1310 495.028C1304.44 491.905 1298.66 489.193 1292.71 486.913C1290.72 486.239 1288.56 486.239 1286.56 486.913C1284.1 487.753 1281.7 488.761 1279.38 489.93C1277.36 491.317 1275.14 492.67 1272.71 493.987L1266.05 498.045C1262.64 501.444 1259.17 504.912 1255.63 508.449C1252.09 511.986 1248.62 515.454 1245.22 518.853C1241.48 522.674 1238 526.741 1234.8 531.025C1233.4 532.461 1232.37 534.208 1231.78 536.123C1231.18 538.034 1230.15 539.779 1228.76 541.221C1227.49 542.49 1226.3 543.846 1225.22 545.279C1224.18 546.631 1223.03 548.296 1221.68 550.377C1220.89 551.881 1219.87 553.251 1218.66 554.434C1216.38 556.624 1214.32 559.028 1212.51 561.613L1209.49 567.751C1208.37 570.104 1207.01 572.336 1205.43 574.41C1204.08 576.075 1202.72 577.947 1201.37 580.028L1195.22 586.166C1194.2 587.246 1193.4 588.521 1192.88 589.915C1192.36 591.31 1192.13 592.795 1192.2 594.281C1192.25 594.69 1192.21 595.104 1192.08 595.493C1191.94 595.882 1191.72 596.236 1191.43 596.527C1191.14 596.818 1190.79 597.039 1190.4 597.172C1190.01 597.306 1189.59 597.349 1189.18 597.299C1188.11 597.137 1187.02 597.349 1186.09 597.898C1185.16 598.448 1184.45 599.302 1184.08 600.316L1177.41 611.76C1176.06 614.465 1174.91 617.066 1173.87 619.355C1172.83 621.644 1171.69 624.245 1170.33 626.95C1169.59 628.546 1169.24 630.291 1169.29 632.048C1169.31 632.994 1169.13 633.934 1168.77 634.811C1168.42 635.687 1167.88 636.482 1167.21 637.146V640.163L1164.19 652.336C1163.46 653.688 1162.83 655.249 1162.1 656.913C1161.37 658.578 1160.75 660.451 1160.02 662.531C1159.29 664.612 1158.67 665.445 1157.94 667.109C1157.23 668.897 1156.88 670.805 1156.9 672.727C1155.56 674.5 1154.84 676.65 1154.81 678.866C1154.75 681.074 1154.02 683.212 1152.73 685.004C1150.55 688.737 1149.16 692.882 1148.67 697.177V700.194C1147.98 701.62 1147.62 703.186 1147.63 704.771C1147.63 706.357 1147.28 707.922 1146.58 709.349C1145.89 710.776 1145.54 712.342 1145.54 713.927C1145.53 714.791 1145.33 715.643 1144.97 716.431C1144.62 717.218 1144.1 717.924 1143.46 718.505L1140.44 727.66C1140.42 729.749 1140.07 731.821 1139.4 733.799L1137.32 739.937L1135.23 746.075C1134.5 748.396 1134.15 750.82 1134.19 753.254V756.271C1133.07 758.148 1132.36 760.24 1132.11 762.409C1131.87 766.531 1131.17 770.614 1130.02 774.582V775.622H1131.07C1133.7 773.673 1136.11 771.44 1138.25 768.964C1140.4 766.488 1142.81 764.255 1145.44 762.305C1146.55 761.775 1147.57 761.073 1148.46 760.224C1149.35 759.38 1150.37 758.678 1151.48 758.144C1153.73 757.119 1155.8 755.75 1157.62 754.086L1160.65 751.069C1162.91 748.874 1164.97 746.471 1166.79 743.89C1169.23 740.609 1171.95 737.546 1174.91 734.735C1176.58 732.911 1177.95 730.84 1178.98 728.596C1180.96 725.257 1183.76 722.468 1187.1 720.481C1187.51 720.118 1187.99 719.839 1188.51 719.66C1189.02 719.482 1189.57 719.407 1190.12 719.441C1191.47 720.169 1192.83 719.441 1194.18 717.36C1196 714.485 1198.05 711.77 1200.33 709.245C1201.22 707.706 1201.59 705.915 1201.37 704.147H1198.35C1198.27 703.037 1198.41 701.922 1198.77 700.867C1199.12 699.813 1199.69 698.841 1200.43 698.009C1201.13 697.315 1202.13 697.315 1203.45 698.009V701.026C1204.96 700.246 1206.33 699.227 1207.51 698.009C1209.33 695.134 1211.38 692.419 1213.66 689.894C1214.56 688.355 1214.92 686.563 1214.7 684.796C1212.62 683.443 1211.99 682.403 1212.62 681.779L1218.76 672.623C1220.59 668.317 1223.37 664.477 1226.89 661.387C1228.24 660.034 1228.97 658.994 1228.97 658.37C1229.68 656.945 1230.52 655.587 1231.47 654.312C1232.55 652.879 1233.74 651.523 1235.01 650.255C1236.36 648.174 1237.51 646.509 1238.55 645.157C1239.63 643.723 1240.82 642.367 1242.09 641.099V638.082C1243.46 636.707 1244.65 635.169 1245.63 633.504C1246.67 631.84 1247.82 629.967 1249.17 627.886L1258.34 618.731C1260 616.906 1261.37 614.836 1262.4 612.592C1263.76 611.24 1264.8 610.512 1265.42 610.512H1268.44C1270.53 611.864 1272.19 611.24 1273.55 608.431C1274.57 606.186 1275.94 604.115 1277.61 602.292C1279.12 600.727 1280.48 599.02 1281.67 597.195C1282.85 595.365 1284.21 593.657 1285.73 592.097C1286.28 590.274 1287.13 588.552 1288.23 586.999C1289.27 585.646 1290.42 583.982 1291.77 581.901L1294.79 578.884C1298.01 575.844 1300.75 572.337 1302.92 568.48C1304.91 566.5 1306.63 564.26 1308.02 561.821C1309.41 559.382 1311.13 557.143 1313.12 555.163C1314.48 553.81 1315.21 552.77 1315.21 552.145C1315.76 550.323 1316.6 548.601 1317.71 547.047C1318.75 545.695 1319.89 544.03 1321.25 541.95C1322.03 540.443 1323.05 539.073 1324.27 537.892C1326.24 536.091 1327.96 534.026 1329.37 531.754L1332.39 528.737C1334.37 526.936 1336.09 524.87 1337.5 522.598C1338.21 521.174 1339.04 519.816 1340 518.541C1340.95 517.266 1341.79 515.908 1342.49 514.483L1337.5 510.218ZM1196.79 705.396C1196.8 705.536 1196.79 705.679 1196.74 705.813C1196.69 705.947 1196.62 706.068 1196.52 706.168C1196.42 706.269 1196.3 706.345 1196.16 706.391C1196.03 706.437 1195.89 706.453 1195.74 706.436L1196.79 705.396ZM1197.83 704.355C1198.11 704.412 1198.41 704.398 1198.69 704.314C1198.97 704.229 1199.22 704.077 1199.43 703.872C1199.63 703.666 1199.78 703.412 1199.87 703.134C1199.95 702.855 1199.97 702.56 1199.91 702.274C1199.62 702.273 1199.34 702.341 1199.09 702.473C1198.83 702.605 1198.61 702.798 1198.45 703.033C1198.28 703.269 1198.18 703.541 1198.14 703.825C1198.11 704.11 1198.14 704.399 1198.24 704.667L1197.83 704.355ZM1205.22 707.372C1205.51 707.429 1205.8 707.415 1206.08 707.331C1206.36 707.246 1206.61 707.094 1206.82 706.889C1207.03 706.683 1207.18 706.429 1207.26 706.151C1207.35 705.872 1207.36 705.577 1207.31 705.292C1206.97 705.113 1206.59 705.047 1206.21 705.103C1205.84 705.159 1205.49 705.333 1205.22 705.602C1204.95 705.87 1204.78 706.217 1204.72 706.592C1204.66 706.967 1204.73 707.35 1204.91 707.685L1205.22 707.372ZM1220.43 686.981C1220.29 686.964 1220.14 686.979 1220.01 687.026C1219.88 687.072 1219.76 687.148 1219.65 687.248C1219.55 687.349 1219.48 687.47 1219.43 687.604C1219.39 687.738 1219.37 687.88 1219.39 688.021L1220.43 686.981ZM1345.93 784.154V783.113C1344.58 781.761 1343.85 781.761 1343.85 783.113L1345.93 784.154ZM1348.01 779.056C1348.3 779.113 1348.6 779.098 1348.87 779.014C1349.15 778.93 1349.41 778.778 1349.61 778.572C1349.82 778.366 1349.97 778.113 1350.06 777.834C1350.14 777.555 1350.15 777.26 1350.1 776.975V770.837C1348.74 771.565 1348.01 773.229 1348.01 775.934V779.056ZM1353.12 764.802C1353.92 761.819 1354.27 758.733 1354.16 755.647C1352.81 755.647 1352.08 755.647 1352.08 756.687C1350.13 760.454 1349.1 764.622 1349.06 768.86V771.877C1350.41 771.877 1351.14 771.877 1351.14 770.837C1351.69 769.912 1352.04 768.885 1352.18 767.819C1352.17 766.747 1352.38 765.685 1352.81 764.698L1353.12 764.802ZM1356.14 751.589C1354.78 751.589 1354.06 751.589 1354.06 752.63V755.647C1355.41 755.647 1356.14 755.647 1356.14 754.606V751.589ZM1354.47 484.728C1354.61 484.745 1354.76 484.729 1354.89 484.683C1355.02 484.636 1355.15 484.56 1355.25 484.46C1355.35 484.36 1355.42 484.238 1355.47 484.105C1355.52 483.971 1355.53 483.828 1355.51 483.687L1354.47 484.728ZM1401.34 683.235C1404.05 681.224 1404.05 679.178 1401.34 677.097V683.235ZM1408.53 670.022C1408.54 669.882 1408.53 669.739 1408.48 669.605C1408.44 669.471 1408.36 669.35 1408.26 669.25C1408.16 669.149 1408.04 669.073 1407.9 669.027C1407.77 668.98 1407.63 668.965 1407.49 668.982L1408.53 670.022Z" fill="white" fill-opacity="0.02"/>
<path d="M51.4015 1022.19C51.4015 1022.19 51.4015 1021.25 50.8833 1022.19H51.4015Z" fill="white" fill-opacity="0.02"/>
<path d="M344.699 200.59V201.628C345.217 201.628 345.217 201.213 344.699 200.59Z" fill="white" fill-opacity="0.02"/>
<path d="M952.217 94.6748C950.92 91.4149 949.204 88.3373 947.113 85.5193C945.01 82.7093 943.293 79.63 942.01 76.3639C942.01 75.0113 942.01 71.2659 942.01 65.1276C942.01 58.9893 942.843 52.5388 943.572 45.7763C944.301 39.0137 944.718 33.0834 945.134 27.9855C945.551 22.8876 945.134 20.3906 945.134 20.3906C942.426 21.0842 939.892 24.3094 937.531 30.0663C935.17 35.8231 932.949 41.7534 930.866 47.857C928.852 53.9607 926.804 59.4054 924.721 64.1912C922.637 68.9771 920.589 71.0232 918.576 70.3296C916.562 68.9424 915.382 64.1912 915.034 56.0762C914.354 51.0009 914.354 45.8577 915.034 40.7824C915.659 38.0773 916.597 34.1238 917.534 29.0259C918.471 23.928 916.388 23.0957 910.868 26.529C910.5 26.1225 910.217 25.6455 910.038 25.127C909.859 24.6084 909.787 24.0589 909.827 23.5118V20.4947C905.732 22.5493 902.489 25.9732 900.661 30.1703C897.798 35.5418 895.394 41.1451 893.475 46.9207C891.461 53.0243 889.76 58.9546 888.371 64.7114C886.983 70.4683 885.976 75.046 885.351 78.4447C883.997 83.8547 882.435 88.8486 880.768 94.2587C878.918 99.6786 876.69 104.963 874.103 110.073C872.376 114.09 870.136 117.867 867.437 121.309C864.736 124.749 862.495 128.527 860.771 132.545C860.072 133.97 859.709 135.536 859.709 137.123C859.709 138.71 860.072 140.276 860.771 141.701C861.501 143.338 861.877 145.11 861.877 146.903C861.877 148.695 861.501 150.467 860.771 152.105C859.48 157.33 857.773 162.444 855.668 167.398L849.523 181.652C846.815 187.062 843.065 194.691 838.274 204.54C835.199 212.021 830.421 218.683 824.318 223.996C823.15 227.408 821.015 230.408 818.173 232.631C815.275 235.052 812.84 237.978 810.987 241.266C808.973 244.665 806.751 248.584 804.321 253.023C802.16 257.031 799.222 260.568 795.676 263.427C792.968 264.779 790.781 265.82 789.01 266.444C786.886 267.413 784.975 268.792 783.386 270.502C779.655 275.079 776.409 280.03 773.7 285.275C770.829 290.757 767.593 296.04 764.014 301.089L733.393 346.866C729.297 352.97 724.888 359.906 720.166 367.674C716.125 373.696 713.1 380.339 711.209 387.338C711.209 387.338 710.376 387.338 708.917 389.107L706.834 391.187C706.6 391.747 706.479 392.349 706.479 392.956C706.479 393.563 706.6 394.165 706.834 394.725C707.077 395.096 707.205 395.53 707.205 395.973C707.205 396.416 707.077 396.85 706.834 397.222C705.619 399.774 703.88 402.042 701.731 403.88C699.431 405.954 697.678 408.563 696.628 411.475C691.339 420.752 685.568 429.747 679.338 438.421C673.228 446.883 667.465 455.553 662.049 464.431L632.678 511.665C622.818 527.618 612.785 543.397 602.578 559.003C589.753 577.852 578 597.408 567.375 617.577C556.915 637.732 545.336 657.287 532.692 676.151C531.103 678.47 529 680.393 526.547 681.77C524.668 682.668 522.945 683.863 521.444 685.307C518.566 688.247 516.016 691.491 513.841 694.983C511.487 698.579 508.95 702.052 506.238 705.387C502.835 709.479 498.912 713.71 494.469 718.079C490.395 722 487.107 726.661 484.782 731.813C485.477 728.414 486.831 723.143 488.844 715.999C490.858 708.855 492.906 701.572 494.989 694.15L500.613 673.342C501.596 669.867 502.292 666.318 502.697 662.73C509.445 635.694 519.741 609.667 533.317 585.325C538.94 574.568 543.041 563.083 545.503 551.2C548.211 538.646 550.919 526.612 553.627 515.098C557.029 499.492 560.779 483.713 564.875 467.76C568.972 451.808 573.728 436.028 579.144 420.422C590.67 389.904 601.71 359.178 612.264 328.243C622.818 297.309 633.511 266.097 644.343 234.608C646.357 228.504 648.232 222.574 649.967 216.817C651.703 211.06 653.231 205.13 654.55 199.026C655.91 190.952 656.433 182.759 656.112 174.577C655.594 166.436 655.594 158.269 656.112 150.128C656.624 143.688 656.624 137.217 656.112 130.777C655.765 123.841 650.835 122.141 641.323 125.679C635.75 127.862 630.835 131.446 627.054 136.083C626.325 137.435 625.179 140.14 623.513 144.198C621.846 148.255 620.284 150.336 618.93 150.336C617.576 150.336 617.889 148.983 617.889 146.278V141.493C610.395 144.911 604.034 150.398 599.558 157.307C595.085 164.258 590.144 170.897 584.768 177.178C582.288 180.034 580.058 183.097 578.103 186.334C575.047 191.119 571.576 196.217 567.687 201.627C564.37 206.385 561.31 211.316 558.522 216.401C556.161 220.84 555.64 223.372 556.96 223.996C558.279 224.62 559.98 223.441 562.063 220.459C563.312 218.221 565.058 216.299 567.167 214.84C568.123 214.546 568.993 214.022 569.701 213.315C570.409 212.608 570.934 211.739 571.229 210.783C569.788 216.037 567.651 221.076 564.875 225.765C561.473 231.175 558.001 236.273 554.46 241.058C550.919 245.844 547.447 251.948 544.045 259.369C540.856 265.564 536.121 270.832 530.297 274.663C528.214 276.016 526.547 276.224 525.193 274.663C524.931 274.389 524.616 274.171 524.267 274.023C523.918 273.874 523.542 273.797 523.162 273.797C522.783 273.797 522.407 273.874 522.058 274.023C521.709 274.171 521.394 274.389 521.131 274.663C516.708 277.649 513.438 282.053 511.862 287.148C509.915 291.685 507.689 296.098 505.196 300.361L493.01 321.169C488.914 328.105 484.852 335.249 480.825 342.601C477.581 348.233 474.035 353.686 470.201 358.935C466.029 364.083 463.234 370.204 462.077 376.726C461.383 380.124 461.383 382.171 462.077 382.864C462.449 383.106 462.883 383.235 463.327 383.235C463.771 383.235 464.205 383.106 464.577 382.864L468.118 381.824C469.428 381.338 470.87 381.338 472.18 381.824C472.805 382.552 472.18 384.321 471.138 387.442C469.573 390.837 467.69 394.076 465.514 397.118C463.165 400.484 460.626 403.714 457.911 406.793L452.808 412.411C450.725 414.492 448.537 416.885 446.142 419.59C444.029 422.108 441.447 424.193 438.539 425.728C436.909 426.958 434.953 427.681 432.915 427.809C432.049 427.826 431.196 428.019 430.408 428.377C429.62 428.735 428.914 429.25 428.332 429.89C423.678 433.226 419.834 437.563 417.084 442.583C414.014 447.779 410.531 452.719 406.668 457.356C401.806 462.937 397.384 468.885 393.441 475.147C389.344 481.598 385.595 487.875 382.193 493.978C375.591 505.173 369.644 516.741 364.383 528.623C358.969 540.949 352.56 552.814 345.219 564.101L303.558 633.807C289.685 656.967 274.38 679.24 257.731 700.497C249.607 710.693 242.143 720.888 235.338 731.084C228.534 741.28 221.59 752.135 214.508 763.649L204.093 781.96L193.677 800.271L183.262 816.605C179.891 821.906 177.459 827.748 176.076 833.875C177.43 833.875 178.992 832.211 180.658 828.777C182.325 825.344 183.887 823.992 185.241 824.72C186.595 825.448 186.074 827.945 183.679 832.315C180.946 837.265 177.884 842.027 174.513 846.568C171.91 850.105 169.306 853.435 166.702 856.972C166.744 856.175 166.744 855.376 166.702 854.579L165.66 855.62C163.975 857.358 162.442 859.238 161.078 861.238C159.931 862.816 159.149 864.628 158.786 866.544C157.928 867.585 157.161 868.699 156.495 869.873C148.996 878.682 142.053 887.352 135.665 895.883C129.277 904.414 123.514 913.396 118.375 922.829L105.669 945.198V946.342H104.836L102.544 950.504C100.531 953.902 98.1353 958.48 95.3579 964.237C93.5053 968.959 90.3216 973.042 86.1925 975.993C82.7555 978.698 80.8808 979.531 80.5683 978.49C80.3232 977.359 80.3232 976.188 80.5683 975.057L78.6936 976.93C78.6936 977.554 78.6935 977.658 79.7351 977.658C77.2354 977.658 79.7351 979.635 79.1102 980.571L75.4648 981.195C75.4648 982.548 76.6105 982.236 77.0271 982.652C74.6316 987.021 69.8406 989.622 68.7991 993.784C67.341 994.304 67.2368 992.327 65.987 993.784C69.424 993.784 64.3206 998.57 66.7161 998.362C63.4874 998.362 62.9666 1003.15 60.0504 1000.34C58.8005 1001.9 60.0503 1002.63 61.196 1002.32C59.7699 1003.9 58.9251 1005.91 58.8005 1008.04C57.2382 1008.66 54.0095 1017.71 50.3642 1018.44C52.7597 1018.44 51.1974 1019.07 51.1974 1020.63H53.2805L51.5099 1023.12C51.5099 1023.75 51.5099 1023.85 51.5099 1023.75C51.5099 1023.64 50.6767 1023.12 49.7393 1023.75C48.8019 1024.37 49.7393 1026.04 49.7393 1027.49L49.2185 1028.85C48.6978 1029.78 49.2185 1024.79 47.1355 1027.28C47.1355 1027.28 48.4895 1030.41 47.1355 1030.61C48.0729 1029.16 47.1355 1028.74 46.1981 1029.05L44.8441 1031.13H47.1355C43.4902 1037.17 38.8033 1042.89 35.3663 1049.55C33.6999 1048.61 32.8667 1054.23 30.6795 1052.36C31.3044 1050.59 28.4923 1052.36 28.0757 1053.29C29.5338 1052.25 29.3255 1057.04 31.4085 1053.81V1057.04C35.4705 1060.89 27.4508 1063.8 27.1383 1068.69C27.2023 1068.49 27.2023 1068.27 27.1383 1068.07C27.1383 1072.33 22.0349 1075.56 22.4515 1076.7H20.9933C20.9933 1080.24 21.6182 1081.07 19.8477 1083.57C20.4094 1084.13 20.7892 1084.85 20.9378 1085.63C21.0864 1086.41 20.9969 1087.21 20.6809 1087.94C20.2393 1089.12 19.4832 1090.17 18.4937 1090.96C19.1341 1088.8 19.45 1086.55 19.431 1084.3V1085.03C19.431 1085.03 19.431 1084.3 18.4937 1085.03C18.9868 1085.79 19.2492 1086.67 19.2492 1087.58C19.2492 1088.48 18.9868 1089.37 18.4937 1090.12L17.0356 1094.18C12.8695 1092.41 17.0356 1102.09 11.7238 1101.46C12.6612 1102.71 11.7238 1105.83 11.7238 1107.4C11.7238 1108.96 11.7238 1107.4 11.7238 1108.33C11.7238 1109.27 11.7238 1108.33 11.7238 1107.4C11.6102 1107.34 11.4856 1107.31 11.3593 1107.31C11.233 1107.31 11.1083 1107.34 10.9947 1107.4C12.557 1109.79 8.49508 1111.56 8.18263 1113.43C7.87017 1115.3 9.22415 1114.57 10.0574 1114.37C7.45357 1115.93 10.0574 1121.23 8.7034 1121.75C7.34942 1122.27 6.82866 1121.75 5.78714 1121.75C5.78714 1124.35 9.74492 1122.69 6.82866 1125.39C6.82866 1125.39 6.82866 1124.25 6.82866 1124.35C6.82866 1124.46 0.371238 1126.02 0.891998 1127.58L1.93352 1127.06C1.93352 1128.31 0.996151 1129.24 0.0587829 1130.08C-0.0195943 1130.98 -0.0195943 1131.88 0.0587829 1132.78H0.683689V1133.3C0.804458 1133.95 1.09145 1134.56 1.5169 1135.07C3.59995 1138.5 4.53732 1139.34 4.53732 1137.57C4.53732 1135.8 5.57883 1134.65 7.55772 1134.03C9.53661 1133.41 11.6197 1135.07 13.7027 1139.13C14.7415 1141.93 16.502 1144.4 18.8061 1146.31C20.3986 1147.77 22.3324 1148.8 24.4304 1149.32C26.7388 1148.94 28.9826 1148.24 31.0961 1147.24C38.2934 1144.03 44.855 1139.56 50.4684 1134.03C55.559 1127.74 60.0895 1121.02 64.0081 1113.95C73.5207 1099.04 82.3389 1083.78 90.4627 1068.17C98.5866 1052.57 107.405 1037.31 116.917 1022.39C124.416 1010.81 131.36 998.917 137.748 986.709C144.108 974.6 151.422 963.016 159.62 952.064C168.463 940.508 176.635 928.454 184.095 915.962C191.594 903.408 199.059 890.681 206.488 877.78C221.417 851.285 236.033 824.963 250.336 798.814C264.64 772.665 279.603 746.69 295.226 720.888C312.862 692.382 330.221 664.395 347.302 636.929L399.378 553.697L409.793 536.947L430.623 504.902C438.4 492.695 446.559 479.794 455.099 466.2C463.64 452.605 472.145 440.259 480.616 429.162C488.115 417.925 496.621 404.851 506.133 389.939C506.758 390.667 506.967 392.956 506.133 397.118C505.723 401.591 504.886 406.016 503.634 410.331C502.245 415.116 500.891 419.521 499.572 423.544C498.534 426.149 497.834 428.876 497.489 431.659C495.475 439.15 493.253 446.294 490.823 453.091C488.393 459.888 486.171 467.032 484.157 474.523C482.144 482.014 480.096 488.95 478.012 495.331C475.877 502.153 474.173 509.103 472.909 516.139C472.406 519.344 472.406 522.609 472.909 525.814C473.415 528.671 473.415 531.593 472.909 534.45C471.555 537.883 470.201 541.108 468.847 544.125C467.408 547.453 466.393 550.949 465.827 554.529C465.326 556.896 465.326 559.341 465.827 561.708C466.287 564.393 466.287 567.138 465.827 569.823L459.682 594.272C458.405 599.313 457.397 604.419 456.661 609.566C455.967 614.352 455.273 619.45 454.578 624.86C452.565 637.761 450.69 650.662 448.954 663.563C447.299 676.278 444.759 688.863 441.351 701.225C437.949 715.097 434.72 728.345 431.665 740.968C428.61 753.591 425.381 766.839 421.979 780.711C420.292 786.068 418.935 791.523 417.917 797.045C416.528 803.981 415.348 810.917 414.376 817.853C413.494 824.761 413.494 831.753 414.376 838.661C413.98 843.83 415.298 848.984 418.125 853.331C423.066 857.746 429.325 860.415 435.935 860.926C439.05 862.034 442.385 862.386 445.663 861.951C448.941 861.517 452.068 860.31 454.787 858.429C454.794 856.339 455.146 854.265 455.828 852.29L457.911 846.152C459.301 842.707 461.393 839.589 464.056 836.996C466.813 834.246 469.226 831.172 471.243 827.841C472.631 825.83 475.166 821.425 478.846 814.628C482.526 807.831 486.449 800.895 490.615 793.82C494.711 786.884 498.635 780.607 502.384 774.989C506.133 769.371 508.668 766.978 509.987 767.81C511.341 769.163 511.341 771.244 509.987 773.949C508.865 775.824 508.155 777.916 507.904 780.087H511.862C511.255 781.226 510.733 782.409 510.3 783.624C509.724 784.965 508.872 786.171 507.8 787.162V781.023C506.016 782.056 504.458 783.436 503.217 785.081C501.551 787.162 502.072 788.826 504.78 790.179V795.277C506.731 794.224 508.61 793.043 510.404 791.739C511.737 790.591 513.299 789.74 514.986 789.242C514.257 790.595 513.112 792.676 511.445 795.381C510.136 797.581 508.6 799.638 506.863 801.519C503.46 806.235 499.988 810.64 496.447 814.732C492.648 819.235 489.168 823.998 486.032 828.985C486.726 830.373 488.428 829.679 491.136 826.905C493.844 824.2 496.76 820.974 499.78 817.229L508.425 806.825C510.322 804.577 512.029 802.176 513.528 799.646L527.276 781.335C529.446 778.457 531.297 775.353 532.796 772.076L532.692 770.827C530.969 771.141 529.416 772.064 528.318 773.428C529.359 771.348 530.297 769.683 531.13 768.33C531.443 767.636 531.937 767.039 532.56 766.6C533.182 766.161 533.912 765.896 534.671 765.833C532.692 766.458 532.276 768.538 533.63 771.868C535.264 768.386 536.32 764.661 536.754 760.84C540.156 759.452 543.038 755.395 545.399 748.667C547.129 743.369 549.361 738.248 552.065 733.373C557.105 724.113 562.887 715.276 569.354 706.947C574.492 699.318 579.63 691.515 584.768 683.538L601.12 659.089C604.522 653.679 607.994 648.581 611.535 643.795C615.077 639.009 618.548 633.911 621.951 628.501C625.031 623.313 628.514 618.374 632.366 613.728C636.182 609.102 638.953 603.708 640.49 597.914C640.511 597.514 640.614 597.123 640.793 596.765C640.973 596.407 641.224 596.09 641.531 595.833C641.895 595.423 642.174 594.946 642.353 594.428C642.532 593.91 642.606 593.362 642.573 592.816H641.739V593.856C641.01 594.584 640.073 593.856 638.719 592.816H641.739C641.724 592.643 641.724 592.469 641.739 592.296C640.707 592.104 639.648 592.104 638.615 592.296C638.215 592.317 637.823 592.42 637.465 592.599C637.107 592.778 636.789 593.029 636.532 593.336C633.13 587.926 633.477 583.868 637.573 581.163C638.865 574.526 641.642 568.266 645.697 562.852C649.816 557.341 652.92 551.14 654.863 544.542C656.182 539.825 658.23 533.721 661.008 526.231C662.904 519.734 667.281 514.241 673.193 510.937C676.07 509.11 679.506 508.372 682.88 508.856C685.24 509.55 689.163 508.197 694.649 504.798C700.593 499.985 705.696 494.219 709.751 487.736C713.847 481.632 717.909 475.182 721.937 468.385C731.449 454.096 740.788 439.67 749.953 425.104C759.071 410.608 767.079 395.445 773.908 379.743C776.449 373.3 779.698 367.159 783.594 361.432C787.344 356.022 790.816 350.265 794.01 344.161C795.167 342.45 796.013 340.548 796.509 338.543C797.677 335.006 799.033 331.533 800.571 328.139C802.238 324.394 803.765 321.169 805.154 318.464C806.404 316.071 807.237 314.822 807.966 314.51C806.884 316.681 806.28 319.058 806.196 321.481C805.501 326.267 804.668 331.538 803.696 337.295C802.654 343.121 801.821 348.635 801.196 354.149C800.571 359.663 800.155 362.993 800.155 364.553C798.775 372.288 797.94 380.11 797.655 387.962C797.389 395.732 795.472 403.357 792.031 410.331C788.594 408.978 786.927 410.331 786.927 413.348C785.604 415.851 784.89 418.632 784.844 421.463C784.844 422.815 784.844 423.648 785.886 423.96C786.927 424.272 786.927 425.104 786.927 426.457C787.723 430.532 787.362 434.748 785.886 438.629C784.195 442.245 782.836 446.005 781.824 449.866C780.524 454.346 779.687 458.948 779.324 463.599C778.949 468.248 778.112 472.848 776.825 477.332C774.916 482.379 773.385 487.561 772.242 492.834C771.132 498.233 770.298 503.685 769.742 509.168C769.048 518.67 768.041 528.173 766.722 537.675L762.66 566.182C761.292 570.741 759.586 575.192 757.556 579.499C755.483 584.144 754.452 589.187 754.536 594.272C754.342 597.321 754.342 600.379 754.536 603.428C755.018 606.461 755.018 609.55 754.536 612.583C752.469 629.052 749.409 645.382 745.371 661.482C741.274 677.781 737.525 694.081 734.122 710.38C732.734 715.166 731.38 719.571 730.06 723.593C728.706 727.651 727.352 732.125 725.998 736.806C724.635 741.429 724.28 746.289 724.957 751.06C725.624 755.788 725.624 760.586 724.957 765.313C723.568 775.509 722.561 785.705 721.937 795.901C721.312 806.097 720.964 816.293 720.895 826.488V878.508C720.927 895.893 719.919 913.264 717.875 930.528C716.653 938.81 714.232 946.871 710.688 954.457C707.192 962.288 706.139 970.989 707.668 979.427L709.751 989.831C710.462 993.533 710.81 997.296 710.792 1001.07C710.792 1006.48 710.792 1011.57 710.792 1016.36C710.792 1021.15 710.792 1026.24 710.792 1031.65C710.792 1049.97 711.625 1068.62 713.292 1087.63C715.158 1106.59 715.158 1125.68 713.292 1144.64C711.956 1153.56 711.26 1162.57 711.209 1171.59C711.266 1180.65 712.279 1189.68 714.229 1198.53C714.854 1201.24 715.583 1204.67 716.312 1208.94C716.68 1212.34 718.1 1215.54 720.374 1218.09C721.484 1219.57 722.966 1220.72 724.668 1221.43C726.37 1222.14 728.231 1222.39 730.06 1222.15C733.253 1221.46 736.554 1221.46 739.746 1222.15C742.708 1222.63 745.502 1223.85 747.87 1225.69C749.834 1227.3 751.553 1229.2 752.974 1231.31C753.607 1232.08 754.035 1233 754.217 1233.98C754.399 1234.96 754.329 1235.98 754.015 1236.92C753.286 1238.59 755.057 1238.48 759.119 1236.92C760.25 1236.07 761.194 1234.99 761.892 1233.75C762.591 1232.52 763.029 1231.16 763.181 1229.75C763.875 1226.35 765.923 1225.34 769.326 1226.73C772.034 1227.35 773.388 1228.6 773.388 1230.27C773.319 1232.07 772.781 1233.83 771.825 1235.36C770.851 1236.99 770.014 1238.7 769.326 1240.46C768.597 1242.13 769.326 1243.37 770.367 1244C774.31 1240.86 778.569 1238.14 783.074 1235.88C786.129 1234.5 786.65 1230.44 784.636 1223.71C783.282 1218.93 782.136 1214.35 781.095 1209.98C780.053 1205.61 778.908 1200.93 777.554 1196.24C776.254 1191.76 775.417 1187.16 775.054 1182.51C774.707 1178.07 774.186 1173.49 773.492 1168.78C772.804 1164.58 772.804 1160.29 773.492 1156.09C774.267 1151.74 773.532 1147.26 771.409 1143.39C770.02 1144.78 769.499 1148.25 769.846 1153.8C770.194 1159.35 770.194 1165.62 769.846 1172.63C769.846 1180.12 770.194 1188.62 770.888 1198.12C769.534 1198.12 768.388 1195.2 767.347 1189.48C766.244 1183.08 765.548 1176.62 765.264 1170.13C764.898 1163.2 764.898 1156.25 765.264 1149.32C765.264 1142.87 765.264 1138.95 765.264 1137.57C765.745 1133.58 766.581 1129.65 767.763 1125.81C768.856 1122.41 769.691 1118.93 770.263 1115.41C770.888 1110 771.409 1104.17 771.825 1098.14C772.242 1092.1 771.825 1086.28 771.825 1080.86C771.825 1068.66 772.346 1056.45 773.388 1044.24C774.429 1032.04 774.95 1019.83 774.95 1007.62C774.925 995.543 775.76 983.479 777.45 971.52C779.111 959.871 779.946 948.12 779.949 936.354C780.644 911.246 781.824 886.311 783.49 861.55C785.157 836.788 787.691 811.854 791.093 786.745C792.482 775.856 793.489 765.001 794.114 754.181C794.739 743.361 795.746 732.159 797.134 720.576C797.626 715.49 797.626 710.369 797.134 705.282C796.627 700.197 796.627 695.074 797.134 689.989C797.829 686.59 798.835 681.007 800.155 673.238C801.474 665.47 800.78 660.199 798.072 657.424C795.364 654.65 795.016 657.875 797.03 667.1L792.447 686.451L785.782 714.438C784.393 713.744 783.872 709.167 784.219 700.705C784.656 691.151 785.665 681.632 787.24 672.198C788.906 661.655 790.607 651.806 792.343 642.651C792.834 637.133 794.39 631.763 796.926 626.837C797.89 630.677 798.241 634.644 797.968 638.593C797.968 645.044 798.592 648.269 800.051 648.269C801.509 648.269 802.55 646.188 803.592 642.13C804.686 637.622 805.383 633.027 805.675 628.397C805.675 623.334 806.022 618.409 806.716 613.624C807.411 608.838 807.411 605.786 806.716 604.468L812.861 573.881C814.875 563.685 816.576 553.489 817.965 543.293C819.284 538.577 820.464 533.999 821.506 529.56C822.547 525.19 823.693 520.612 825.047 515.827C825.943 511.828 827.127 507.899 828.588 504.07C830.37 500.563 832.611 497.309 835.254 494.394C838.338 491.56 840.634 487.975 841.92 483.991C842.961 480.245 844.107 475.979 845.461 471.298C846.815 466.616 848.169 463.703 849.523 460.894C851.025 457.568 852.73 454.337 854.626 451.218C858.752 442.177 861.49 432.567 862.75 422.711C864.139 412.515 865.493 402.666 866.812 393.164C868.201 385.673 869.902 378.044 871.915 370.275C873.929 362.507 875.63 354.878 877.019 347.387C879.032 338.578 881.081 329.908 883.164 321.377C885.247 312.846 887.642 304.176 890.35 295.367C890.923 291.788 891.938 288.293 893.371 284.963C895.384 279.553 897.433 273.449 899.516 266.652C901.599 259.855 904.307 251.358 907.64 241.162L910.66 244.18C913.368 233.984 915.763 225.834 917.846 219.73C919.93 213.627 921.978 208.043 923.991 202.98C925.425 199.904 926.441 196.649 927.012 193.304C933.399 172.585 938.512 151.495 942.322 130.152L946.384 117.98C947.725 114.033 947.725 109.754 946.384 105.807L952.217 94.6748ZM17.4522 1096.68C16.9314 1096.68 17.4522 1095.12 17.4522 1092C17.8401 1093.53 17.8401 1095.14 17.4522 1096.68ZM26.6175 1077.33C27.2425 1076.6 27.6591 1076.6 27.6591 1077.33C27.6591 1078.06 26.6175 1078.06 26.6175 1077.33ZM104.523 949.047V948.423H105.669L104.523 949.047ZM162.223 868.624C161.494 869.249 161.494 868.625 162.223 867.584C162.953 866.544 162.848 867.896 162.223 868.624ZM364.07 572.216C361.987 575.649 360.321 577.314 358.967 577.314V576.274C359.592 574.921 360.841 572.84 362.508 570.135C363.734 567.836 365.722 566.034 368.132 565.037C367.403 566.494 366.049 569.095 364.07 572.216ZM482.283 378.703C481.554 380.783 480.616 381.096 479.262 379.743L480.304 378.703C480.126 378.447 480.011 378.154 479.969 377.846C479.926 377.538 479.956 377.224 480.058 376.93C480.159 376.636 480.329 376.37 480.553 376.154C480.776 375.938 481.048 375.777 481.345 375.685C482.457 375.157 483.476 374.454 484.366 373.605C483.544 375.285 482.848 377.024 482.283 378.807V378.703ZM504.155 364.969C504.574 362.32 505.418 359.756 506.654 357.374C507.983 354.728 509.515 352.189 511.237 349.78C512.903 347.387 514.153 346.242 514.778 346.242C515.403 346.242 515.611 348.635 514.778 351.34C514.4 354.117 513.701 356.84 512.695 359.455C511.793 361.975 510.605 364.384 509.154 366.634C507.765 368.645 506.758 369.651 506.133 369.651C505.301 369.264 504.646 368.578 504.299 367.729C503.951 366.88 503.937 365.932 504.259 365.073L504.155 364.969ZM499.468 816.709C499.503 816.328 499.503 815.945 499.468 815.564H500.509L499.468 816.709ZM496.552 817.645C496.569 815.954 497.055 814.3 497.955 812.867C498.856 811.435 500.137 810.28 501.655 809.53C501.811 811.254 501.396 812.982 500.474 814.448C499.552 815.914 498.174 817.037 496.552 817.645ZM525.61 778.422C525.422 780.222 524.681 781.919 523.487 783.279C522.293 784.639 520.706 785.596 518.944 786.017C520.613 785.021 522.008 783.626 523.006 781.96C523.943 780.503 524.985 778.734 525.922 776.966L525.61 778.422ZM800.363 625.172C800.988 623.82 801.405 623.82 801.405 625.172C801.405 626.525 799.634 626.525 800.363 625.172ZM767.763 306.499L769.846 307.54C769.117 307.54 768.805 307.54 768.805 309.1C768.805 310.661 768.805 310.661 767.763 310.661C765.68 308.996 765.68 307.123 767.763 306.499ZM720.166 408.354L719.124 407.313C717.736 407.313 716.208 405.788 714.542 402.736C713.229 400.727 712.376 398.453 712.042 396.077C713.554 390.448 715.982 385.105 719.229 380.263C723.95 371.801 729.401 362.993 735.58 353.837C741.76 344.682 747.384 336.671 752.453 329.804C755.019 325.935 758.103 322.434 761.618 319.4C762.972 320.128 763.181 321.273 761.618 322.937C760.056 324.602 759.535 326.475 758.598 328.556C757.557 330.692 756.72 332.921 756.098 335.214C755.75 335.939 755.685 336.767 755.917 337.537C756.148 338.306 756.658 338.962 757.348 339.376C755.539 341.953 754.232 344.847 753.495 347.907C752.674 351.644 751.116 355.181 748.912 358.311L733.602 385.777C730.863 389.53 728.622 393.622 726.936 397.95C724.228 404.192 721.971 407.66 720.166 408.354ZM794.114 335.526C792.378 339.618 790.33 344.196 787.969 349.259L781.303 363.513C780.231 366.185 778.869 368.732 777.241 371.108L776.2 370.067C774.87 373.394 772.763 376.355 770.055 378.703C767.344 381.048 765.236 384.009 763.91 387.338C762.558 390.697 761.547 394.182 760.889 397.742C760.173 401.425 758.797 404.95 756.827 408.146C754.608 410.534 752.555 413.072 750.682 415.741L742.038 427.497C739.017 431.555 736.101 435.092 733.393 437.901C730.685 440.71 728.915 442.479 728.29 442.479C727.665 442.479 728.29 438.629 731.31 432.803C734.331 426.977 737.559 419.694 741.725 410.955C745.891 402.216 751.203 392.748 757.036 382.968C762.868 373.188 768.284 364.137 773.388 356.022C778.491 347.907 783.074 341.144 787.136 335.214C791.198 329.284 793.906 327.411 795.26 328.035C796.614 328.66 795.364 330.948 793.697 335.006L794.114 335.526ZM806.82 287.668C802.724 295.783 797.967 304.592 792.552 314.094C787.136 323.596 781.581 332.301 775.887 340.208C770.471 348.323 766.722 352.727 764.639 353.421H763.597C762.868 353.421 764.743 349.155 769.222 340.728C773.7 332.301 778.908 323.041 785.053 313.262L801.925 286.316C806.994 278.2 810.223 274.455 811.611 275.079C813 275.704 811.299 279.726 806.508 287.148L806.82 287.668ZM815.986 244.908C815.257 244.908 815.257 244.908 815.986 243.867H817.027L815.986 244.908ZM909.723 36.8289L905.661 40.8864C905.986 38.9648 906.509 37.082 907.223 35.2683C908.264 32.2511 909.41 30.6905 910.764 30.6905L909.723 31.7309C912.917 31.5922 912.812 33.2222 909.41 36.6208L909.723 36.8289Z" fill="white" fill-opacity="0.02"/>
<path d="M641.844 591.047C641.761 591.352 641.761 591.675 641.844 591.981C642.052 591.15 642.156 590.839 641.844 591.047Z" fill="white" fill-opacity="0.02"/>
<path d="M788.592 950.089C788.592 950.712 788.592 950.712 789.63 950.089C790.667 949.466 788.904 949.57 788.592 950.089Z" fill="white" fill-opacity="0.02"/>
</svg>
