<svg width="50" height="50" viewBox="0 0 50 50" fill="none" xmlns="http://www.w3.org/2000/svg">
<path opacity="0.4" fill-rule="evenodd" clip-rule="evenodd" d="M25 50C38.8071 50 50 38.8071 50 25C50 11.1929 38.8071 0 25 0C11.1929 0 0 11.1929 0 25C0 38.8071 11.1929 50 25 50ZM36.8271 20.2576C37.1933 18.552 37.5594 16.8464 37.9208 15.1454C38.073 14.4689 38.054 13.7924 37.4263 13.285C36.9022 12.8207 36.3436 13.0183 35.7834 13.2165C35.7541 13.2268 35.7249 13.2372 35.6956 13.2474C35.6956 13.2474 35.6766 13.2662 35.6576 13.2662C28.8277 15.8832 21.9862 18.4887 15.1512 21.0918C13.2499 21.8159 11.349 22.5398 9.44911 23.2637C9.39646 23.2839 9.34291 23.3037 9.28909 23.3236C8.99291 23.433 8.68835 23.5456 8.47913 23.7523C8.23188 23.9778 7.96561 24.3536 8.00365 24.6355C8.04169 24.8798 8.42207 25.1805 8.70736 25.2744C10.9706 25.9886 13.2529 26.6651 15.5352 27.3416C15.7254 27.398 15.9917 27.3416 16.1629 27.2476C16.6702 26.9675 17.1659 26.6526 17.659 26.3394C17.7944 26.2534 17.9296 26.1675 18.0648 26.0825C20.9061 24.3235 23.7401 22.5573 26.5714 20.7928C28.3075 19.7108 30.0426 18.6295 31.7776 17.5508C31.7862 17.5458 31.7948 17.5407 31.8034 17.5356C32.0823 17.3698 32.3948 17.184 32.6715 17.4757C32.7096 17.5133 32.4623 17.9267 32.2721 18.0958L20.0618 29.1456C19.8906 29.3148 19.7575 29.5779 19.7385 29.8034C19.5673 31.7202 19.4152 33.6182 19.263 35.535C19.2509 35.7151 19.2542 35.8953 19.2583 36.1097C19.2605 36.2309 19.263 36.363 19.263 36.5122C20.4972 35.983 21.375 35.0946 22.2498 34.2092C22.804 33.6483 23.3571 33.0886 23.9988 32.6222C24.9117 33.2799 25.8246 33.9565 26.7376 34.633C27.2479 35.0057 27.7553 35.3812 28.2621 35.7563C29.0586 36.3457 29.8535 36.934 30.6555 37.5082C31.9298 38.4102 32.8998 38.0532 33.2992 36.5874C33.3372 36.4746 33.3753 36.3431 33.3943 36.2115C33.7843 34.4066 34.1744 32.597 34.5645 30.7874C34.9542 28.9795 35.3439 27.1716 35.7336 25.3684C36.095 23.6679 36.461 21.9628 36.8271 20.2576Z" fill="white"/>
</svg>
