<svg width="50" height="50" viewBox="0 0 50 50" fill="none" xmlns="http://www.w3.org/2000/svg">
<path opacity="0.4" d="M25.0597 0C11.2172 0 0 11.244 0 25C0 36.9617 8.35322 47.0096 19.5704 49.5215V30.622H15.5131V24.6411H19.6897V22.6077C19.6897 20.3349 19.9284 18.4211 20.4057 17.3445C20.8831 16.1483 21.8377 15.311 23.1504 14.4737C24.463 13.6364 26.253 13.2775 28.2816 13.2775C30.3103 13.2775 32.4582 13.5167 34.4869 14.2345L33.5322 19.4976C32.3389 19.1388 31.1456 19.0191 30.0716 19.0191C28.9976 19.0191 28.1623 19.378 27.8043 19.8565C27.327 20.3349 27.2076 21.1723 27.2076 22.7273V24.6411H32.6969V30.622H27.2076V50C39.9761 48.9234 50 38.1579 50 25C50 11.244 38.9021 0 25.0597 0Z" fill="white"/>
</svg>
