<svg width="168" height="81" viewBox="0 0 168 81" fill="none" xmlns="http://www.w3.org/2000/svg">
<g clip-path="url(#clip0)">
<path d="M16.2668 32.6151L21.0542 0.513672H30.8206V45.7249H24.1855V13.304L19.3308 45.7249H12.6957L7.46312 13.7754V45.7249H1.33521V0.513672H11.1016L16.2668 32.6151Z" fill="white"/>
<path d="M35.3545 11.3657C35.3545 7.7063 36.2688 4.89719 38.0976 2.93831C39.9263 0.979438 42.5641 0 46.0111 0C49.4615 0 52.0993 0.979438 53.9245 2.93831C55.7498 4.89719 56.6642 7.7063 56.6676 11.3657V34.8774C56.6676 38.5368 55.7533 41.3459 53.9245 43.3048C52.0958 45.2636 49.458 46.2431 46.0111 46.2431C42.5607 46.2431 39.9228 45.2636 38.0976 43.3048C36.2723 41.3459 35.3579 38.5368 35.3545 34.8774V11.3657ZM42.3726 35.3278C42.3726 36.9655 42.7021 38.1178 43.3611 38.7847C44.0964 39.4306 45.0374 39.7863 46.0111 39.7863C46.9847 39.7863 47.9257 39.4306 48.661 38.7847C49.32 38.1178 49.6495 36.9655 49.6495 35.3278V10.9048C49.6495 9.26712 49.32 8.11484 48.661 7.44791C47.9257 6.80195 46.9847 6.44627 46.0111 6.44627C45.0374 6.44627 44.0964 6.80195 43.3611 7.44791C42.7021 8.11484 42.3726 9.26712 42.3726 10.9048V35.3278Z" fill="white"/>
<path d="M60.3061 11.3657C60.3061 7.7063 61.1687 4.89719 62.8939 2.93831C64.6191 0.979438 67.2069 0 70.6573 0C74.1077 0 76.6955 0.979438 78.4207 2.93831C80.1459 4.89719 81.0085 7.7063 81.0085 11.3657V12.7851H74.3476V10.9048C74.3476 9.26712 74.0387 8.11484 73.4211 7.44791C72.7105 6.80158 71.7888 6.44402 70.8333 6.44402C69.8779 6.44402 68.9561 6.80158 68.2455 7.44791C67.6279 8.11484 67.3191 9.26712 67.3191 10.9048C67.2939 12.341 67.6515 13.7577 68.3542 15.0058C69.0634 16.228 69.9205 17.3558 70.9058 18.3631C71.9409 19.4107 73.0364 20.4582 74.1923 21.5057C75.3724 22.5724 76.471 23.728 77.4788 24.9626C78.5253 26.2575 79.3845 27.6966 80.0304 29.2365C80.7511 31.0186 81.1034 32.9312 81.0655 34.8565C81.0655 38.5158 80.1822 41.3249 78.4156 43.2838C76.649 45.2427 74.0422 46.2221 70.5952 46.2221C67.1448 46.2221 64.5381 45.2427 62.7749 43.2838C61.0118 41.3249 60.1285 38.5158 60.125 34.8565V32.0805H66.7653V35.3121C66.7653 36.9498 67.0948 38.0916 67.7538 38.7375C68.4978 39.3647 69.4355 39.7081 70.4037 39.7081C71.372 39.7081 72.3097 39.3647 73.0537 38.7375C73.7127 38.0916 74.0422 36.9498 74.0422 35.3121C74.0666 33.8759 73.7091 32.4595 73.0071 31.2111C72.2973 29.9892 71.4403 28.8615 70.4555 27.8537C69.4204 26.8062 68.3249 25.7587 67.169 24.7112C65.9881 23.6453 64.8894 22.4897 63.8825 21.2543C62.8356 19.9634 61.9764 18.5278 61.3309 16.9909C60.612 15.2067 60.2632 13.292 60.3061 11.3657Z" fill="white"/>
<path d="M105.427 28.8698V34.8774C105.427 38.5368 104.544 41.3459 102.777 43.3048C101.011 45.2636 98.4038 46.2431 94.9568 46.2431C91.5064 46.2431 88.8996 45.2636 87.1365 43.3048C85.3733 41.3459 84.49 38.5368 84.4866 34.8774V11.3657C84.4866 7.7063 85.3699 4.89719 87.1365 2.93831C88.9031 0.979438 91.5099 0 94.9568 0C98.4072 0 101.014 0.979438 102.777 2.93831C104.54 4.89719 105.424 7.7063 105.427 11.3657V15.76H98.7919V10.9048C98.7919 9.26712 98.4624 8.11484 97.8034 7.44791C97.0681 6.80195 96.1272 6.44627 95.1535 6.44627C94.1798 6.44627 93.2388 6.80195 92.5036 7.44791C91.8376 8.12182 91.5047 9.2741 91.5047 10.9048V35.3278C91.5047 36.9655 91.8342 38.1073 92.4932 38.7533C93.2372 39.3804 94.1749 39.7238 95.1431 39.7238C96.1114 39.7238 97.049 39.3804 97.793 38.7533C98.4521 38.1073 98.7816 36.9655 98.7816 35.3278V28.8698H105.427Z" fill="white"/>
<path d="M109.133 11.3657C109.133 7.7063 110.047 4.89719 111.876 2.93831C113.704 0.979438 116.342 0 119.789 0C123.24 0 125.877 0.979438 127.703 2.93831C129.528 4.89719 130.442 7.7063 130.446 11.3657V34.8774C130.446 38.5368 129.531 41.3459 127.703 43.3048C125.874 45.2636 123.236 46.2431 119.789 46.2431C116.339 46.2431 113.701 45.2636 111.876 43.3048C110.05 41.3459 109.136 38.5368 109.133 34.8774V11.3657ZM116.151 35.3278C116.151 36.9655 116.48 38.1178 117.139 38.7847C117.874 39.4306 118.815 39.7863 119.789 39.7863C120.763 39.7863 121.704 39.4306 122.439 38.7847C123.098 38.1178 123.428 36.9655 123.428 35.3278V10.9048C123.428 9.26712 123.098 8.11484 122.439 7.44791C121.704 6.80195 120.763 6.44627 119.789 6.44627C118.815 6.44627 117.874 6.80195 117.139 7.44791C116.48 8.11484 116.151 9.26712 116.151 10.9048V35.3278Z" fill="white"/>
<path d="M150.553 21.637L148.001 45.7302H138.359L133.385 0.513672H140.217L143.985 36.1662L147.37 0.513672H154.129L157.638 36.4229L161.261 0.513672H167.389L162.41 45.7249H153.094L150.553 21.637Z" fill="white"/>
<path d="M4.78743 60.3281C6.44017 60.3281 7.63746 60.7175 8.3793 61.4961C9.12113 62.2748 9.49205 63.4532 9.49205 65.0315V65.7596C9.52598 66.6589 9.35787 67.5543 9.00037 68.3784C8.67904 69.0563 8.12815 69.5953 7.44769 69.8973C7.84326 70.0319 8.2087 70.2441 8.52309 70.5218C8.83749 70.7995 9.09465 71.1373 9.27985 71.5157C9.65409 72.3851 9.83095 73.3283 9.79741 74.2759V75.9415C9.79741 77.5198 9.39372 78.7209 8.58632 79.545C7.77893 80.3691 6.57129 80.7828 4.9634 80.7863H0V60.3595H4.78743V60.3281ZM3.17264 63.2455V68.6455H4.41479C4.92223 68.6757 5.42196 68.509 5.8122 68.1793C6.00748 67.9477 6.15408 67.6782 6.24306 67.3874C6.33205 67.0965 6.36154 66.7904 6.32976 66.4876V65.351C6.37556 64.7867 6.23936 64.2225 5.94159 63.7431C5.78945 63.5693 5.59936 63.4339 5.38642 63.3475C5.17349 63.2611 4.94358 63.2262 4.71497 63.2455H3.16229H3.17264ZM3.17264 71.5681V77.8533H4.98928C5.21263 77.8691 5.43681 77.8382 5.64785 77.7625C5.85888 77.6868 6.05225 77.5679 6.2159 77.4133C6.54294 76.9601 6.6923 76.4002 6.63512 75.842V74.0612C6.63512 73.108 6.4764 72.455 6.15897 72.1023C5.94892 71.9128 5.7029 71.7686 5.43594 71.6786C5.16898 71.5885 4.88668 71.5545 4.60629 71.5786H3.17264V71.5681Z" fill="white"/>
<path d="M21.986 80.7647H18.7823L18.2337 77.0564H14.3365L13.7879 80.7647H10.874L14.1036 60.3379H18.7616L21.986 80.7647ZM14.7402 74.2805H17.799L16.2463 63.9466L14.7402 74.2805Z" fill="white"/>
<path d="M30.0909 80.7635C30.0495 80.6273 30.0133 80.5016 29.9771 80.3864C29.9317 80.2426 29.8971 80.0955 29.8736 79.9464C29.8408 79.7244 29.8218 79.5005 29.8166 79.276C29.8166 79.0037 29.8166 78.6545 29.8166 78.2285V75.0178C29.8833 74.3087 29.7099 73.5977 29.3249 73.0013C29.1195 72.7907 28.8704 72.6288 28.5956 72.5274C28.3208 72.426 28.0273 72.3875 27.736 72.4147H26.6285V80.7373H23.4558V60.3105H28.2432C29.896 60.3105 31.0933 60.6999 31.8351 61.4785C32.5769 62.2572 32.9479 63.4357 32.9479 65.0139V66.6219C32.9479 68.7169 32.2578 70.0997 30.8776 70.7701C31.2509 70.9074 31.5917 71.1223 31.8778 71.4011C32.164 71.6799 32.3892 72.0162 32.539 72.3885C32.8571 73.2613 33.0081 74.1874 32.9841 75.1173V78.2599C32.9807 78.7041 32.9997 79.1481 33.041 79.5903C33.0839 79.9862 33.1815 80.3741 33.3309 80.7426H30.0909V80.7635ZM26.6285 63.2436V69.5288H27.8447C28.3522 69.559 28.8519 69.3923 29.2421 69.0626C29.4371 68.8308 29.5836 68.5613 29.6726 68.2705C29.7615 67.9797 29.7912 67.6736 29.7597 67.3709V65.3544C29.8055 64.79 29.6693 64.2259 29.3715 63.7464C29.2194 63.5727 29.0293 63.4372 28.8164 63.3509C28.6034 63.2645 28.3735 63.2296 28.1449 63.2489H26.5922L26.6285 63.2436Z" fill="white"/>
<path d="M39.8419 60.3281C41.4946 60.3281 42.6919 60.7175 43.4337 61.4961C44.1756 62.2748 44.5465 63.4532 44.5465 65.0315V65.7596C44.5804 66.6589 44.4123 67.5543 44.0548 68.3784C43.7335 69.0563 43.1826 69.5953 42.5021 69.8973C42.8977 70.0319 43.2631 70.2441 43.5775 70.5218C43.8919 70.7995 44.1491 71.1373 44.3343 71.5157C44.7085 72.3851 44.8854 73.3283 44.8519 74.2759V75.9415C44.8519 77.5198 44.4482 78.7209 43.6408 79.545C42.8334 80.3691 41.6257 80.7828 40.0178 80.7863H35.0544V60.3595H39.8419V60.3281ZM38.2271 63.2455V68.6455H39.4692C39.9767 68.6757 40.4764 68.509 40.8666 68.1793C41.0619 67.9477 41.2085 67.6782 41.2975 67.3874C41.3865 67.0965 41.416 66.7904 41.3842 66.4876V65.351C41.43 64.7867 41.2938 64.2225 40.996 63.7431C40.8439 63.5693 40.6538 63.4339 40.4409 63.3475C40.2279 63.2611 39.998 63.2262 39.7694 63.2455H38.2167H38.2271ZM38.2271 71.5681V77.8533H40.0437C40.2671 77.8691 40.4913 77.8382 40.7023 77.7625C40.9133 77.6868 41.1067 77.5679 41.2703 77.4133C41.5974 76.9601 41.7467 76.4002 41.6896 75.842V74.0612C41.6896 73.108 41.5308 72.455 41.2134 72.1023C41.0034 71.9128 40.7573 71.7686 40.4904 71.6786C40.2234 71.5885 39.9411 71.5545 39.6607 71.5786H38.2271V71.5681Z" fill="white"/>
<path d="M49.9392 68.9375H54.2971V71.8601H49.9392V77.8414H55.4202V80.7588H46.7666V60.332H55.4202V63.2494H49.9392V68.9375Z" fill="white"/>
<path d="M64.0222 80.7635C63.9808 80.6273 63.9446 80.5016 63.9084 80.3864C63.863 80.2426 63.8284 80.0955 63.8049 79.9464C63.7721 79.7244 63.7531 79.5005 63.7479 79.276C63.7479 79.0037 63.7479 78.6545 63.7479 78.2285V75.0178C63.8146 74.3087 63.6412 73.5977 63.2562 73.0013C63.0508 72.7907 62.8017 72.6288 62.5269 72.5274C62.2521 72.426 61.9586 72.3875 61.6673 72.4147H60.5701V80.7373H57.3975V60.3105H62.1849C63.8376 60.3105 65.0349 60.6999 65.7768 61.4785C66.5186 62.2572 66.8895 63.4357 66.8895 65.0139V66.6219C66.8895 68.7169 66.1994 70.0997 64.8193 70.7701C65.1926 70.9074 65.5333 71.1223 65.8195 71.4011C66.1056 71.6799 66.3309 72.0162 66.4806 72.3885C66.7987 73.2613 66.9498 74.1874 66.9257 75.1173V78.2599C66.9223 78.7041 66.9413 79.1481 66.9827 79.5903C67.0255 79.9862 67.1231 80.3741 67.2725 80.7426H64.0222V80.7635ZM60.5598 63.2436V69.5288H61.8019C62.3093 69.559 62.8091 69.3923 63.1993 69.0626C63.3943 68.8308 63.5408 68.5613 63.6297 68.2705C63.7187 67.9797 63.7483 67.6736 63.7169 67.3709V65.3544C63.7627 64.79 63.6265 64.2259 63.3287 63.7464C63.1766 63.5727 62.9865 63.4372 62.7735 63.3509C62.5606 63.2645 62.3307 63.2296 62.1021 63.2489H60.5494L60.5598 63.2436Z" fill="white"/>
<path d="M68.9805 60.3281H72.1531V80.7549H68.9805V60.3281Z" fill="white"/>
<path d="M77.2923 65.9638V80.7654H74.425V60.3386H78.4051L81.6657 72.5737V60.3281H84.4916V80.7549H81.231L77.2923 65.9638Z" fill="white"/>
<path d="M91.546 69.3775H95.9867V75.8512C95.9867 77.5063 95.5881 78.7773 94.7911 79.6642C93.9941 80.5511 92.8157 80.9946 91.2562 80.9946C89.7 80.9946 88.5217 80.5511 87.7212 79.6642C86.9207 78.7773 86.5222 77.5063 86.5257 75.8512V65.2293C86.5257 63.5742 86.9242 62.3032 87.7212 61.4163C88.5183 60.5294 89.6966 60.0859 91.2562 60.0859C92.8157 60.0859 93.9941 60.5294 94.7911 61.4163C95.5881 62.3032 95.9867 63.5742 95.9867 65.2293V67.2144H92.9848V65.025C93.0441 64.4626 92.8844 63.8989 92.5397 63.4537C92.2073 63.1615 91.7818 63.0006 91.3416 63.0006C90.9013 63.0006 90.4758 63.1615 90.1434 63.4537C89.7982 63.8987 89.6384 64.4626 89.6983 65.025V76.0607C89.6646 76.3394 89.6867 76.6222 89.7632 76.8921C89.8396 77.162 89.9689 77.4136 90.1434 77.632C90.4799 77.9153 90.9038 78.0704 91.3416 78.0704C91.7793 78.0704 92.2032 77.9153 92.5397 77.632C92.7142 77.4136 92.8435 77.162 92.9199 76.8921C92.9964 76.6222 93.0185 76.3394 92.9848 76.0607V72.2949H91.5408V69.3775H91.546Z" fill="white"/>
<path d="M102.104 65.2293C102.104 63.5742 102.494 62.3032 103.274 61.4163C104.054 60.5294 105.222 60.0859 106.778 60.0859C108.334 60.0859 109.502 60.5294 110.282 61.4163C111.062 62.3032 111.451 63.5742 111.451 65.2293V65.8735H108.45V65.025C108.506 64.4669 108.357 63.9074 108.03 63.4537C107.709 63.1615 107.293 62.9998 106.861 62.9998C106.429 62.9998 106.012 63.1615 105.691 63.4537C105.364 63.9072 105.215 64.4669 105.272 65.025C105.258 65.6737 105.417 66.3141 105.732 66.8791C106.053 67.4321 106.441 67.9424 106.887 68.3981C107.349 68.8764 107.844 69.3531 108.372 69.8279C108.906 70.3131 109.402 70.8383 109.857 71.3992C110.33 71.9832 110.719 72.6321 111.012 73.3267C111.335 74.1327 111.492 74.9972 111.472 75.8669C111.472 77.522 111.074 78.793 110.277 79.6799C109.48 80.5668 108.301 81.0103 106.742 81.0103C105.182 81.0103 104.004 80.5668 103.207 79.6799C102.41 78.793 102.013 77.5168 102.016 75.8512V74.5942H105.018V76.0555C104.985 76.3342 105.007 76.6169 105.083 76.8869C105.16 77.1568 105.289 77.4084 105.463 77.6268C105.8 77.9101 106.224 78.0652 106.661 78.0652C107.099 78.0652 107.523 77.9101 107.86 77.6268C108.034 77.4084 108.163 77.1568 108.24 76.8869C108.316 76.6169 108.338 76.3342 108.305 76.0555C108.318 75.4069 108.159 74.7665 107.844 74.2014C107.523 73.6486 107.135 73.1384 106.69 72.6824C106.228 72.2041 105.732 71.7274 105.205 71.2526C104.67 70.7681 104.174 70.2428 103.719 69.6813C103.246 69.0976 102.857 68.4486 102.565 67.7538C102.243 66.9528 102.087 66.0938 102.104 65.2293Z" fill="white"/>
<path d="M122.501 73.1434V75.8512C122.501 77.5063 122.103 78.7773 121.306 79.6642C120.509 80.5511 119.33 80.9946 117.771 80.9946C116.215 80.9946 115.036 80.5511 114.236 79.6642C113.435 78.7773 113.037 77.5063 113.04 75.8512V65.2293C113.04 63.5742 113.439 62.3032 114.236 61.4163C115.033 60.5294 116.211 60.0859 117.771 60.0859C119.33 60.0859 120.509 60.5294 121.306 61.4163C122.103 62.3032 122.501 63.5742 122.501 65.2293V67.2144H119.499V65.025C119.559 64.4626 119.399 63.8989 119.054 63.4537C118.722 63.1615 118.296 63.0006 117.856 63.0006C117.416 63.0006 116.99 63.1615 116.658 63.4537C116.313 63.8987 116.153 64.4626 116.213 65.025V76.0607C116.179 76.3394 116.201 76.6222 116.278 76.8921C116.354 77.162 116.484 77.4136 116.658 77.632C116.995 77.9153 117.418 78.0704 117.856 78.0704C118.294 78.0704 118.718 77.9153 119.054 77.632C119.229 77.4136 119.358 77.162 119.435 76.8921C119.511 76.6222 119.533 76.3394 119.499 76.0607V73.1381H122.501V73.1434Z" fill="white"/>
<path d="M127.61 80.7654H124.437V60.3386H127.61V69.0959H131.233V60.3281H134.462V80.7549H131.233V72.0028H127.61V80.7601V80.7654Z" fill="white"/>
<path d="M136.496 65.2293C136.496 63.5742 136.91 62.3032 137.738 61.4163C138.566 60.5294 139.758 60.0859 141.315 60.0859C142.871 60.0859 144.063 60.5294 144.891 61.4163C145.719 62.3032 146.133 63.5742 146.133 65.2293V75.8512C146.133 77.5063 145.719 78.7773 144.891 79.6642C144.063 80.5511 142.871 80.9946 141.315 80.9946C139.755 80.9946 138.563 80.5511 137.738 79.6642C136.914 78.7773 136.5 77.5063 136.496 75.8512V65.2293ZM139.669 76.0607C139.609 76.6232 139.769 77.187 140.114 77.632C140.446 77.9242 140.872 78.0851 141.312 78.0851C141.752 78.0851 142.178 77.9242 142.51 77.632C142.855 77.1868 143.015 76.6231 142.955 76.0607V65.025C143.015 64.4626 142.855 63.8989 142.51 63.4537C142.178 63.1615 141.752 63.0006 141.312 63.0006C140.872 63.0006 140.446 63.1615 140.114 63.4537C139.769 63.8987 139.609 64.4626 139.669 65.025V76.0607Z" fill="white"/>
<path d="M147.919 65.2293C147.919 63.5742 148.333 62.3032 149.161 61.4163C149.989 60.5294 151.181 60.0859 152.737 60.0859C154.293 60.0859 155.485 60.5294 156.314 61.4163C157.142 62.3032 157.556 63.5742 157.556 65.2293V75.8512C157.556 77.5063 157.142 78.7773 156.314 79.6642C155.485 80.5511 154.293 80.9946 152.737 80.9946C151.178 80.9946 149.985 80.5511 149.161 79.6642C148.336 78.7773 147.922 77.5063 147.919 75.8512V65.2293ZM151.091 76.0607C151.031 76.6232 151.191 77.187 151.536 77.632C151.869 77.9242 152.294 78.0851 152.735 78.0851C153.175 78.0851 153.6 77.9242 153.933 77.632C154.277 77.1868 154.437 76.6231 154.378 76.0607V65.025C154.437 64.4626 154.277 63.8989 153.933 63.4537C153.6 63.1615 153.175 63.0006 152.735 63.0006C152.294 63.0006 151.869 63.1615 151.536 63.4537C151.191 63.8987 151.031 64.4626 151.091 65.025V76.0607Z" fill="white"/>
<path d="M159.605 60.3281H162.778V77.8428H168V80.7601H159.605V60.3334V60.3281Z" fill="white"/>
</g>
<defs>
<clipPath id="clip0">
<rect width="168" height="81" fill="white"/>
</clipPath>
</defs>
</svg>
