<svg width="481" height="480" viewBox="0 0 481 480" fill="none" xmlns="http://www.w3.org/2000/svg">
<g opacity="0.3">
<path fill-rule="evenodd" clip-rule="evenodd" d="M240.761 427.636C344.493 427.636 428.584 343.629 428.584 240C428.584 136.371 344.493 52.3636 240.761 52.3636C137.029 52.3636 52.9382 136.371 52.9382 240C52.9382 343.629 137.029 427.636 240.761 427.636ZM240.761 480C373.441 480 481 372.548 481 240C481 107.452 373.441 0 240.761 0C108.081 0 0.522461 107.452 0.522461 240C0.522461 372.548 108.081 480 240.761 480Z" fill="#F91616"/>
<path fill-rule="evenodd" clip-rule="evenodd" d="M240.761 322.908C286.596 322.908 323.753 285.789 323.753 239.999C323.753 194.21 286.596 157.09 240.761 157.09C194.926 157.09 157.77 194.21 157.77 239.999C157.77 285.789 194.926 322.908 240.761 322.908ZM240.761 375.272C315.545 375.272 376.169 314.708 376.169 239.999C376.169 165.29 315.545 104.727 240.761 104.727C165.978 104.727 105.354 165.29 105.354 239.999C105.354 314.708 165.978 375.272 240.761 375.272Z" fill="#F91616"/>
<path d="M279.199 240C279.199 261.207 261.99 278.4 240.761 278.4C219.532 278.4 202.323 261.207 202.323 240C202.323 218.792 219.532 201.6 240.761 201.6C261.99 201.6 279.199 218.792 279.199 240Z" fill="#F91616"/>
</g>
</svg>
